<svg preserveAspectRatio="none" overflow="visible" style="display: block;" width="7.26437" height="7.26437" viewBox="0 0 7.26437 7.26437" fill="none" xmlns="http://www.w3.org/2000/svg">
<g id="Frame" clip-path="url(#clip0_0_480)">
<g id="Vector">
</g>
<path id="Vector_2" d="M6.06285 4.37934L3.79273 2.10923C3.77165 2.08812 3.74661 2.07138 3.71905 2.05995C3.69149 2.04853 3.66195 2.04265 3.63212 2.04265C3.60229 2.04265 3.57275 2.04853 3.54519 2.05995C3.51763 2.07138 3.49259 2.08812 3.47151 2.10923L1.20139 4.37934C1.16961 4.41109 1.14796 4.45156 1.13919 4.49562C1.13041 4.53968 1.13491 4.58535 1.1521 4.62685C1.1693 4.66835 1.19842 4.70382 1.23579 4.72876C1.27315 4.75371 1.31708 4.767 1.362 4.76696H5.90224C5.94716 4.767 5.99109 4.75371 6.02845 4.72876C6.06581 4.70382 6.09494 4.66835 6.11214 4.62685C6.12933 4.58535 6.13383 4.53968 6.12505 4.49562C6.11628 4.45156 6.09463 4.41109 6.06285 4.37934Z" fill="#18C687"/>
</g>
<defs>
<clipPath id="clip0_0_480">
<rect width="7.26437" height="7.26437" fill="white"/>
</clipPath>
</defs>
</svg>
