<svg preserveAspectRatio="none" overflow="visible" style="display: block;" width="7.97817" height="7.97817" viewBox="0 0 7.97817 7.97817" fill="none" xmlns="http://www.w3.org/2000/svg">
<g id="logomark">
<path id="Vector" d="M7.97817 4.28925H6.54925C5.30107 4.28925 4.28925 5.30109 4.28925 6.54925V7.97817C6.25923 7.83209 7.83209 6.25923 7.97817 4.28925Z" fill="#0D76F2"/>
<path id="Vector_2" d="M3.68893 7.97817V6.54925C3.68893 5.30109 2.67709 4.28925 1.42892 4.28925H0C0.146067 6.25923 1.71894 7.83209 3.68893 7.97817Z" fill="#0D76F2"/>
<path id="Vector_3" d="M7.97817 3.68892C7.83209 1.71894 6.25923 0.146067 4.28925 0V1.42892C4.28925 2.67708 5.30107 3.68892 6.54925 3.68892H7.97817Z" fill="#0D76F2"/>
<path id="Vector_4" d="M3.68893 0C1.71894 0.146067 0.146067 1.71894 0 3.68892H1.42892C2.67709 3.68892 3.68893 2.67708 3.68893 1.42892V0Z" fill="#0D76F2"/>
<path id="Vector_5" d="M2.70641 3.98902C3.26091 3.71196 3.71281 3.26007 3.98985 2.70557C4.26691 3.26007 4.71879 3.71196 5.27331 3.98902C4.71879 4.26606 4.26691 4.71796 3.98985 5.27246C3.71281 4.71796 3.26091 4.26606 2.70641 3.98902Z" fill="#0D76F2"/>
</g>
</svg>
