<svg width="311" height="311" viewBox="0 0 311 311" fill="none" xmlns="http://www.w3.org/2000/svg">
<rect width="311" height="311" fill="#1E1E1E"/>
<g>
<path d="M-100 -98C-100 -99.1 -99.1 -100 -98 -100H1461.52C1462.63 -100 1463.52 -99.1 1463.52 -98V409.88C1463.52 410.99 1462.63 411.88 1461.52 411.88H-98C-99.1 411.88 -100 410.99 -100 409.88V-98Z" fill="#444444"/>
<path d="M-98 -100V-99H1461.52V-100V-101H-98V-100ZM1463.52 -98H1462.52V409.88H1463.52H1464.52V-98H1463.52ZM1461.52 411.88V410.88H-98V411.88V412.88H1461.52V411.88ZM-100 409.88H-99V-98H-100H-101V409.88H-100ZM-98 411.88V410.88C-98.55 410.88 -99 410.43 -99 409.88H-100H-101C-101 411.54 -99.66 412.88 -98 412.88V411.88ZM1463.52 409.88H1462.52C1462.52 410.43 1462.07 410.88 1461.52 410.88V411.88V412.88C1463.18 412.88 1464.52 411.54 1464.52 409.88H1463.52ZM1461.52 -100V-99C1462.07 -99 1462.52 -98.55 1462.52 -98H1463.52H1464.52C1464.52 -99.66 1463.18 -101 1461.52 -101V-100ZM-98 -100V-101C-99.66 -101 -101 -99.66 -101 -98H-100H-99C-99 -98.55 -98.55 -99 -98 -99V-100Z" fill="white" fill-opacity="0.1"/>
<g clip-path="url(#clip0_34_2)">
<rect width="310.881" height="310.881" fill="#F9F9F9"/>
<path d="M276.49 -0H173V34.5H276.49V-0ZM276.49 69H310.99V34.5H276.49V69H242V103.5H276.49V69Z" fill="#33C19E"/>
<path d="M25.79 196.88L31.68 180.53L34.84 180.53L40.73 196.88L38.09 196.88L36.59 192.62L29.91 192.62L28.44 196.88L25.79 196.88ZM30.69 190.37L35.83 190.37L33.25 182.91L30.69 190.37ZM46.03 197.16C44.8 197.16 43.82 196.75 43.08 195.94C42.36 195.11 42 193.97 42 192.51L42 184.63L44.44 184.63L44.44 191.89C44.44 192.99 44.63 193.81 45.02 194.33C45.4 194.85 45.98 195.11 46.77 195.11C47.66 195.11 48.35 194.83 48.84 194.26C49.35 193.67 49.6 192.86 49.6 191.82L49.6 184.63L52.04 184.63L52.04 196.88L49.76 196.88L49.71 193.68L50.06 193.82C49.84 194.9 49.39 195.72 48.7 196.31C48.01 196.88 47.12 197.16 46.03 197.16ZM59.16 197.16C58.12 197.16 57.2 196.9 56.42 196.38C55.65 195.85 55.06 195.12 54.65 194.16C54.25 193.2 54.05 192.06 54.05 190.76C54.05 189.45 54.25 188.32 54.67 187.37C55.08 186.41 55.67 185.66 56.44 185.14C57.21 184.62 58.12 184.35 59.16 184.35C60 184.35 60.76 184.53 61.42 184.88C62.08 185.24 62.58 185.73 62.91 186.36L62.91 180.53L65.35 180.53L65.35 196.88L63.07 196.88L63.01 195.04C62.67 195.7 62.15 196.22 61.46 196.61C60.79 196.97 60.02 197.16 59.16 197.16ZM59.8 195.04C60.46 195.04 61.02 194.87 61.49 194.53C61.95 194.2 62.3 193.71 62.54 193.06C62.79 192.41 62.91 191.65 62.91 190.76C62.91 189.84 62.79 189.06 62.54 188.43C62.3 187.79 61.95 187.3 61.49 186.98C61.02 186.64 60.46 186.47 59.8 186.47C58.82 186.47 58.04 186.86 57.46 187.62C56.87 188.38 56.58 189.42 56.58 190.76C56.58 192.08 56.87 193.12 57.46 193.89C58.04 194.66 58.82 195.04 59.8 195.04ZM67.95 196.88L67.95 184.63L70.39 184.63L70.39 196.88L67.95 196.88ZM67.91 182.86L67.91 180.42L70.44 180.42L70.44 182.86L67.91 182.86ZM77.25 196.88C76.08 196.88 75.22 196.61 74.67 196.08C74.12 195.54 73.84 194.7 73.84 193.57L73.84 181.75L76.28 181.75L76.28 193.38C76.28 193.95 76.4 194.34 76.65 194.56C76.9 194.77 77.27 194.88 77.78 194.88L79.53 194.88L79.53 196.88L77.25 196.88ZM71.98 186.63L71.98 184.63L79.53 184.63L79.53 186.63L71.98 186.63ZM89.35 196.88C88.55 196.88 87.9 196.68 87.41 196.26C86.92 195.85 86.67 195.19 86.67 194.28L86.67 180.53L89.12 180.53L89.12 194.05C89.12 194.33 89.19 194.53 89.32 194.67C89.48 194.81 89.69 194.88 89.97 194.88L90.94 194.88L90.94 196.88L89.35 196.88ZM97.6 197.16C96.43 197.16 95.41 196.9 94.54 196.38C93.66 195.85 92.99 195.11 92.51 194.14C92.03 193.18 91.8 192.05 91.8 190.76C91.8 189.45 92.03 188.32 92.51 187.37C92.99 186.42 93.66 185.68 94.54 185.16C95.41 184.62 96.43 184.35 97.6 184.35C98.77 184.35 99.79 184.62 100.66 185.16C101.54 185.68 102.21 186.42 102.69 187.37C103.17 188.32 103.4 189.45 103.4 190.76C103.4 192.05 103.17 193.18 102.69 194.14C102.21 195.11 101.54 195.85 100.66 196.38C99.79 196.9 98.77 197.16 97.6 197.16ZM97.6 195.04C98.64 195.04 99.45 194.66 100.02 193.91C100.58 193.15 100.87 192.09 100.87 190.76C100.87 189.42 100.58 188.38 100.02 187.62C99.45 186.86 98.64 186.47 97.6 186.47C96.57 186.47 95.76 186.86 95.18 187.62C94.61 188.38 94.33 189.42 94.33 190.76C94.33 192.09 94.61 193.15 95.18 193.91C95.76 194.66 96.57 195.04 97.6 195.04ZM110.34 200.61C109.37 200.61 108.52 200.47 107.78 200.18C107.04 199.88 106.44 199.47 105.96 198.93C105.49 198.41 105.16 197.8 104.99 197.09L107.53 196.93C107.7 197.44 107.99 197.84 108.4 198.13C108.83 198.43 109.48 198.59 110.34 198.59C111.35 198.59 112.12 198.37 112.66 197.94C113.22 197.51 113.49 196.86 113.49 195.99L113.49 194.21C113.2 194.84 112.73 195.34 112.09 195.71C111.44 196.08 110.72 196.26 109.92 196.26C108.89 196.26 107.98 196.01 107.18 195.5C106.38 194.99 105.76 194.3 105.32 193.41C104.87 192.51 104.65 191.49 104.65 190.32C104.65 189.14 104.86 188.1 105.29 187.21C105.74 186.32 106.35 185.62 107.14 185.12C107.93 184.61 108.83 184.35 109.83 184.35C110.7 184.35 111.47 184.56 112.13 184.95C112.81 185.35 113.29 185.89 113.58 186.57L113.58 184.63L115.93 184.63L115.93 195.92C115.93 196.93 115.7 197.78 115.24 198.47C114.8 199.18 114.15 199.71 113.31 200.06C112.48 200.43 111.49 200.61 110.34 200.61ZM110.31 194.19C111.27 194.19 112.03 193.84 112.59 193.15C113.18 192.46 113.48 191.51 113.49 190.3C113.51 189.5 113.38 188.81 113.12 188.25C112.86 187.66 112.49 187.22 112 186.91C111.52 186.59 110.96 186.43 110.31 186.43C109.32 186.43 108.54 186.78 107.99 187.49C107.45 188.18 107.18 189.12 107.18 190.3C107.18 191.49 107.46 192.45 108.01 193.15C108.58 193.84 109.35 194.19 110.31 194.19ZM123.43 197.16C122.28 197.16 121.31 196.98 120.51 196.63C119.72 196.28 119.12 195.79 118.69 195.18C118.26 194.55 118.01 193.83 117.95 193.01L120.46 192.9C120.58 193.57 120.88 194.11 121.34 194.51C121.8 194.91 122.5 195.11 123.43 195.11C124.2 195.11 124.81 194.99 125.25 194.74C125.7 194.5 125.92 194.1 125.92 193.57C125.92 193.28 125.84 193.03 125.69 192.83C125.55 192.62 125.27 192.44 124.86 192.3C124.44 192.15 123.83 192 123.02 191.86C121.81 191.63 120.85 191.36 120.16 191.06C119.47 190.75 118.98 190.36 118.69 189.88C118.4 189.41 118.25 188.83 118.25 188.16C118.25 187.03 118.67 186.12 119.49 185.41C120.34 184.71 121.55 184.35 123.13 184.35C124.19 184.35 125.08 184.54 125.8 184.91C126.53 185.26 127.09 185.75 127.48 186.36C127.9 186.96 128.16 187.63 128.27 188.38L125.76 188.52C125.68 188.09 125.53 187.72 125.3 187.42C125.08 187.1 124.79 186.85 124.42 186.68C124.05 186.5 123.62 186.41 123.11 186.41C122.33 186.41 121.74 186.56 121.36 186.87C120.98 187.17 120.78 187.57 120.78 188.06C120.78 188.43 120.87 188.73 121.04 188.96C121.22 189.19 121.51 189.38 121.91 189.54C122.31 189.68 122.84 189.8 123.5 189.91C124.78 190.12 125.77 190.39 126.5 190.71C127.22 191.02 127.72 191.4 128.01 191.86C128.31 192.32 128.45 192.88 128.45 193.54C128.45 194.31 128.24 194.96 127.81 195.5C127.38 196.04 126.79 196.45 126.03 196.75C125.28 197.02 124.42 197.16 123.43 197.16ZM130.04 200.5L131.19 196.88L129.93 196.88L129.93 193.98L132.9 193.98L132.9 196.54L131.45 200.5L130.04 200.5ZM146.42 197.25C145.11 197.25 143.97 197.01 143.01 196.54C142.06 196.06 141.3 195.4 140.75 194.56C140.2 193.71 139.88 192.73 139.78 191.61L142.34 191.45C142.45 192.22 142.67 192.87 143.01 193.41C143.35 193.93 143.8 194.33 144.37 194.6C144.95 194.86 145.65 194.99 146.46 194.99C147.17 194.99 147.77 194.91 148.26 194.74C148.76 194.56 149.15 194.29 149.41 193.94C149.67 193.58 149.8 193.15 149.8 192.65C149.8 192.19 149.69 191.78 149.46 191.43C149.24 191.06 148.82 190.73 148.19 190.44C147.57 190.13 146.67 189.83 145.47 189.54C144.17 189.21 143.12 188.86 142.34 188.48C141.56 188.09 140.99 187.62 140.64 187.05C140.3 186.47 140.13 185.75 140.13 184.91C140.13 183.97 140.35 183.15 140.8 182.44C141.26 181.72 141.91 181.16 142.75 180.76C143.6 180.36 144.61 180.16 145.79 180.16C147.04 180.16 148.1 180.4 148.97 180.85C149.86 181.32 150.56 181.94 151.07 182.74C151.59 183.54 151.91 184.46 152.03 185.48L149.48 185.62C149.4 184.99 149.21 184.44 148.9 183.96C148.6 183.47 148.18 183.1 147.66 182.84C147.14 182.56 146.5 182.42 145.75 182.42C144.8 182.42 144.04 182.64 143.49 183.09C142.95 183.52 142.69 184.09 142.69 184.82C142.69 185.28 142.79 185.67 143.01 185.99C143.24 186.3 143.64 186.57 144.21 186.8C144.79 187.03 145.61 187.27 146.67 187.53C148.08 187.86 149.2 188.25 150.03 188.73C150.88 189.19 151.47 189.74 151.83 190.37C152.18 191 152.36 191.71 152.36 192.51C152.36 193.47 152.1 194.32 151.6 195.04C151.11 195.75 150.42 196.29 149.53 196.68C148.63 197.06 147.6 197.25 146.42 197.25ZM160.19 197.16C158.99 197.16 157.95 196.9 157.08 196.38C156.22 195.85 155.55 195.11 155.07 194.14C154.62 193.18 154.38 192.05 154.38 190.76C154.38 189.47 154.62 188.35 155.07 187.4C155.55 186.43 156.22 185.68 157.08 185.16C157.94 184.62 158.95 184.35 160.12 184.35C161.22 184.35 162.2 184.62 163.04 185.14C163.89 185.65 164.54 186.38 165 187.35C165.48 188.32 165.71 189.48 165.71 190.85L165.71 191.47L156.92 191.47C156.98 192.67 157.29 193.57 157.86 194.16C158.44 194.76 159.23 195.06 160.21 195.06C160.93 195.06 161.53 194.9 162.01 194.56C162.48 194.22 162.81 193.77 163 193.2L165.53 193.36C165.21 194.5 164.57 195.42 163.62 196.12C162.68 196.81 161.54 197.16 160.19 197.16ZM156.92 189.63L163.13 189.63C163.06 188.54 162.74 187.73 162.19 187.21C161.65 186.69 160.96 186.43 160.12 186.43C159.24 186.43 158.52 186.7 157.95 187.26C157.4 187.79 157.06 188.59 156.92 189.63ZM172.45 197.16C171.3 197.16 170.32 196.98 169.52 196.63C168.74 196.28 168.13 195.79 167.7 195.18C167.27 194.55 167.03 193.83 166.97 193.01L169.48 192.9C169.6 193.57 169.89 194.11 170.35 194.51C170.81 194.91 171.51 195.11 172.45 195.11C173.22 195.11 173.82 194.99 174.27 194.74C174.71 194.5 174.94 194.1 174.94 193.57C174.94 193.28 174.86 193.03 174.71 192.83C174.57 192.62 174.29 192.44 173.88 192.3C173.46 192.15 172.85 192 172.03 191.86C170.82 191.63 169.87 191.36 169.18 191.06C168.49 190.75 168 190.36 167.7 189.88C167.41 189.41 167.27 188.83 167.27 188.16C167.27 187.03 167.68 186.12 168.51 185.41C169.35 184.71 170.57 184.35 172.15 184.35C173.21 184.35 174.1 184.54 174.82 184.91C175.54 185.26 176.1 185.75 176.5 186.36C176.91 186.96 177.18 187.63 177.28 188.38L174.77 188.52C174.7 188.09 174.54 187.72 174.31 187.42C174.1 187.1 173.81 186.85 173.44 186.68C173.07 186.5 172.63 186.41 172.13 186.41C171.34 186.41 170.76 186.56 170.38 186.87C169.99 187.17 169.8 187.57 169.8 188.06C169.8 188.43 169.88 188.73 170.05 188.96C170.24 189.19 170.53 189.38 170.93 189.54C171.33 189.68 171.86 189.8 172.52 189.91C173.79 190.12 174.79 190.39 175.51 190.71C176.23 191.02 176.74 191.4 177.03 191.86C177.32 192.32 177.47 192.88 177.47 193.54C177.47 194.31 177.25 194.96 176.82 195.5C176.39 196.04 175.8 196.45 175.05 196.75C174.3 197.02 173.43 197.16 172.45 197.16ZM184.2 197.16C183.05 197.16 182.07 196.98 181.27 196.63C180.49 196.28 179.88 195.79 179.46 195.18C179.03 194.55 178.78 193.83 178.72 193.01L181.23 192.9C181.35 193.57 181.64 194.11 182.1 194.51C182.56 194.91 183.26 195.11 184.2 195.11C184.97 195.11 185.57 194.99 186.02 194.74C186.46 194.5 186.69 194.1 186.69 193.57C186.69 193.28 186.61 193.03 186.46 192.83C186.32 192.62 186.04 192.44 185.63 192.3C185.21 192.15 184.6 192 183.78 191.86C182.57 191.63 181.62 191.36 180.93 191.06C180.24 190.75 179.75 190.36 179.46 189.88C179.16 189.41 179.02 188.83 179.02 188.16C179.02 187.03 179.43 186.12 180.26 185.41C181.1 184.71 182.32 184.35 183.9 184.35C184.96 184.35 185.85 184.54 186.57 184.91C187.29 185.26 187.85 185.75 188.25 186.36C188.67 186.96 188.93 187.63 189.03 188.38L186.53 188.52C186.45 188.09 186.29 187.72 186.06 187.42C185.85 187.1 185.56 186.85 185.19 186.68C184.82 186.5 184.38 186.41 183.88 186.41C183.09 186.41 182.51 186.56 182.13 186.87C181.74 187.17 181.55 187.57 181.55 188.06C181.55 188.43 181.63 188.73 181.8 188.96C181.99 189.19 182.28 189.38 182.68 189.54C183.08 189.68 183.61 189.8 184.27 189.91C185.54 190.12 186.54 190.39 187.26 190.71C187.98 191.02 188.49 191.4 188.78 191.86C189.07 192.32 189.22 192.88 189.22 193.54C189.22 194.31 189 194.96 188.57 195.5C188.14 196.04 187.55 196.45 186.8 196.75C186.05 197.02 185.18 197.16 184.2 197.16ZM191.23 196.88L191.23 184.63L193.67 184.63L193.67 196.88L191.23 196.88ZM191.18 182.86L191.18 180.42L193.72 180.42L193.72 182.86L191.18 182.86ZM201.48 197.16C200.31 197.16 199.29 196.9 198.42 196.38C197.54 195.85 196.87 195.11 196.39 194.14C195.91 193.18 195.68 192.05 195.68 190.76C195.68 189.45 195.91 188.32 196.39 187.37C196.87 186.42 197.54 185.68 198.42 185.16C199.29 184.62 200.31 184.35 201.48 184.35C202.65 184.35 203.67 184.62 204.54 185.16C205.42 185.68 206.09 186.42 206.57 187.37C207.04 188.32 207.28 189.45 207.28 190.76C207.28 192.05 207.04 193.18 206.57 194.14C206.09 195.11 205.42 195.85 204.54 196.38C203.67 196.9 202.65 197.16 201.48 197.16ZM201.48 195.04C202.52 195.04 203.33 194.66 203.9 193.91C204.46 193.15 204.75 192.09 204.75 190.76C204.75 189.42 204.46 188.38 203.9 187.62C203.33 186.86 202.52 186.47 201.48 186.47C200.45 186.47 199.64 186.86 199.06 187.62C198.49 188.38 198.21 189.42 198.21 190.76C198.21 192.09 198.49 193.15 199.06 193.91C199.64 194.66 200.45 195.04 201.48 195.04ZM209.29 196.88L209.29 184.63L211.52 184.63L211.61 187.9L211.31 187.74C211.45 186.94 211.71 186.3 212.1 185.81C212.48 185.31 212.95 184.95 213.5 184.72C214.06 184.48 214.65 184.35 215.3 184.35C216.22 184.35 216.98 184.56 217.58 184.98C218.19 185.38 218.65 185.93 218.96 186.63C219.28 187.33 219.44 188.12 219.44 189.01L219.44 196.88L217 196.88L217 189.74C217 189.02 216.93 188.42 216.77 187.93C216.62 187.43 216.37 187.06 216.01 186.8C215.66 186.53 215.2 186.41 214.63 186.41C213.77 186.41 213.07 186.69 212.53 187.26C212 187.82 211.73 188.65 211.73 189.74L211.73 196.88L209.29 196.88ZM226.88 197.16C225.73 197.16 224.76 196.98 223.96 196.63C223.18 196.28 222.57 195.79 222.14 195.18C221.71 194.55 221.46 193.83 221.4 193.01L223.91 192.9C224.04 193.57 224.33 194.11 224.79 194.51C225.25 194.91 225.95 195.11 226.88 195.11C227.65 195.11 228.26 194.99 228.7 194.74C229.15 194.5 229.37 194.1 229.37 193.57C229.37 193.28 229.29 193.03 229.14 192.83C229 192.62 228.73 192.44 228.31 192.3C227.9 192.15 227.28 192 226.47 191.86C225.26 191.63 224.31 191.36 223.61 191.06C222.92 190.75 222.43 190.36 222.14 189.88C221.85 189.41 221.7 188.83 221.7 188.16C221.7 187.03 222.12 186.12 222.95 185.41C223.79 184.71 225 184.35 226.58 184.35C227.64 184.35 228.53 184.54 229.26 184.91C229.98 185.26 230.54 185.75 230.94 186.36C231.35 186.96 231.61 187.63 231.72 188.38L229.21 188.52C229.13 188.09 228.98 187.72 228.75 187.42C228.53 187.1 228.24 186.85 227.87 186.68C227.5 186.5 227.07 186.41 226.56 186.41C225.78 186.41 225.19 186.56 224.81 186.87C224.43 187.17 224.24 187.57 224.24 188.06C224.24 188.43 224.32 188.73 224.49 188.96C224.67 189.19 224.97 189.38 225.36 189.54C225.76 189.68 226.29 189.8 226.95 189.91C228.23 190.12 229.22 190.39 229.95 190.71C230.67 191.02 231.18 191.4 231.47 191.86C231.76 192.32 231.9 192.88 231.9 193.54C231.9 194.31 231.69 194.96 231.26 195.5C230.83 196.04 230.24 196.45 229.49 196.75C228.73 197.02 227.87 197.16 226.88 197.16ZM239.28 196.88L239.28 184.63L241.72 184.63L241.72 196.88L239.28 196.88ZM239.23 182.86L239.23 180.42L241.76 180.42L241.76 182.86L239.23 182.86ZM244.91 196.88L244.91 184.63L247.15 184.63L247.24 187.9L246.94 187.74C247.08 186.94 247.34 186.3 247.72 185.81C248.1 185.31 248.57 184.95 249.13 184.72C249.68 184.48 250.28 184.35 250.92 184.35C251.84 184.35 252.6 184.56 253.2 184.98C253.82 185.38 254.28 185.93 254.58 186.63C254.91 187.33 255.07 188.12 255.07 189.01L255.07 196.88L252.63 196.88L252.63 189.74C252.63 189.02 252.55 188.42 252.4 187.93C252.24 187.43 251.99 187.06 251.64 186.8C251.28 186.53 250.82 186.41 250.25 186.41C249.39 186.41 248.7 186.69 248.16 187.26C247.62 187.82 247.35 188.65 247.35 189.74L247.35 196.88L244.91 196.88ZM27.31 224.88L27.31 208.53L37.95 208.53L37.95 210.81L29.8 210.81L29.8 215.58L37.67 215.58L37.67 217.79L29.8 217.79L29.8 222.6L38.13 222.6L38.13 224.88L27.31 224.88ZM43.38 224.88L38.91 212.63L41.51 212.63L44.85 222.4L48.19 212.63L50.82 212.63L46.33 224.88L43.38 224.88ZM55.43 225.16C54.15 225.16 53.13 224.87 52.36 224.28C51.61 223.7 51.24 222.88 51.24 221.82C51.24 220.76 51.55 219.94 52.18 219.36C52.82 218.76 53.82 218.33 55.15 218.07L59.36 217.26C59.36 216.31 59.14 215.6 58.7 215.14C58.25 214.67 57.59 214.43 56.72 214.43C55.93 214.43 55.32 214.6 54.87 214.96C54.43 215.29 54.12 215.8 53.95 216.48L51.44 216.32C51.67 215.09 52.24 214.12 53.15 213.41C54.07 212.71 55.26 212.35 56.72 212.35C58.37 212.35 59.63 212.8 60.49 213.69C61.37 214.57 61.81 215.8 61.81 217.4L61.81 222.16C61.81 222.46 61.85 222.66 61.94 222.79C62.05 222.9 62.22 222.95 62.45 222.95L62.89 222.95L62.89 224.88C62.81 224.9 62.69 224.91 62.52 224.93C62.35 224.94 62.17 224.95 61.99 224.95C61.47 224.95 61.02 224.87 60.63 224.7C60.26 224.53 59.99 224.25 59.8 223.87C59.62 223.47 59.53 222.94 59.53 222.28L59.78 222.4C59.66 222.93 59.39 223.41 58.97 223.82C58.57 224.24 58.06 224.57 57.43 224.81C56.82 225.04 56.15 225.16 55.43 225.16ZM55.82 223.22C56.56 223.22 57.18 223.09 57.71 222.81C58.23 222.52 58.64 222.12 58.93 221.61C59.22 221.11 59.36 220.53 59.36 219.89L59.36 219.1L55.77 219.79C55.04 219.93 54.51 220.15 54.21 220.46C53.91 220.75 53.77 221.13 53.77 221.59C53.77 222.11 53.95 222.52 54.3 222.81C54.67 223.09 55.17 223.22 55.82 223.22ZM67 224.88C66.2 224.88 65.56 224.68 65.07 224.26C64.58 223.85 64.33 223.19 64.33 222.28L64.33 208.53L66.77 208.53L66.77 222.05C66.77 222.33 66.84 222.53 66.98 222.67C67.13 222.81 67.35 222.88 67.62 222.88L68.59 222.88L68.59 224.88L67 224.88ZM74.2 225.16C72.97 225.16 71.99 224.75 71.25 223.94C70.53 223.11 70.17 221.97 70.17 220.51L70.17 212.63L72.61 212.63L72.61 219.89C72.61 220.99 72.8 221.81 73.18 222.33C73.57 222.85 74.15 223.11 74.93 223.11C75.82 223.11 76.52 222.83 77.01 222.26C77.51 221.67 77.77 220.86 77.77 219.82L77.77 212.63L80.21 212.63L80.21 224.88L77.93 224.88L77.88 221.68L78.23 221.82C78.01 222.9 77.56 223.72 76.87 224.31C76.18 224.88 75.29 225.16 74.2 225.16ZM86.63 225.16C85.36 225.16 84.34 224.87 83.57 224.28C82.82 223.7 82.44 222.88 82.44 221.82C82.44 220.76 82.75 219.94 83.38 219.36C84.03 218.76 85.02 218.33 86.35 218.07L90.57 217.26C90.57 216.31 90.35 215.6 89.9 215.14C89.46 214.67 88.8 214.43 87.92 214.43C87.14 214.43 86.52 214.6 86.08 214.96C85.63 215.29 85.33 215.8 85.16 216.48L82.65 216.32C82.88 215.09 83.45 214.12 84.35 213.41C85.27 212.71 86.46 212.35 87.92 212.35C89.58 212.35 90.84 212.8 91.7 213.69C92.57 214.57 93.01 215.8 93.01 217.4L93.01 222.16C93.01 222.46 93.06 222.66 93.15 222.79C93.26 222.9 93.42 222.95 93.65 222.95L94.09 222.95L94.09 224.88C94.02 224.9 93.89 224.91 93.72 224.93C93.56 224.94 93.38 224.95 93.19 224.95C92.67 224.95 92.22 224.87 91.84 224.7C91.47 224.53 91.19 224.25 91.01 223.87C90.82 223.47 90.73 222.94 90.73 222.28L90.98 222.4C90.86 222.93 90.59 223.41 90.18 223.82C89.78 224.24 89.26 224.57 88.63 224.81C88.02 225.04 87.35 225.16 86.63 225.16ZM87.02 223.22C87.76 223.22 88.39 223.09 88.91 222.81C89.43 222.52 89.84 222.12 90.13 221.61C90.42 221.11 90.57 220.53 90.57 219.89L90.57 219.1L86.98 219.79C86.24 219.93 85.72 220.15 85.41 220.46C85.12 220.75 84.97 221.13 84.97 221.59C84.97 222.11 85.15 222.52 85.5 222.81C85.87 223.09 86.38 223.22 87.02 223.22ZM99.76 224.88C98.59 224.88 97.73 224.61 97.18 224.08C96.63 223.54 96.35 222.7 96.35 221.57L96.35 209.75L98.79 209.75L98.79 221.38C98.79 221.95 98.92 222.34 99.16 222.56C99.41 222.77 99.78 222.88 100.29 222.88L102.04 222.88L102.04 224.88L99.76 224.88ZM94.49 214.63L94.49 212.63L102.04 212.63L102.04 214.63L94.49 214.63ZM108.75 225.16C107.59 225.16 106.57 224.9 105.69 224.38C104.82 223.85 104.14 223.11 103.66 222.14C103.19 221.18 102.95 220.05 102.95 218.76C102.95 217.45 103.19 216.32 103.66 215.37C104.14 214.42 104.82 213.68 105.69 213.16C106.57 212.62 107.59 212.35 108.75 212.35C109.92 212.35 110.94 212.62 111.82 213.16C112.69 213.68 113.37 214.42 113.84 215.37C114.32 216.32 114.56 217.45 114.56 218.76C114.56 220.05 114.32 221.18 113.84 222.14C113.37 223.11 112.69 223.85 111.82 224.38C110.94 224.9 109.92 225.16 108.75 225.16ZM108.75 223.04C109.8 223.04 110.6 222.66 111.17 221.91C111.74 221.15 112.02 220.09 112.02 218.76C112.02 217.42 111.74 216.38 111.17 215.62C110.6 214.86 109.8 214.47 108.75 214.47C107.72 214.47 106.92 214.86 106.34 215.62C105.77 216.38 105.48 217.42 105.48 218.76C105.48 220.09 105.77 221.15 106.34 221.91C106.92 222.66 107.72 223.04 108.75 223.04ZM116.56 224.88L116.56 212.63L118.8 212.63L118.89 215.88L118.68 215.81C118.85 214.7 119.19 213.9 119.69 213.39C120.22 212.88 120.92 212.63 121.79 212.63L122.97 212.63L122.97 214.82L121.79 214.82C121.18 214.82 120.66 214.92 120.25 215.12C119.83 215.32 119.52 215.62 119.3 216.04C119.1 216.45 119 216.99 119 217.65L119 224.88L116.56 224.88ZM123.19 228.5L124.34 224.88L123.08 224.88L123.08 221.98L126.05 221.98L126.05 224.54L124.6 228.5L123.19 228.5ZM133.67 224.88L133.67 208.53L140.19 208.53C141.36 208.53 142.36 208.73 143.21 209.13C144.05 209.53 144.7 210.1 145.16 210.84C145.62 211.57 145.85 212.45 145.85 213.46C145.85 214.2 145.69 214.86 145.35 215.44C145.03 216.03 144.59 216.49 144.04 216.85C143.5 217.18 142.92 217.38 142.31 217.42L142.19 217.21C143.22 217.21 144.02 217.45 144.59 217.93C145.16 218.39 145.49 219.12 145.58 220.12L146.02 224.88L143.51 224.88L143.12 220.44C143.07 219.78 142.85 219.29 142.45 218.99C142.05 218.66 141.4 218.5 140.49 218.5L136.16 218.5L136.16 224.88L133.67 224.88ZM136.16 216.22L140.24 216.22C141.17 216.22 141.91 215.99 142.45 215.53C143 215.06 143.28 214.39 143.28 213.53C143.28 212.66 143 211.99 142.45 211.53C141.89 211.05 141.09 210.81 140.03 210.81L136.16 210.81L136.16 216.22ZM153.34 225.16C152.14 225.16 151.11 224.9 150.23 224.38C149.37 223.85 148.7 223.11 148.23 222.14C147.77 221.18 147.54 220.05 147.54 218.76C147.54 217.47 147.77 216.35 148.23 215.4C148.7 214.43 149.37 213.68 150.23 213.16C151.09 212.62 152.1 212.35 153.27 212.35C154.38 212.35 155.35 212.62 156.19 213.14C157.04 213.65 157.69 214.38 158.15 215.35C158.63 216.32 158.87 217.48 158.87 218.85L158.87 219.47L150.07 219.47C150.13 220.67 150.45 221.57 151.01 222.16C151.6 222.76 152.38 223.06 153.36 223.06C154.08 223.06 154.68 222.9 155.16 222.56C155.63 222.22 155.97 221.77 156.15 221.2L158.68 221.36C158.36 222.5 157.72 223.42 156.77 224.12C155.83 224.81 154.69 225.16 153.34 225.16ZM150.07 217.63L156.29 217.63C156.21 216.54 155.9 215.73 155.34 215.21C154.81 214.69 154.12 214.43 153.27 214.43C152.4 214.43 151.67 214.7 151.11 215.26C150.55 215.79 150.21 216.59 150.07 217.63ZM163.74 224.88L159.28 212.63L161.88 212.63L165.22 222.4L168.56 212.63L171.18 212.63L166.69 224.88L163.74 224.88ZM175.79 225.16C174.52 225.16 173.5 224.87 172.73 224.28C171.98 223.7 171.6 222.88 171.6 221.82C171.6 220.76 171.91 219.94 172.54 219.36C173.19 218.76 174.18 218.33 175.51 218.07L179.73 217.26C179.73 216.31 179.51 215.6 179.06 215.14C178.62 214.67 177.96 214.43 177.08 214.43C176.3 214.43 175.68 214.6 175.24 214.96C174.79 215.29 174.49 215.8 174.32 216.48L171.81 216.32C172.04 215.09 172.6 214.12 173.51 213.41C174.43 212.71 175.62 212.35 177.08 212.35C178.74 212.35 180 212.8 180.86 213.69C181.73 214.57 182.17 215.8 182.17 217.4L182.17 222.16C182.17 222.46 182.22 222.66 182.31 222.79C182.42 222.9 182.58 222.95 182.81 222.95L183.25 222.95L183.25 224.88C183.18 224.9 183.05 224.91 182.88 224.93C182.72 224.94 182.54 224.95 182.35 224.95C181.83 224.95 181.38 224.87 181 224.7C180.63 224.53 180.35 224.25 180.17 223.87C179.98 223.47 179.89 222.94 179.89 222.28L180.14 222.4C180.02 222.93 179.75 223.41 179.34 223.82C178.94 224.24 178.42 224.57 177.79 224.81C177.18 225.04 176.51 225.16 175.79 225.16ZM176.18 223.22C176.92 223.22 177.55 223.09 178.07 222.81C178.59 222.52 179 222.12 179.29 221.61C179.58 221.11 179.73 220.53 179.73 219.89L179.73 219.1L176.14 219.79C175.4 219.93 174.88 220.15 174.57 220.46C174.28 220.75 174.13 221.13 174.13 221.59C174.13 222.11 174.31 222.52 174.66 222.81C175.03 223.09 175.54 223.22 176.18 223.22ZM184.85 224.88L184.85 212.63L187.09 212.63L187.16 215.67L186.88 215.58C187.02 214.9 187.25 214.33 187.59 213.85C187.95 213.38 188.38 213.01 188.88 212.75C189.39 212.49 189.94 212.35 190.54 212.35C191.59 212.35 192.44 212.66 193.1 213.25C193.76 213.84 194.17 214.64 194.34 215.67L193.95 215.67C194.09 214.95 194.32 214.35 194.64 213.88C194.98 213.38 195.41 213.01 195.93 212.75C196.45 212.49 197.04 212.35 197.7 212.35C198.56 212.35 199.29 212.54 199.89 212.91C200.5 213.26 200.97 213.78 201.27 214.47C201.59 215.16 201.75 216.01 201.75 217.01L201.75 224.88L199.31 224.88L199.31 217.61C199.31 216.55 199.12 215.75 198.74 215.21C198.35 214.67 197.77 214.41 196.99 214.41C196.48 214.41 196.04 214.53 195.65 214.8C195.27 215.06 194.97 215.43 194.75 215.93C194.56 216.42 194.46 217.01 194.46 217.7L194.46 224.88L192.13 224.88L192.13 217.7C192.13 216.65 191.95 215.85 191.6 215.28C191.26 214.7 190.68 214.41 189.85 214.41C189.33 214.41 188.88 214.53 188.49 214.8C188.12 215.06 187.83 215.44 187.62 215.95C187.4 216.44 187.29 217.02 187.29 217.7L187.29 224.88L184.85 224.88ZM204.34 228.34L204.34 212.63L206.64 212.63L206.71 215.26L206.44 215.12C206.74 214.21 207.25 213.53 207.96 213.07C208.66 212.59 209.47 212.35 210.4 212.35C211.59 212.35 212.58 212.66 213.34 213.25C214.13 213.84 214.7 214.61 215.07 215.58C215.45 216.55 215.65 217.61 215.65 218.76C215.65 219.91 215.45 220.97 215.07 221.94C214.7 222.9 214.13 223.69 213.34 224.28C212.58 224.87 211.59 225.16 210.4 225.16C209.78 225.16 209.21 225.05 208.67 224.84C208.13 224.62 207.67 224.32 207.29 223.94C206.92 223.54 206.66 223.07 206.5 222.53L206.78 222.26L206.78 228.34L204.34 228.34ZM209.96 223.04C210.94 223.04 211.71 222.66 212.26 221.91C212.83 221.16 213.11 220.11 213.11 218.76C213.11 217.41 212.83 216.35 212.26 215.6C211.71 214.85 210.94 214.47 209.96 214.47C209.31 214.47 208.75 214.63 208.28 214.96C207.8 215.26 207.43 215.74 207.17 216.38C206.91 217.03 206.78 217.82 206.78 218.76C206.78 219.69 206.9 220.48 207.15 221.13C207.41 221.77 207.78 222.26 208.25 222.58C208.75 222.89 209.31 223.04 209.96 223.04ZM222.71 225.16C221.51 225.16 220.47 224.9 219.6 224.38C218.74 223.85 218.07 223.11 217.59 222.14C217.13 221.18 216.9 220.05 216.9 218.76C216.9 217.47 217.13 216.35 217.59 215.4C218.07 214.43 218.74 213.68 219.6 213.16C220.46 212.62 221.47 212.35 222.64 212.35C223.74 212.35 224.72 212.62 225.56 213.14C226.41 213.65 227.06 214.38 227.52 215.35C228 216.32 228.23 217.48 228.23 218.85L228.23 219.47L219.44 219.47C219.5 220.67 219.81 221.57 220.38 222.16C220.97 222.76 221.75 223.06 222.73 223.06C223.45 223.06 224.05 222.9 224.53 222.56C225 222.22 225.33 221.77 225.52 221.2L228.05 221.36C227.73 222.5 227.09 223.42 226.14 224.12C225.2 224.81 224.06 225.16 222.71 225.16ZM219.44 217.63L225.66 217.63C225.58 216.54 225.26 215.73 224.71 215.21C224.17 214.69 223.48 214.43 222.64 214.43C221.76 214.43 221.04 214.7 220.47 215.26C219.92 215.79 219.58 216.59 219.44 217.63ZM234.6 225.16C233.56 225.16 232.64 224.9 231.86 224.38C231.09 223.85 230.5 223.12 230.09 222.16C229.69 221.2 229.49 220.06 229.49 218.76C229.49 217.45 229.69 216.32 230.11 215.37C230.52 214.41 231.11 213.66 231.88 213.14C232.65 212.62 233.56 212.35 234.6 212.35C235.44 212.35 236.2 212.53 236.86 212.88C237.52 213.24 238.01 213.73 238.35 214.36L238.35 208.53L240.79 208.53L240.79 224.88L238.51 224.88L238.44 223.04C238.11 223.7 237.59 224.22 236.9 224.61C236.23 224.97 235.46 225.16 234.6 225.16ZM235.24 223.04C235.9 223.04 236.47 222.87 236.93 222.53C237.39 222.2 237.74 221.71 237.99 221.06C238.23 220.41 238.35 219.65 238.35 218.76C238.35 217.84 238.23 217.06 237.99 216.43C237.74 215.79 237.39 215.3 236.93 214.98C236.47 214.64 235.9 214.47 235.24 214.47C234.26 214.47 233.48 214.86 232.9 215.62C232.31 216.38 232.02 217.42 232.02 218.76C232.02 220.08 232.31 221.12 232.9 221.89C233.48 222.66 234.26 223.04 235.24 223.04ZM33.73 253.25C32.18 253.25 30.85 252.89 29.75 252.17C28.64 251.43 27.8 250.43 27.22 249.15C26.63 247.86 26.34 246.39 26.34 244.73C26.34 243.09 26.63 241.62 27.22 240.33C27.82 239.04 28.67 238.03 29.8 237.29C30.92 236.54 32.26 236.16 33.83 236.16C35.16 236.16 36.29 236.4 37.21 236.88C38.15 237.35 38.88 238.01 39.42 238.84C39.97 239.66 40.36 240.61 40.57 241.67L37.97 241.81C37.79 240.81 37.37 240 36.73 239.39C36.08 238.76 35.12 238.44 33.83 238.44C32.69 238.44 31.76 238.73 31.04 239.3C30.32 239.86 29.78 240.62 29.43 241.58C29.09 242.53 28.92 243.58 28.92 244.73C28.92 245.93 29.09 247 29.43 247.93C29.78 248.87 30.32 249.61 31.04 250.16C31.78 250.7 32.71 250.97 33.85 250.97C34.74 250.97 35.51 250.78 36.15 250.4C36.8 250.01 37.3 249.49 37.65 248.83C38.02 248.17 38.22 247.44 38.25 246.64L33.87 246.64L33.87 244.55L40.62 244.55L40.62 252.88L38.91 252.88L38.75 249.2L39.08 249.47C38.91 250.21 38.56 250.86 38.04 251.43C37.52 252 36.88 252.44 36.13 252.77C35.39 253.09 34.59 253.25 33.73 253.25ZM43.01 252.88L43.01 240.63L45.24 240.63L45.34 243.88L45.13 243.81C45.3 242.7 45.64 241.9 46.14 241.39C46.67 240.88 47.36 240.63 48.24 240.63L49.41 240.63L49.41 242.82L48.24 242.82C47.62 242.82 47.11 242.92 46.7 243.12C46.28 243.32 45.97 243.62 45.75 244.04C45.55 244.45 45.45 244.99 45.45 245.65L45.45 252.88L43.01 252.88ZM54.17 253.16C52.89 253.16 51.87 252.87 51.1 252.28C50.35 251.7 49.98 250.88 49.98 249.82C49.98 248.76 50.29 247.94 50.92 247.36C51.57 246.76 52.56 246.33 53.89 246.07L58.11 245.26C58.11 244.31 57.88 243.6 57.44 243.14C56.99 242.67 56.33 242.43 55.46 242.43C54.67 242.43 54.06 242.6 53.62 242.96C53.17 243.29 52.86 243.8 52.69 244.48L50.18 244.32C50.41 243.09 50.98 242.12 51.89 241.41C52.81 240.71 54 240.35 55.46 240.35C57.12 240.35 58.37 240.8 59.23 241.69C60.11 242.57 60.55 243.8 60.55 245.4L60.55 250.16C60.55 250.46 60.59 250.66 60.68 250.79C60.79 250.9 60.96 250.95 61.19 250.95L61.63 250.95L61.63 252.88C61.55 252.9 61.43 252.91 61.26 252.93C61.09 252.94 60.91 252.95 60.73 252.95C60.21 252.95 59.76 252.87 59.37 252.7C59 252.53 58.73 252.25 58.54 251.87C58.36 251.47 58.27 250.94 58.27 250.28L58.52 250.4C58.4 250.93 58.13 251.41 57.71 251.82C57.31 252.24 56.8 252.57 56.17 252.81C55.56 253.04 54.89 253.16 54.17 253.16ZM54.56 251.22C55.3 251.22 55.93 251.09 56.45 250.81C56.97 250.52 57.38 250.12 57.67 249.61C57.96 249.11 58.11 248.53 58.11 247.89L58.11 247.1L54.51 247.79C53.78 247.93 53.25 248.15 52.95 248.46C52.66 248.75 52.51 249.13 52.51 249.59C52.51 250.11 52.69 250.52 53.04 250.81C53.41 251.09 53.91 251.22 54.56 251.22ZM63.23 256.34L63.23 240.63L65.53 240.63L65.6 243.26L65.32 243.12C65.63 242.21 66.14 241.53 66.84 241.07C67.55 240.59 68.36 240.35 69.29 240.35C70.48 240.35 71.47 240.66 72.23 241.25C73.02 241.84 73.59 242.61 73.96 243.58C74.34 244.55 74.54 245.61 74.54 246.76C74.54 247.91 74.34 248.97 73.96 249.94C73.59 250.9 73.02 251.69 72.23 252.28C71.47 252.87 70.48 253.16 69.29 253.16C68.67 253.16 68.1 253.05 67.56 252.84C67.02 252.62 66.56 252.32 66.18 251.94C65.81 251.54 65.55 251.07 65.39 250.53L65.67 250.26L65.67 256.34L63.23 256.34ZM68.85 251.04C69.83 251.04 70.6 250.66 71.15 249.91C71.72 249.16 72 248.11 72 246.76C72 245.41 71.72 244.35 71.15 243.6C70.6 242.85 69.83 242.47 68.85 242.47C68.2 242.47 67.64 242.63 67.17 242.96C66.69 243.26 66.32 243.74 66.06 244.38C65.8 245.03 65.67 245.82 65.67 246.76C65.67 247.69 65.79 248.48 66.04 249.13C66.3 249.77 66.67 250.26 67.14 250.58C67.64 250.89 68.2 251.04 68.85 251.04ZM76.55 252.88L76.55 236.53L79 236.53L79 243.4L78.7 243.35C78.83 242.66 79.09 242.1 79.46 241.67C79.82 241.22 80.28 240.89 80.81 240.68C81.35 240.46 81.94 240.35 82.59 240.35C83.48 240.35 84.23 240.56 84.84 240.95C85.46 241.34 85.92 241.88 86.23 242.59C86.55 243.29 86.71 244.1 86.71 245.01L86.71 252.88L84.27 252.88L84.27 245.65C84.27 244.55 84.08 243.73 83.69 243.21C83.32 242.67 82.74 242.41 81.94 242.41C81.05 242.41 80.34 242.69 79.8 243.26C79.26 243.81 79 244.62 79 245.7L79 252.88L76.55 252.88ZM94.15 253.16C93 253.16 92.02 252.98 91.23 252.63C90.44 252.28 89.84 251.79 89.41 251.18C88.98 250.55 88.73 249.83 88.67 249.01L91.18 248.9C91.3 249.57 91.59 250.11 92.05 250.51C92.52 250.91 93.21 251.11 94.15 251.11C94.92 251.11 95.52 250.99 95.97 250.74C96.41 250.5 96.64 250.1 96.64 249.57C96.64 249.28 96.56 249.03 96.41 248.83C96.27 248.62 95.99 248.44 95.58 248.3C95.16 248.15 94.55 248 93.74 247.86C92.52 247.63 91.57 247.36 90.88 247.06C90.19 246.75 89.7 246.36 89.41 245.88C89.11 245.41 88.97 244.83 88.97 244.16C88.97 243.03 89.38 242.12 90.21 241.41C91.06 240.71 92.27 240.35 93.85 240.35C94.91 240.35 95.8 240.54 96.52 240.91C97.24 241.26 97.8 241.75 98.2 242.36C98.62 242.96 98.88 243.63 98.99 244.38L96.48 244.52C96.4 244.09 96.25 243.72 96.02 243.42C95.8 243.1 95.51 242.85 95.14 242.68C94.77 242.5 94.33 242.41 93.83 242.41C93.04 242.41 92.46 242.56 92.08 242.87C91.69 243.17 91.5 243.57 91.5 244.06C91.5 244.43 91.59 244.73 91.76 244.96C91.94 245.19 92.23 245.38 92.63 245.54C93.03 245.68 93.56 245.8 94.22 245.91C95.49 246.12 96.49 246.39 97.21 246.71C97.93 247.02 98.44 247.4 98.73 247.86C99.02 248.32 99.17 248.88 99.17 249.54C99.17 250.31 98.96 250.96 98.53 251.5C98.1 252.04 97.5 252.45 96.75 252.75C96 253.02 95.13 253.16 94.15 253.16ZM109.97 253.16C108.7 253.16 107.68 252.87 106.91 252.28C106.16 251.7 105.78 250.88 105.78 249.82C105.78 248.76 106.1 247.94 106.73 247.36C107.37 246.76 108.36 246.33 109.7 246.07L113.91 245.26C113.91 244.31 113.69 243.6 113.25 243.14C112.8 242.67 112.14 242.43 111.27 242.43C110.48 242.43 109.87 242.6 109.42 242.96C108.98 243.29 108.67 243.8 108.5 244.48L105.99 244.32C106.22 243.09 106.79 242.12 107.69 241.41C108.62 240.71 109.81 240.35 111.27 240.35C112.92 240.35 114.18 240.8 115.04 241.69C115.92 242.57 116.35 243.8 116.35 245.4L116.35 250.16C116.35 250.46 116.4 250.66 116.49 250.79C116.6 250.9 116.77 250.95 117 250.95L117.44 250.95L117.44 252.88C117.36 252.9 117.24 252.91 117.07 252.93C116.9 252.94 116.72 252.95 116.54 252.95C116.02 252.95 115.56 252.87 115.18 252.7C114.81 252.53 114.53 252.25 114.35 251.87C114.17 251.47 114.07 250.94 114.07 250.28L114.33 250.4C114.2 250.93 113.94 251.41 113.52 251.82C113.12 252.24 112.61 252.57 111.98 252.81C111.36 253.04 110.7 253.16 109.97 253.16ZM110.37 251.22C111.1 251.22 111.73 251.09 112.25 250.81C112.78 250.52 113.18 250.12 113.48 249.61C113.77 249.11 113.91 248.53 113.91 247.89L113.91 247.1L110.32 247.79C109.58 247.93 109.06 248.15 108.75 248.46C108.46 248.75 108.32 249.13 108.32 249.59C108.32 250.11 108.49 250.52 108.85 250.81C109.22 251.09 109.72 251.22 110.37 251.22ZM119.04 252.88L119.04 240.63L121.27 240.63L121.36 243.9L121.06 243.74C121.2 242.94 121.46 242.3 121.85 241.81C122.23 241.31 122.7 240.95 123.25 240.72C123.8 240.48 124.4 240.35 125.05 240.35C125.97 240.35 126.73 240.56 127.33 240.98C127.94 241.38 128.4 241.93 128.71 242.63C129.03 243.33 129.19 244.12 129.19 245.01L129.19 252.88L126.75 252.88L126.75 245.74C126.75 245.02 126.67 244.42 126.52 243.93C126.37 243.43 126.11 243.06 125.76 242.8C125.41 242.53 124.95 242.41 124.38 242.41C123.52 242.41 122.82 242.69 122.28 243.26C121.75 243.82 121.48 244.65 121.48 245.74L121.48 252.88L119.04 252.88ZM136.26 253.16C135.22 253.16 134.31 252.9 133.52 252.38C132.76 251.85 132.16 251.12 131.75 250.16C131.35 249.2 131.15 248.06 131.15 246.76C131.15 245.45 131.36 244.32 131.77 243.37C132.19 242.41 132.78 241.66 133.55 241.14C134.31 240.62 135.22 240.35 136.26 240.35C137.11 240.35 137.86 240.53 138.52 240.88C139.18 241.24 139.68 241.73 140.02 242.36L140.02 236.53L142.46 236.53L142.46 252.88L140.18 252.88L140.11 251.04C139.77 251.7 139.26 252.22 138.57 252.61C137.89 252.97 137.12 253.16 136.26 253.16ZM136.91 251.04C137.57 251.04 138.13 250.87 138.59 250.53C139.05 250.2 139.4 249.71 139.65 249.06C139.9 248.41 140.02 247.65 140.02 246.76C140.02 245.84 139.9 245.06 139.65 244.43C139.4 243.79 139.05 243.3 138.59 242.98C138.13 242.64 137.57 242.47 136.91 242.47C135.93 242.47 135.14 242.86 134.56 243.62C133.98 244.38 133.69 245.42 133.69 246.76C133.69 248.08 133.98 249.12 134.56 249.89C135.14 250.66 135.93 251.04 136.91 251.04ZM157.51 253.25C155.93 253.25 154.57 252.91 153.43 252.24C152.3 251.55 151.42 250.56 150.81 249.29C150.19 248.02 149.89 246.5 149.89 244.73C149.89 242.97 150.19 241.44 150.81 240.17C151.42 238.88 152.3 237.89 153.43 237.2C154.57 236.51 155.93 236.16 157.51 236.16C159.11 236.16 160.47 236.51 161.61 237.2C162.76 237.89 163.63 238.88 164.23 240.17C164.85 241.44 165.16 242.97 165.16 244.73C165.16 246.5 164.85 248.02 164.23 249.29C163.63 250.56 162.76 251.55 161.61 252.24C160.47 252.91 159.11 253.25 157.51 253.25ZM157.51 250.97C158.57 250.97 159.47 250.73 160.23 250.24C160.99 249.74 161.58 249.04 161.98 248.12C162.38 247.18 162.58 246.05 162.58 244.73C162.58 243.41 162.38 242.28 161.98 241.35C161.58 240.41 160.99 239.69 160.23 239.2C159.47 238.7 158.57 238.44 157.51 238.44C156.47 238.44 155.57 238.7 154.81 239.2C154.06 239.69 153.48 240.41 153.06 241.35C152.67 242.28 152.47 243.41 152.47 244.73C152.47 246.05 152.67 247.18 153.06 248.12C153.48 249.04 154.06 249.74 154.81 250.24C155.57 250.73 156.47 250.97 157.51 250.97ZM167.43 252.88L167.43 240.63L169.67 240.63L169.74 243.67L169.46 243.58C169.6 242.9 169.84 242.33 170.17 241.85C170.53 241.38 170.96 241.01 171.46 240.75C171.97 240.49 172.52 240.35 173.12 240.35C174.17 240.35 175.02 240.66 175.68 241.25C176.34 241.84 176.75 242.64 176.92 243.67L176.53 243.67C176.67 242.95 176.9 242.35 177.22 241.88C177.56 241.38 177.99 241.01 178.51 240.75C179.03 240.49 179.62 240.35 180.28 240.35C181.14 240.35 181.87 240.54 182.47 240.91C183.09 241.26 183.55 241.78 183.85 242.47C184.18 243.16 184.34 244.01 184.34 245.01L184.34 252.88L181.9 252.88L181.9 245.61C181.9 244.55 181.7 243.75 181.32 243.21C180.94 242.67 180.35 242.41 179.57 242.41C179.06 242.41 178.62 242.53 178.23 242.8C177.85 243.06 177.55 243.43 177.34 243.93C177.14 244.42 177.04 245.01 177.04 245.7L177.04 252.88L174.71 252.88L174.71 245.7C174.71 244.65 174.53 243.85 174.18 243.28C173.84 242.7 173.26 242.41 172.43 242.41C171.91 242.41 171.46 242.53 171.07 242.8C170.7 243.06 170.41 243.44 170.2 243.95C169.98 244.44 169.88 245.02 169.88 245.7L169.88 252.88L167.43 252.88ZM186.92 252.88L186.92 240.63L189.15 240.63L189.25 243.9L188.95 243.74C189.09 242.94 189.35 242.3 189.73 241.81C190.11 241.31 190.58 240.95 191.13 240.72C191.69 240.48 192.29 240.35 192.93 240.35C193.85 240.35 194.61 240.56 195.21 240.98C195.82 241.38 196.29 241.93 196.59 242.63C196.91 243.33 197.08 244.12 197.08 245.01L197.08 252.88L194.63 252.88L194.63 245.74C194.63 245.02 194.56 244.42 194.41 243.93C194.25 243.43 194 243.06 193.65 242.8C193.29 242.53 192.83 242.41 192.26 242.41C191.4 242.41 190.71 242.69 190.17 243.26C189.63 243.82 189.36 244.65 189.36 245.74L189.36 252.88L186.92 252.88ZM199.84 252.88L199.84 240.63L202.28 240.63L202.28 252.88L199.84 252.88ZM199.79 238.86L199.79 236.42L202.33 236.42L202.33 238.86L199.79 238.86ZM210.97 253.16C210.13 253.16 209.37 252.97 208.71 252.61C208.07 252.22 207.57 251.7 207.22 251.04L207.15 252.88L204.87 252.88L204.87 236.53L207.31 236.53L207.31 242.36C207.63 241.82 208.11 241.35 208.74 240.95C209.38 240.56 210.13 240.35 210.97 240.35C212.03 240.35 212.95 240.62 213.73 241.14C214.52 241.66 215.12 242.41 215.53 243.37C215.96 244.32 216.17 245.45 216.17 246.76C216.17 248.06 215.96 249.2 215.53 250.16C215.12 251.12 214.52 251.85 213.73 252.38C212.95 252.9 212.03 253.16 210.97 253.16ZM210.58 251.04C211.51 251.04 212.26 250.66 212.81 249.91C213.37 249.15 213.64 248.09 213.64 246.76C213.64 245.42 213.37 244.38 212.81 243.62C212.26 242.86 211.52 242.47 210.6 242.47C209.91 242.47 209.32 242.64 208.83 242.98C208.34 243.32 207.96 243.81 207.7 244.45C207.44 245.08 207.31 245.85 207.31 246.76C207.31 247.63 207.44 248.39 207.7 249.04C207.96 249.68 208.34 250.18 208.83 250.53C209.32 250.87 209.9 251.04 210.58 251.04ZM221.87 253.16C220.6 253.16 219.58 252.87 218.81 252.28C218.06 251.7 217.68 250.88 217.68 249.82C217.68 248.76 218 247.94 218.62 247.36C219.27 246.76 220.26 246.33 221.59 246.07L225.81 245.26C225.81 244.31 225.59 243.6 225.14 243.14C224.7 242.67 224.04 242.43 223.16 242.43C222.38 242.43 221.76 242.6 221.32 242.96C220.87 243.29 220.57 243.8 220.4 244.48L217.89 244.32C218.12 243.09 218.69 242.12 219.59 241.41C220.51 240.71 221.7 240.35 223.16 240.35C224.82 240.35 226.08 240.8 226.94 241.69C227.81 242.57 228.25 243.8 228.25 245.4L228.25 250.16C228.25 250.46 228.3 250.66 228.39 250.79C228.5 250.9 228.66 250.95 228.9 250.95L229.33 250.95L229.33 252.88C229.25 252.9 229.13 252.91 228.96 252.93C228.79 252.94 228.62 252.95 228.43 252.95C227.91 252.95 227.46 252.87 227.07 252.7C226.71 252.53 226.43 252.25 226.25 251.87C226.06 251.47 225.97 250.94 225.97 250.28L226.22 250.4C226.1 250.93 225.83 251.41 225.42 251.82C225.02 252.24 224.5 252.57 223.87 252.81C223.26 253.04 222.59 253.16 221.87 253.16ZM222.26 251.22C223 251.22 223.63 251.09 224.15 250.81C224.67 250.52 225.08 250.12 225.37 249.61C225.66 249.11 225.81 248.53 225.81 247.89L225.81 247.1L222.22 247.79C221.48 247.93 220.96 248.15 220.65 248.46C220.36 248.75 220.21 249.13 220.21 249.59C220.21 250.11 220.39 250.52 220.74 250.81C221.11 251.09 221.62 251.22 222.26 251.22ZM230.93 252.88L230.93 240.63L233.17 240.63L233.26 243.88L233.05 243.81C233.22 242.7 233.56 241.9 234.06 241.39C234.59 240.88 235.28 240.63 236.16 240.63L237.33 240.63L237.33 242.82L236.16 242.82C235.55 242.82 235.03 242.92 234.62 243.12C234.2 243.32 233.89 243.62 233.67 244.04C233.47 244.45 233.37 244.99 233.37 245.65L233.37 252.88L230.93 252.88ZM28.3 280.88L28.3 267.85C28.3 266.84 28.58 266.03 29.15 265.43C29.72 264.83 30.61 264.53 31.82 264.53L33.99 264.53L33.99 266.54L32.14 266.54C31.67 266.54 31.32 266.67 31.09 266.93C30.85 267.17 30.74 267.53 30.74 267.99L30.74 280.88L28.3 280.88ZM26.59 270.77L26.59 268.79L33.8 268.79L33.8 270.77L26.59 270.77ZM40.16 281.16C38.99 281.16 37.97 280.9 37.1 280.38C36.22 279.85 35.55 279.11 35.07 278.14C34.6 277.18 34.36 276.05 34.36 274.76C34.36 273.45 34.6 272.32 35.07 271.37C35.55 270.42 36.22 269.68 37.1 269.16C37.97 268.62 38.99 268.36 40.16 268.36C41.33 268.36 42.35 268.62 43.22 269.16C44.1 269.68 44.77 270.42 45.25 271.37C45.73 272.32 45.96 273.45 45.96 274.76C45.96 276.05 45.73 277.18 45.25 278.14C44.77 279.11 44.1 279.85 43.22 280.38C42.35 280.9 41.33 281.16 40.16 281.16ZM40.16 279.04C41.2 279.04 42.01 278.66 42.58 277.91C43.15 277.14 43.43 276.09 43.43 274.76C43.43 273.42 43.15 272.38 42.58 271.62C42.01 270.86 41.2 270.47 40.16 270.47C39.13 270.47 38.33 270.86 37.74 271.62C37.17 272.38 36.89 273.42 36.89 274.76C36.89 276.09 37.17 277.14 37.74 277.91C38.33 278.66 39.13 279.04 40.16 279.04ZM47.97 280.88L47.97 268.63L50.2 268.63L50.3 271.88L50.09 271.81C50.26 270.7 50.6 269.9 51.1 269.39C51.62 268.88 52.32 268.63 53.2 268.63L54.37 268.63L54.37 270.82L53.2 270.82C52.58 270.82 52.07 270.92 51.66 271.12C51.24 271.32 50.93 271.62 50.71 272.04C50.51 272.45 50.41 272.99 50.41 273.65L50.41 280.88L47.97 280.88ZM61.97 280.88L61.97 264.53L64.45 264.53L64.45 279.96L63.14 278.6L72.42 278.6L72.42 280.88L61.97 280.88ZM78.89 281.16C77.72 281.16 76.7 280.9 75.83 280.38C74.95 279.85 74.27 279.11 73.8 278.14C73.32 277.18 73.08 276.05 73.08 274.76C73.08 273.45 73.32 272.32 73.8 271.37C74.27 270.42 74.95 269.68 75.83 269.16C76.7 268.62 77.72 268.36 78.89 268.36C80.05 268.36 81.08 268.62 81.95 269.16C82.83 269.68 83.5 270.42 83.98 271.37C84.45 272.32 84.69 273.45 84.69 274.76C84.69 276.05 84.45 277.18 83.98 278.14C83.5 279.11 82.83 279.85 81.95 280.38C81.08 280.9 80.05 281.16 78.89 281.16ZM78.89 279.04C79.93 279.04 80.74 278.66 81.31 277.91C81.87 277.14 82.16 276.09 82.16 274.76C82.16 273.42 81.87 272.38 81.31 271.62C80.74 270.86 79.93 270.47 78.89 270.47C77.86 270.47 77.05 270.86 76.47 271.62C75.9 272.38 75.62 273.42 75.62 274.76C75.62 276.09 75.9 277.14 76.47 277.91C77.05 278.66 77.86 279.04 78.89 279.04ZM91.63 284.61C90.66 284.61 89.81 284.47 89.07 284.18C88.33 283.88 87.73 283.47 87.25 282.93C86.77 282.41 86.45 281.8 86.28 281.09L88.82 280.93C88.98 281.44 89.28 281.83 89.69 282.13C90.12 282.43 90.77 282.59 91.63 282.59C92.64 282.59 93.41 282.37 93.95 281.94C94.5 281.51 94.78 280.86 94.78 279.99L94.78 278.21C94.49 278.84 94.02 279.34 93.38 279.71C92.73 280.08 92.01 280.26 91.21 280.26C90.18 280.26 89.27 280.01 88.47 279.5C87.67 278.99 87.05 278.3 86.61 277.41C86.16 276.51 85.94 275.49 85.94 274.32C85.94 273.14 86.15 272.1 86.58 271.21C87.03 270.32 87.64 269.62 88.42 269.12C89.22 268.61 90.12 268.36 91.12 268.36C91.99 268.36 92.76 268.56 93.42 268.95C94.1 269.35 94.58 269.89 94.87 270.57L94.87 268.63L97.22 268.63L97.22 279.92C97.22 280.93 96.99 281.78 96.53 282.47C96.09 283.18 95.44 283.71 94.6 284.06C93.77 284.43 92.78 284.61 91.63 284.61ZM91.6 278.19C92.55 278.19 93.31 277.84 93.88 277.15C94.47 276.46 94.77 275.51 94.78 274.3C94.8 273.5 94.67 272.81 94.41 272.25C94.15 271.66 93.77 271.22 93.28 270.91C92.81 270.59 92.25 270.43 91.6 270.43C90.6 270.43 89.83 270.78 89.28 271.49C88.74 272.18 88.47 273.12 88.47 274.3C88.47 275.49 88.75 276.45 89.3 277.15C89.87 277.84 90.64 278.19 91.6 278.19ZM104.72 281.16C103.57 281.16 102.59 280.98 101.8 280.63C101.01 280.28 100.41 279.79 99.98 279.18C99.55 278.55 99.3 277.83 99.24 277.01L101.75 276.9C101.87 277.57 102.17 278.11 102.62 278.51C103.09 278.91 103.78 279.11 104.72 279.11C105.49 279.11 106.09 278.99 106.54 278.74C106.98 278.5 107.21 278.1 107.21 277.57C107.21 277.27 107.13 277.03 106.98 276.83C106.84 276.62 106.56 276.44 106.15 276.3C105.73 276.15 105.12 276 104.31 275.86C103.09 275.63 102.14 275.36 101.45 275.06C100.76 274.75 100.27 274.36 99.98 273.88C99.69 273.41 99.54 272.83 99.54 272.15C99.54 271.03 99.95 270.12 100.78 269.42C101.63 268.71 102.84 268.36 104.42 268.36C105.48 268.36 106.37 268.54 107.09 268.91C107.81 269.26 108.38 269.75 108.77 270.36C109.19 270.96 109.45 271.63 109.56 272.38L107.05 272.52C106.97 272.09 106.82 271.73 106.59 271.42C106.37 271.1 106.08 270.85 105.71 270.68C105.34 270.5 104.91 270.4 104.4 270.4C103.61 270.4 103.03 270.56 102.65 270.87C102.26 271.17 102.07 271.57 102.07 272.06C102.07 272.43 102.16 272.73 102.33 272.96C102.51 273.19 102.8 273.38 103.2 273.54C103.6 273.68 104.13 273.8 104.79 273.9C106.06 274.12 107.06 274.39 107.78 274.71C108.5 275.02 109.01 275.4 109.3 275.86C109.59 276.32 109.74 276.88 109.74 277.54C109.74 278.31 109.53 278.96 109.1 279.5C108.67 280.04 108.08 280.45 107.32 280.75C106.57 281.02 105.7 281.16 104.72 281.16ZM121.14 281.16C119.92 281.16 118.93 280.75 118.2 279.94C117.47 279.11 117.11 277.97 117.11 276.51L117.11 268.63L119.56 268.63L119.56 275.89C119.56 276.99 119.75 277.81 120.13 278.33C120.52 278.85 121.1 279.11 121.88 279.11C122.77 279.11 123.46 278.83 123.95 278.26C124.46 277.67 124.71 276.86 124.71 275.82L124.71 268.63L127.16 268.63L127.16 280.88L124.88 280.88L124.83 277.68L125.17 277.82C124.96 278.89 124.51 279.72 123.82 280.31C123.12 280.88 122.23 281.16 121.14 281.16ZM130.15 284.34L130.15 268.63L132.45 268.63L132.52 271.26L132.24 271.12C132.55 270.21 133.06 269.53 133.76 269.07C134.47 268.59 135.28 268.36 136.2 268.36C137.4 268.36 138.38 268.65 139.15 269.25C139.93 269.84 140.51 270.61 140.88 271.58C141.26 272.55 141.45 273.61 141.45 274.76C141.45 275.91 141.26 276.97 140.88 277.94C140.51 278.9 139.93 279.69 139.15 280.28C138.38 280.87 137.4 281.16 136.2 281.16C135.59 281.16 135.01 281.05 134.48 280.84C133.94 280.62 133.48 280.32 133.09 279.94C132.73 279.54 132.47 279.07 132.31 278.53L132.59 278.26L132.59 284.34L130.15 284.34ZM135.77 279.04C136.75 279.04 137.52 278.66 138.07 277.91C138.64 277.16 138.92 276.11 138.92 274.76C138.92 273.41 138.64 272.36 138.07 271.6C137.52 270.85 136.75 270.47 135.77 270.47C135.12 270.47 134.56 270.63 134.09 270.96C133.61 271.26 133.24 271.74 132.98 272.38C132.72 273.03 132.59 273.82 132.59 274.76C132.59 275.69 132.71 276.48 132.96 277.13C133.22 277.77 133.59 278.26 134.06 278.58C134.55 278.89 135.12 279.04 135.77 279.04ZM147.82 281.16C146.78 281.16 145.87 280.9 145.08 280.38C144.32 279.85 143.72 279.12 143.31 278.17C142.91 277.2 142.71 276.06 142.71 274.76C142.71 273.45 142.92 272.32 143.33 271.37C143.75 270.4 144.34 269.66 145.11 269.14C145.88 268.62 146.78 268.36 147.82 268.36C148.67 268.36 149.42 268.53 150.08 268.88C150.74 269.24 151.24 269.73 151.58 270.36L151.58 264.53L154.02 264.53L154.02 280.88L151.74 280.88L151.67 279.04C151.33 279.7 150.82 280.22 150.13 280.61C149.45 280.98 148.68 281.16 147.82 281.16ZM148.47 279.04C149.13 279.04 149.69 278.87 150.15 278.53C150.61 278.2 150.96 277.7 151.21 277.06C151.46 276.42 151.58 275.65 151.58 274.76C151.58 273.84 151.46 273.06 151.21 272.43C150.96 271.79 150.61 271.3 150.15 270.98C149.69 270.64 149.13 270.47 148.47 270.47C147.49 270.47 146.7 270.86 146.12 271.62C145.54 272.38 145.25 273.42 145.25 274.76C145.25 276.08 145.54 277.12 146.12 277.89C146.7 278.66 147.49 279.04 148.47 279.04ZM160.23 281.16C158.95 281.16 157.93 280.87 157.16 280.28C156.41 279.7 156.04 278.88 156.04 277.82C156.04 276.76 156.35 275.94 156.98 275.36C157.63 274.76 158.62 274.33 159.95 274.07L164.17 273.26C164.17 272.31 163.94 271.6 163.5 271.14C163.05 270.67 162.39 270.43 161.52 270.43C160.74 270.43 160.12 270.61 159.68 270.96C159.23 271.3 158.92 271.8 158.75 272.48L156.24 272.32C156.47 271.09 157.04 270.12 157.95 269.42C158.87 268.71 160.06 268.36 161.52 268.36C163.18 268.36 164.44 268.8 165.29 269.69C166.17 270.57 166.61 271.8 166.61 273.4L166.61 278.17C166.61 278.46 166.65 278.66 166.75 278.79C166.85 278.89 167.02 278.95 167.25 278.95L167.69 278.95L167.69 280.88C167.61 280.9 167.49 280.91 167.32 280.93C167.15 280.94 166.97 280.95 166.79 280.95C166.27 280.95 165.82 280.87 165.43 280.7C165.06 280.53 164.79 280.25 164.6 279.87C164.42 279.47 164.33 278.94 164.33 278.28L164.58 278.4C164.46 278.93 164.19 279.41 163.77 279.82C163.38 280.24 162.86 280.57 162.23 280.81C161.62 281.04 160.95 281.16 160.23 281.16ZM160.62 279.23C161.36 279.23 161.99 279.09 162.51 278.81C163.03 278.52 163.44 278.12 163.73 277.61C164.02 277.11 164.17 276.53 164.17 275.89L164.17 275.1L160.57 275.79C159.84 275.93 159.31 276.15 159.01 276.46C158.72 276.75 158.57 277.13 158.57 277.59C158.57 278.11 158.75 278.52 159.1 278.81C159.47 279.09 159.97 279.23 160.62 279.23ZM173.36 280.88C172.19 280.88 171.33 280.61 170.78 280.08C170.23 279.54 169.95 278.7 169.95 277.57L169.95 265.75L172.39 265.75L172.39 277.38C172.39 277.95 172.51 278.34 172.76 278.56C173 278.77 173.38 278.88 173.89 278.88L175.64 278.88L175.64 280.88L173.36 280.88ZM168.08 270.63L168.08 268.63L175.64 268.63L175.64 270.63L168.08 270.63ZM182.35 281.16C181.15 281.16 180.12 280.9 179.24 280.38C178.38 279.85 177.71 279.11 177.24 278.14C176.78 277.18 176.55 276.05 176.55 274.76C176.55 273.47 176.78 272.35 177.24 271.39C177.71 270.43 178.38 269.68 179.24 269.16C180.1 268.62 181.12 268.36 182.28 268.36C183.39 268.36 184.36 268.62 185.21 269.14C186.05 269.64 186.7 270.38 187.16 271.35C187.64 272.32 187.88 273.48 187.88 274.85L187.88 275.47L179.08 275.47C179.14 276.67 179.46 277.57 180.03 278.17C180.61 278.76 181.39 279.06 182.37 279.06C183.09 279.06 183.69 278.89 184.17 278.56C184.65 278.22 184.98 277.77 185.16 277.2L187.69 277.36C187.37 278.5 186.73 279.42 185.78 280.12C184.84 280.81 183.7 281.16 182.35 281.16ZM179.08 273.63L185.3 273.63C185.22 272.54 184.91 271.73 184.35 271.21C183.82 270.69 183.13 270.43 182.28 270.43C181.41 270.43 180.69 270.7 180.12 271.26C179.56 271.79 179.22 272.58 179.08 273.63Z" fill="#0A0A0A"/>
<path d="M315.2 11.25L0 11.25" stroke="#DDDDDD" stroke-width="0.287853"/>
<path d="M315.2 299.1H0" stroke="#DDDDDD" stroke-width="0.287853"/>
<path d="M11.52 -0.26L11.52 393.52" stroke="#DDDDDD" stroke-width="0.287853"/>
<path d="M299.37 -0.26L299.37 393.52" stroke="#DDDDDD" stroke-width="0.287853"/>
<g>
<path d="M11.52 9.81V12.69" stroke="#33C19E" stroke-width="0.287853" stroke-linejoin="round"/>
<path d="M10.07 11.25L12.95 11.25" stroke="#33C19E" stroke-width="0.287853" stroke-linejoin="round"/>
</g>
<g>
<path d="M299.36 9.81V12.69" stroke="#33C19E" stroke-width="0.287853" stroke-linejoin="round"/>
<path d="M297.93 11.25L300.81 11.25" stroke="#33C19E" stroke-width="0.287853" stroke-linejoin="round"/>
</g>
<g>
<path d="M11.52 297.67V300.54" stroke="#33C19E" stroke-width="0.287853" stroke-linejoin="round"/>
<path d="M10.07 299.11L12.95 299.11" stroke="#33C19E" stroke-width="0.287853" stroke-linejoin="round"/>
</g>
<g>
<path d="M299.36 297.67V300.54" stroke="#33C19E" stroke-width="0.287853" stroke-linejoin="round"/>
<path d="M297.93 299.11L300.81 299.11" stroke="#33C19E" stroke-width="0.287853" stroke-linejoin="round"/>
</g>
<g>
<g clip-path="url(#clip1_34_2)">
<path d="M34.32 161.76L34.89 164.04C34.9 164.11 34.91 164.14 34.92 164.17C35.01 164.44 35.26 164.64 35.55 164.66C35.58 164.66 35.61 164.66 35.68 164.66C35.76 164.66 35.8 164.66 35.84 164.66C36.18 164.62 36.46 164.35 36.49 164.01C36.49 163.97 36.49 163.93 36.49 163.85V158.68M39.58 161.58C40.28 161.58 40.85 161.01 40.85 160.31C40.85 159.61 40.28 159.04 39.58 159.04M36.58 158.68H35.22C34.32 158.68 33.59 159.41 33.59 160.31C33.59 161.21 34.32 161.94 35.22 161.94H36.58C37.22 161.94 38.01 162.28 38.61 162.61C38.97 162.81 39.14 162.9 39.26 162.89C39.36 162.88 39.45 162.83 39.51 162.74C39.58 162.64 39.58 162.46 39.58 162.08V158.54C39.58 158.16 39.58 157.97 39.51 157.88C39.45 157.79 39.36 157.74 39.26 157.73C39.14 157.71 38.97 157.81 38.61 158C38.01 158.33 37.22 158.68 36.58 158.68Z" stroke="black" stroke-width="0.725632" stroke-linecap="round" stroke-linejoin="round"/>
</g>
<g>
<path d="M45.06 164.03V157.85H46.18L48.21 162.74V157.85H49.11V164.03H47.99L45.96 159.15V164.03H45.06ZM50.81 164.03V157.85H54.6V158.71H51.72V160.51H54.5V161.35H51.72V163.17H54.67V164.03H50.81ZM56.52 164.03L55.86 157.85H56.77L57.28 163.28H57.18L57.82 158.55H58.62L59.27 163.28H59.16L59.68 157.85H60.59L59.93 164.03H58.74L58.12 159.5H58.33L57.71 164.03H56.52ZM67.6 164.03V157.85H71.47V158.69H68L68.52 158.2V161.04L68 160.59H71.31V161.43H68L68.52 160.99V164.03H67.6ZM73.09 164.03V157.85H76.88V158.71H74V160.51H76.78V161.35H74V163.17H76.95V164.03H73.09ZM78.1 164.03L79.91 157.85H81.09L82.9 164.03H81.96L80.5 158.8L79.05 164.03H78.1ZM79.11 162.42L79.39 161.58H81.62L81.89 162.42H79.11ZM85.62 164.03V158.71H83.81V157.85H88.34V158.71H86.52V164.03H85.62ZM91.64 164.17C90.98 164.17 90.46 163.97 90.09 163.56C89.72 163.16 89.53 162.6 89.53 161.88V157.85H90.45V161.92C90.45 162.37 90.55 162.72 90.75 162.96C90.96 163.2 91.25 163.32 91.64 163.32C92.03 163.32 92.33 163.2 92.53 162.96C92.73 162.72 92.83 162.37 92.83 161.92V157.85H93.75V161.88C93.75 162.6 93.56 163.16 93.19 163.56C92.82 163.97 92.3 164.17 91.64 164.17ZM95.18 164.03V157.85H97.11C97.76 157.85 98.28 158.02 98.65 158.35C99.02 158.68 99.21 159.13 99.21 159.7C99.21 159.99 99.15 160.25 99.01 160.48C98.88 160.71 98.71 160.88 98.5 161.01C98.29 161.14 98.07 161.21 97.83 161.23L97.79 161.12C98.22 161.14 98.54 161.24 98.75 161.42C98.97 161.59 99.09 161.88 99.13 162.27L99.28 164.03H98.37L98.23 162.45C98.21 162.25 98.17 162.08 98.1 161.96C98.03 161.84 97.92 161.75 97.78 161.7C97.63 161.65 97.43 161.62 97.18 161.62H96.1V164.03H95.18ZM96.1 160.77H97.09C97.47 160.77 97.76 160.68 97.97 160.5C98.17 160.32 98.27 160.06 98.27 159.74C98.27 159.41 98.17 159.16 97.97 158.98C97.76 158.8 97.47 158.71 97.09 158.71H96.1V160.77ZM100.93 164.03V157.85H104.73V158.71H101.85V160.51H104.62V161.35H101.85V163.17H104.8V164.03H100.93ZM113.92 164.17C113.26 164.17 112.74 163.97 112.37 163.56C112 163.16 111.81 162.6 111.81 161.88V157.85H112.72V161.92C112.72 162.37 112.83 162.72 113.03 162.96C113.23 163.2 113.53 163.32 113.92 163.32C114.31 163.32 114.6 163.2 114.81 162.96C115.01 162.72 115.11 162.37 115.11 161.92V157.85H116.03V161.88C116.03 162.6 115.84 163.16 115.47 163.56C115.1 163.97 114.58 164.17 113.92 164.17ZM117.62 164.03V157.85H119.54C119.97 157.85 120.34 157.93 120.66 158.09C120.99 158.24 121.24 158.47 121.41 158.76C121.59 159.04 121.68 159.38 121.68 159.78C121.68 160.17 121.59 160.51 121.41 160.8C121.24 161.09 120.99 161.31 120.66 161.46C120.34 161.62 119.97 161.69 119.54 161.69H118.54V164.03H117.62ZM118.54 160.83H119.44C119.89 160.83 120.21 160.74 120.42 160.56C120.63 160.38 120.73 160.12 120.73 159.78C120.73 159.43 120.63 159.16 120.42 158.98C120.21 158.8 119.89 158.71 119.44 158.71H118.54V160.83ZM123.17 164.03V157.85H124.67C125.22 157.85 125.69 157.97 126.09 158.22C126.5 158.46 126.81 158.81 127.03 159.27C127.25 159.73 127.36 160.29 127.36 160.95C127.36 161.61 127.25 162.17 127.03 162.63C126.81 163.09 126.5 163.44 126.09 163.68C125.69 163.91 125.22 164.03 124.67 164.03H123.17ZM124.08 163.17H124.65C125.21 163.17 125.64 162.99 125.94 162.62C126.25 162.25 126.41 161.69 126.41 160.95C126.41 160.21 126.25 159.65 125.94 159.28C125.64 158.9 125.21 158.71 124.65 158.71H124.08V163.17ZM128.22 164.03L130.03 157.85H131.22L133.03 164.03H132.08L130.63 158.8L129.17 164.03H128.22ZM129.23 162.42L129.51 161.58H131.74L132.02 162.42H129.23ZM135.74 164.03V158.71H133.93V157.85H138.46V158.71H136.65V164.03H135.74ZM139.92 164.03V157.85H143.72V158.71H140.83V160.51H143.61V161.35H140.83V163.17H143.79V164.03H139.92Z" fill="white"/>
<path d="M45.06 164.03V157.85H46.18L48.21 162.74V157.85H49.11V164.03H47.99L45.96 159.15V164.03H45.06ZM50.81 164.03V157.85H54.6V158.71H51.72V160.51H54.5V161.35H51.72V163.17H54.67V164.03H50.81ZM56.52 164.03L55.86 157.85H56.77L57.28 163.28H57.18L57.82 158.55H58.62L59.27 163.28H59.16L59.68 157.85H60.59L59.93 164.03H58.74L58.12 159.5H58.33L57.71 164.03H56.52ZM67.6 164.03V157.85H71.47V158.69H68L68.52 158.2V161.04L68 160.59H71.31V161.43H68L68.52 160.99V164.03H67.6ZM73.09 164.03V157.85H76.88V158.71H74V160.51H76.78V161.35H74V163.17H76.95V164.03H73.09ZM78.1 164.03L79.91 157.85H81.09L82.9 164.03H81.96L80.5 158.8L79.05 164.03H78.1ZM79.11 162.42L79.39 161.58H81.62L81.89 162.42H79.11ZM85.62 164.03V158.71H83.81V157.85H88.34V158.71H86.52V164.03H85.62ZM91.64 164.17C90.98 164.17 90.46 163.97 90.09 163.56C89.72 163.16 89.53 162.6 89.53 161.88V157.85H90.45V161.92C90.45 162.37 90.55 162.72 90.75 162.96C90.96 163.2 91.25 163.32 91.64 163.32C92.03 163.32 92.33 163.2 92.53 162.96C92.73 162.72 92.83 162.37 92.83 161.92V157.85H93.75V161.88C93.75 162.6 93.56 163.16 93.19 163.56C92.82 163.97 92.3 164.17 91.64 164.17ZM95.18 164.03V157.85H97.11C97.76 157.85 98.28 158.02 98.65 158.35C99.02 158.68 99.21 159.13 99.21 159.7C99.21 159.99 99.15 160.25 99.01 160.48C98.88 160.71 98.71 160.88 98.5 161.01C98.29 161.14 98.07 161.21 97.83 161.23L97.79 161.12C98.22 161.14 98.54 161.24 98.75 161.42C98.97 161.59 99.09 161.88 99.13 162.27L99.28 164.03H98.37L98.23 162.45C98.21 162.25 98.17 162.08 98.1 161.96C98.03 161.84 97.92 161.75 97.78 161.7C97.63 161.65 97.43 161.62 97.18 161.62H96.1V164.03H95.18ZM96.1 160.77H97.09C97.47 160.77 97.76 160.68 97.97 160.5C98.17 160.32 98.27 160.06 98.27 159.74C98.27 159.41 98.17 159.16 97.97 158.98C97.76 158.8 97.47 158.71 97.09 158.71H96.1V160.77ZM100.93 164.03V157.85H104.73V158.71H101.85V160.51H104.62V161.35H101.85V163.17H104.8V164.03H100.93ZM113.92 164.17C113.26 164.17 112.74 163.97 112.37 163.56C112 163.16 111.81 162.6 111.81 161.88V157.85H112.72V161.92C112.72 162.37 112.83 162.72 113.03 162.96C113.23 163.2 113.53 163.32 113.92 163.32C114.31 163.32 114.6 163.2 114.81 162.96C115.01 162.72 115.11 162.37 115.11 161.92V157.85H116.03V161.88C116.03 162.6 115.84 163.16 115.47 163.56C115.1 163.97 114.58 164.17 113.92 164.17ZM117.62 164.03V157.85H119.54C119.97 157.85 120.34 157.93 120.66 158.09C120.99 158.24 121.24 158.47 121.41 158.76C121.59 159.04 121.68 159.38 121.68 159.78C121.68 160.17 121.59 160.51 121.41 160.8C121.24 161.09 120.99 161.31 120.66 161.46C120.34 161.62 119.97 161.69 119.54 161.69H118.54V164.03H117.62ZM118.54 160.83H119.44C119.89 160.83 120.21 160.74 120.42 160.56C120.63 160.38 120.73 160.12 120.73 159.78C120.73 159.43 120.63 159.16 120.42 158.98C120.21 158.8 119.89 158.71 119.44 158.71H118.54V160.83ZM123.17 164.03V157.85H124.67C125.22 157.85 125.69 157.97 126.09 158.22C126.5 158.46 126.81 158.81 127.03 159.27C127.25 159.73 127.36 160.29 127.36 160.95C127.36 161.61 127.25 162.17 127.03 162.63C126.81 163.09 126.5 163.44 126.09 163.68C125.69 163.91 125.22 164.03 124.67 164.03H123.17ZM124.08 163.17H124.65C125.21 163.17 125.64 162.99 125.94 162.62C126.25 162.25 126.41 161.69 126.41 160.95C126.41 160.21 126.25 159.65 125.94 159.28C125.64 158.9 125.21 158.71 124.65 158.71H124.08V163.17ZM128.22 164.03L130.03 157.85H131.22L133.03 164.03H132.08L130.63 158.8L129.17 164.03H128.22ZM129.23 162.42L129.51 161.58H131.74L132.02 162.42H129.23ZM135.74 164.03V158.71H133.93V157.85H138.46V158.71H136.65V164.03H135.74ZM139.92 164.03V157.85H143.72V158.71H140.83V160.51H143.61V161.35H140.83V163.17H143.79V164.03H139.92Z" fill="black"/>
</g>
<path d="M31.41 168.82H27.06V153.58H31.05" stroke="#33C19E" stroke-width="0.725632"/>
<path d="M145.43 153.58H149.78V168.82H145.79" stroke="#33C19E" stroke-width="0.725632"/>
</g>
</g>
</g>
<defs>
<clipPath id="clip0_34_2">
<rect width="310.881" height="310.881" fill="white"/>
</clipPath>
<clipPath id="clip1_34_2">
<rect width="8.70759" height="8.70759" fill="white" transform="translate(32.8633 156.68)"/>
</clipPath>
</defs>
</svg>
