<svg width="311" height="311" viewBox="0 0 311 311" fill="none" xmlns="http://www.w3.org/2000/svg">
<rect width="311" height="311" fill="#1E1E1E"/>
<g id="Visual 1-4">
<path d="M-1152.64 -99C-1152.64 -100.105 -1151.75 -101 -1150.64 -101H408.88C409.984 -101 410.88 -100.105 410.88 -99V408.88C410.88 409.985 409.985 410.88 408.88 410.88H-1150.64C-1151.75 410.88 -1152.64 409.985 -1152.64 408.88V-99Z" fill="#444444"/>
<path d="M-1150.64 -101V-100H408.88V-101V-102H-1150.64V-101ZM410.88 -99H409.88V408.88H410.88H411.88V-99H410.88ZM408.88 410.88V409.88H-1150.64V410.88V411.88H408.88V410.88ZM-1152.64 408.88H-1151.64V-99H-1152.64H-1153.64V408.88H-1152.64ZM-1150.64 410.88V409.88C-1151.19 409.88 -1151.64 409.432 -1151.64 408.88H-1152.64H-1153.64C-1153.64 410.537 -1152.3 411.88 -1150.64 411.88V410.88ZM410.88 408.88H409.88C409.88 409.432 409.432 409.88 408.88 409.88V410.88V411.88C410.537 411.88 411.88 410.537 411.88 408.88H410.88ZM408.88 -101V-100C409.432 -100 409.88 -99.5523 409.88 -99H410.88H411.88C411.88 -100.657 410.537 -102 408.88 -102V-101ZM-1150.64 -101V-102C-1152.3 -102 -1153.64 -100.657 -1153.64 -99H-1152.64H-1151.64C-1151.64 -99.5523 -1151.19 -100 -1150.64 -100V-101Z" fill="white" fill-opacity="0.1"/>
<g id="Visual 4" clip-path="url(#clip0_34_2)">
<rect width="310.88" height="310.88" fill="#F9F9F9"/>
<path id="Union" d="M0.134766 0H103.629V34.4971H0.134766V0ZM0.136719 68.9971H34.6348V103.495H0.136719V68.9971Z" fill="#33C19E"/>
<path id="Union_2" d="M310.743 310.748H207.25V276.251H310.743V310.748ZM310.742 241.751H276.244V207.253H310.742V241.751Z" fill="#33C19E"/>
<path id="Vector 1132" d="M315.195 11.251L-0.00248253 11.251" stroke="#DDDDDD" stroke-width="0.287852"/>
<path id="Vector 1136" d="M315.195 299.103H-0.00248253" stroke="#DDDDDD" stroke-width="0.287852"/>
<path id="Vector 1134" d="M11.5117 -0.263184L11.5117 393.518" stroke="#DDDDDD" stroke-width="0.287852"/>
<path id="Vector 1135" d="M299.367 -0.263184L299.367 393.518" stroke="#DDDDDD" stroke-width="0.287852"/>
<g id="Group 1171275523">
<path id="Vector 1125" d="M11.5117 9.81152V12.69" stroke="white" stroke-width="0.287852" stroke-linejoin="round"/>
<path id="Vector 1126" d="M10.0742 11.2524L12.9527 11.2524" stroke="white" stroke-width="0.287852" stroke-linejoin="round"/>
</g>
<g id="Group 1171275524">
<path id="Vector 1125_2" d="M299.363 9.81152V12.69" stroke="#33C19E" stroke-width="0.287852" stroke-linejoin="round"/>
<path id="Vector 1126_2" d="M297.926 11.2524L300.804 11.2524" stroke="#33C19E" stroke-width="0.287852" stroke-linejoin="round"/>
</g>
<g id="Group 1171275525">
<path id="Vector 1125_3" d="M11.5117 297.664V300.542" stroke="#33C19E" stroke-width="0.287852" stroke-linejoin="round"/>
<path id="Vector 1126_3" d="M10.0742 299.104L12.9527 299.104" stroke="#33C19E" stroke-width="0.287852" stroke-linejoin="round"/>
</g>
<g id="Group 1171275526">
<path id="Vector 1125_4" d="M299.363 297.664V300.542" stroke="#33C19E" stroke-width="0.287852" stroke-linejoin="round"/>
<path id="Vector 1126_4" d="M297.926 299.104L300.804 299.104" stroke="#33C19E" stroke-width="0.287852" stroke-linejoin="round"/>
</g>
<g id="Frame 2147232148">
<g id="Frame 2147232147">
<g id="Frame">
<path id="Vector" d="M97.7266 72.5088H108.521" stroke="#33C19E" stroke-width="1.43926" stroke-linecap="round" stroke-linejoin="round"/>
<path id="Vector_2" d="M97.7266 78.2661H108.521" stroke="#33C19E" stroke-width="1.43926" stroke-linecap="round" stroke-linejoin="round"/>
<path id="Vector_3" d="M97.7266 84.0229H108.521" stroke="#33C19E" stroke-width="1.43926" stroke-linecap="round" stroke-linejoin="round"/>
<path id="Vector_4" d="M92.6875 72.5088H94.1268" stroke="#33C19E" stroke-width="1.43926" stroke-linecap="round" stroke-linejoin="round"/>
<path id="Vector_5" d="M92.6875 78.2661H94.1268" stroke="#33C19E" stroke-width="1.43926" stroke-linecap="round" stroke-linejoin="round"/>
<path id="Vector_6" d="M92.6875 84.0229H94.1268" stroke="#33C19E" stroke-width="1.43926" stroke-linecap="round" stroke-linejoin="round"/>
<path id="Vector 1154" d="M89.0898 69.0548V66.752H91.3927" stroke="#33C19E" stroke-width="0.575704"/>
<path id="Vector 1155" d="M112.117 69.0548V66.752H109.814" stroke="#33C19E" stroke-width="0.575704"/>
<path id="Vector 1156" d="M89.0898 87.477V89.7798H91.3927" stroke="#33C19E" stroke-width="0.575704"/>
<path id="Vector 1157" d="M112.117 87.477V89.7798H109.814" stroke="#33C19E" stroke-width="0.575704"/>
</g>
<g id="Frame_2" clip-path="url(#clip1_34_2)">
<path id="Vector_7" d="M146.227 72.5088H164.938C165.129 72.5088 165.312 72.5846 165.447 72.7196C165.582 72.8545 165.657 73.0376 165.657 73.2284V82.5836H145.508V73.2284C145.508 73.0376 145.584 72.8545 145.719 72.7196C145.854 72.5846 146.037 72.5088 146.227 72.5088Z" stroke="#33C19E" stroke-width="1.43926" stroke-linecap="round" stroke-linejoin="round"/>
<path id="Vector_8" d="M145.508 82.5835V84.7424" stroke="#33C19E" stroke-width="1.43926" stroke-linecap="round" stroke-linejoin="round"/>
<path id="Vector_9" d="M148.387 82.5835V84.7424" stroke="#33C19E" stroke-width="1.43926" stroke-linecap="round" stroke-linejoin="round"/>
<path id="Vector_10" d="M151.266 82.5835V84.7424" stroke="#33C19E" stroke-width="1.43926" stroke-linecap="round" stroke-linejoin="round"/>
<path id="Vector_11" d="M154.145 82.5835V84.7424" stroke="#33C19E" stroke-width="1.43926" stroke-linecap="round" stroke-linejoin="round"/>
<path id="Vector_12" d="M157.023 82.5835V84.7424" stroke="#33C19E" stroke-width="1.43926" stroke-linecap="round" stroke-linejoin="round"/>
<path id="Vector_13" d="M159.902 82.5835V84.7424" stroke="#33C19E" stroke-width="1.43926" stroke-linecap="round" stroke-linejoin="round"/>
<path id="Vector_14" d="M162.781 82.5835V84.7424" stroke="#33C19E" stroke-width="1.43926" stroke-linecap="round" stroke-linejoin="round"/>
<path id="Vector_15" d="M165.656 82.5835V84.7424" stroke="#33C19E" stroke-width="1.43926" stroke-linecap="round" stroke-linejoin="round"/>
<path id="Vector_16" d="M154.144 75.3872H148.387V79.705H154.144V75.3872Z" stroke="#33C19E" stroke-width="1.43926" stroke-linecap="round" stroke-linejoin="round"/>
<path id="Vector_17" d="M162.78 75.3872H157.023V79.705H162.78V75.3872Z" stroke="#33C19E" stroke-width="1.43926" stroke-linecap="round" stroke-linejoin="round"/>
<path id="Vector 1154_2" d="M144.07 69.0548V66.752H146.373" stroke="#33C19E" stroke-width="0.575704"/>
<path id="Vector 1155_2" d="M167.098 69.0548V66.752H164.795" stroke="#33C19E" stroke-width="0.575704"/>
<path id="Vector 1156_2" d="M144.07 87.477V89.7798H146.373" stroke="#33C19E" stroke-width="0.575704"/>
<path id="Vector 1157_2" d="M167.098 87.477V89.7798H164.795" stroke="#33C19E" stroke-width="0.575704"/>
</g>
<g id="Frame_3" clip-path="url(#clip2_34_2)">
<path id="Vector_18" d="M210.562 81.8643V86.9017" stroke="#33C19E" stroke-width="1.43926" stroke-linecap="round" stroke-linejoin="round"/>
<path id="Vector_19" d="M203.083 73.9481C202.132 75.5944 201.752 77.5083 202 79.393C202.248 81.2776 203.111 83.0278 204.455 84.372C205.799 85.7162 207.549 86.5793 209.434 86.8276C211.318 87.0758 213.232 86.6952 214.879 85.7448C216.525 84.7944 217.812 83.3274 218.539 81.5712C219.267 79.815 219.395 77.8678 218.903 76.0316C218.411 74.1954 217.327 72.5728 215.819 71.4154C214.311 70.2581 212.463 69.6306 210.562 69.6304V74.6678C211.354 74.668 212.124 74.9295 212.753 75.4118C213.381 75.894 213.832 76.5702 214.037 77.3352C214.242 78.1003 214.189 78.9116 213.886 79.6433C213.582 80.3751 213.046 80.9863 212.36 81.3822C211.674 81.7782 210.877 81.9367 210.092 81.8333C209.306 81.7298 208.577 81.3701 208.017 80.8101C207.457 80.25 207.098 79.5207 206.994 78.7355C206.891 77.9502 207.049 77.1528 207.445 76.4669L203.083 73.9481Z" stroke="#33C19E" stroke-width="1.43926" stroke-linecap="round" stroke-linejoin="round"/>
<path id="Vector_20" d="M207.085 79.1978L202.219 80.5012" stroke="#33C19E" stroke-width="1.43926" stroke-linecap="round" stroke-linejoin="round"/>
<path id="Vector 1154_3" d="M199.051 69.0548V66.752H201.354" stroke="#33C19E" stroke-width="0.575704"/>
<path id="Vector 1155_3" d="M222.078 69.0548V66.752H219.775" stroke="#33C19E" stroke-width="0.575704"/>
<path id="Vector 1156_3" d="M199.051 87.477V89.7798H201.354" stroke="#33C19E" stroke-width="0.575704"/>
<path id="Vector 1157_3" d="M222.078 87.477V89.7798H219.775" stroke="#33C19E" stroke-width="0.575704"/>
</g>
</g>
<path id="To improve the user experience with our product. There were several updates were made in" d="M97.9368 137.322L97.9368 128.88L94.9247 128.88L94.9247 127.512L102.441 127.512L102.441 128.88L99.429 128.88L99.429 137.322L97.9368 137.322ZM105.291 137.488C104.591 137.488 103.979 137.331 103.454 137.018C102.929 136.705 102.523 136.258 102.238 135.678C101.952 135.098 101.809 134.421 101.809 133.647C101.809 132.864 101.952 132.187 102.238 131.616C102.523 131.045 102.929 130.603 103.454 130.289C103.979 129.967 104.591 129.806 105.291 129.806C105.991 129.806 106.604 129.967 107.129 130.289C107.654 130.603 108.059 131.045 108.345 131.616C108.63 132.187 108.773 132.864 108.773 133.647C108.773 134.421 108.63 135.098 108.345 135.678C108.059 136.258 107.654 136.705 107.129 137.018C106.604 137.331 105.991 137.488 105.291 137.488ZM105.291 136.217C105.918 136.217 106.401 135.991 106.742 135.54C107.083 135.079 107.253 134.448 107.253 133.647C107.253 132.846 107.083 132.219 106.742 131.768C106.401 131.307 105.918 131.077 105.291 131.077C104.674 131.077 104.19 131.307 103.84 131.768C103.5 132.219 103.329 132.846 103.329 133.647C103.329 134.448 103.5 135.079 103.84 135.54C104.19 135.991 104.674 136.217 105.291 136.217ZM113.195 137.322L113.195 129.972L114.66 129.972L114.66 137.322L113.195 137.322ZM113.168 128.908L113.168 127.443L114.687 127.443L114.687 128.908L113.168 128.908ZM116.576 137.322L116.576 129.972L117.916 129.972L117.957 131.796L117.791 131.74C117.874 131.335 118.017 130.99 118.22 130.704C118.432 130.418 118.69 130.197 118.993 130.041C119.297 129.884 119.629 129.806 119.988 129.806C120.615 129.806 121.126 129.985 121.522 130.345C121.918 130.695 122.167 131.178 122.268 131.796L122.033 131.796C122.116 131.363 122.254 131.003 122.448 130.718C122.65 130.423 122.908 130.197 123.221 130.041C123.535 129.884 123.889 129.806 124.285 129.806C124.801 129.806 125.239 129.916 125.598 130.137C125.966 130.349 126.243 130.663 126.427 131.077C126.62 131.492 126.717 131.998 126.717 132.597L126.717 137.322L125.253 137.322L125.253 132.956C125.253 132.321 125.137 131.842 124.907 131.519C124.677 131.197 124.327 131.036 123.857 131.036C123.553 131.036 123.286 131.114 123.056 131.27C122.825 131.427 122.646 131.653 122.517 131.947C122.397 132.242 122.337 132.597 122.337 133.011L122.337 137.322L120.942 137.322L120.942 133.011C120.942 132.385 120.836 131.901 120.624 131.561C120.421 131.211 120.071 131.036 119.574 131.036C119.261 131.036 118.989 131.114 118.759 131.27C118.538 131.427 118.363 131.657 118.234 131.961C118.105 132.256 118.04 132.606 118.04 133.011L118.04 137.322L116.576 137.322ZM128.268 139.395L128.268 129.972L129.649 129.972L129.691 131.547L129.525 131.464C129.709 130.92 130.013 130.511 130.437 130.234C130.86 129.949 131.349 129.806 131.901 129.806C132.62 129.806 133.209 129.985 133.67 130.345C134.14 130.695 134.485 131.16 134.706 131.74C134.936 132.321 135.052 132.956 135.052 133.647C135.052 134.338 134.936 134.973 134.706 135.554C134.485 136.134 134.14 136.604 133.67 136.963C133.209 137.313 132.62 137.488 131.901 137.488C131.533 137.488 131.187 137.424 130.865 137.295C130.543 137.166 130.266 136.986 130.036 136.756C129.815 136.516 129.658 136.235 129.566 135.913L129.732 135.747L129.732 139.395L128.268 139.395ZM131.639 136.217C132.228 136.217 132.689 135.991 133.021 135.54C133.361 135.089 133.532 134.458 133.532 133.647C133.532 132.836 133.361 132.205 133.021 131.754C132.689 131.303 132.228 131.077 131.639 131.077C131.252 131.077 130.916 131.174 130.63 131.367C130.345 131.551 130.124 131.837 129.967 132.224C129.81 132.611 129.732 133.085 129.732 133.647C129.732 134.209 129.806 134.683 129.953 135.07C130.11 135.457 130.331 135.747 130.616 135.941C130.911 136.125 131.252 136.217 131.639 136.217ZM136.262 137.322L136.262 129.972L137.603 129.972L137.658 131.92L137.534 131.878C137.635 131.215 137.838 130.732 138.142 130.428C138.455 130.124 138.874 129.972 139.399 129.972L140.104 129.972L140.104 131.284L139.399 131.284C139.03 131.284 138.722 131.344 138.473 131.464C138.224 131.584 138.036 131.768 137.907 132.017C137.787 132.265 137.727 132.588 137.727 132.984L137.727 137.322L136.262 137.322ZM143.896 137.488C143.196 137.488 142.584 137.331 142.059 137.018C141.534 136.705 141.128 136.258 140.843 135.678C140.557 135.098 140.415 134.421 140.415 133.647C140.415 132.864 140.557 132.187 140.843 131.616C141.128 131.045 141.534 130.603 142.059 130.289C142.584 129.967 143.196 129.806 143.896 129.806C144.597 129.806 145.209 129.967 145.734 130.289C146.259 130.603 146.664 131.045 146.95 131.616C147.236 132.187 147.378 132.864 147.378 133.647C147.378 134.421 147.236 135.098 146.95 135.678C146.664 136.258 146.259 136.705 145.734 137.018C145.209 137.331 144.597 137.488 143.896 137.488ZM143.896 136.217C144.523 136.217 145.006 135.991 145.347 135.54C145.688 135.079 145.858 134.448 145.858 133.647C145.858 132.846 145.688 132.219 145.347 131.768C145.006 131.307 144.523 131.077 143.896 131.077C143.279 131.077 142.796 131.307 142.446 131.768C142.105 132.219 141.934 132.846 141.934 133.647C141.934 134.448 142.105 135.079 142.446 135.54C142.796 135.991 143.279 136.217 143.896 136.217ZM150.301 137.322L147.62 129.972L149.182 129.972L151.185 135.83L153.189 129.972L154.764 129.972L152.069 137.322L150.301 137.322ZM158.456 137.488C157.738 137.488 157.116 137.331 156.591 137.018C156.075 136.705 155.674 136.258 155.389 135.678C155.112 135.098 154.974 134.421 154.974 133.647C154.974 132.873 155.112 132.201 155.389 131.63C155.674 131.049 156.075 130.603 156.591 130.289C157.107 129.967 157.715 129.806 158.415 129.806C159.078 129.806 159.663 129.962 160.169 130.276C160.676 130.58 161.067 131.022 161.344 131.602C161.629 132.182 161.772 132.882 161.772 133.702L161.772 134.075L156.494 134.075C156.531 134.794 156.72 135.333 157.061 135.692C157.411 136.051 157.88 136.231 158.47 136.231C158.903 136.231 159.262 136.129 159.548 135.927C159.833 135.724 160.031 135.452 160.142 135.112L161.662 135.208C161.468 135.89 161.086 136.443 160.515 136.866C159.953 137.281 159.267 137.488 158.456 137.488ZM156.494 132.97L160.225 132.97C160.179 132.316 159.99 131.832 159.658 131.519C159.336 131.206 158.921 131.049 158.415 131.049C157.89 131.049 157.457 131.215 157.116 131.547C156.784 131.869 156.577 132.344 156.494 132.97ZM169.017 137.322C168.317 137.322 167.801 137.161 167.469 136.839C167.138 136.516 166.972 136.014 166.972 135.333L166.972 128.245L168.436 128.245L168.436 135.222C168.436 135.563 168.51 135.798 168.658 135.927C168.805 136.056 169.031 136.12 169.335 136.12L170.385 136.12L170.385 137.322L169.017 137.322ZM165.853 131.174L165.853 129.972L170.385 129.972L170.385 131.174L165.853 131.174ZM171.508 137.322L171.508 127.512L172.972 127.512L172.972 131.63L172.793 131.602C172.876 131.188 173.028 130.851 173.249 130.593C173.47 130.326 173.742 130.128 174.064 129.999C174.386 129.87 174.741 129.806 175.128 129.806C175.662 129.806 176.114 129.926 176.482 130.165C176.85 130.395 177.127 130.722 177.311 131.146C177.504 131.57 177.601 132.053 177.601 132.597L177.601 137.322L176.137 137.322L176.137 132.984C176.137 132.321 176.021 131.832 175.791 131.519C175.57 131.197 175.22 131.036 174.741 131.036C174.207 131.036 173.778 131.206 173.456 131.547C173.134 131.878 172.972 132.367 172.972 133.011L172.972 137.322L171.508 137.322ZM182.259 137.488C181.54 137.488 180.919 137.331 180.394 137.018C179.878 136.705 179.477 136.258 179.192 135.678C178.915 135.098 178.777 134.421 178.777 133.647C178.777 132.873 178.915 132.201 179.192 131.63C179.477 131.049 179.878 130.603 180.394 130.289C180.909 129.967 181.517 129.806 182.217 129.806C182.881 129.806 183.466 129.962 183.972 130.276C184.479 130.58 184.87 131.022 185.147 131.602C185.432 132.182 185.575 132.882 185.575 133.702L185.575 134.075L180.297 134.075C180.334 134.794 180.523 135.333 180.863 135.692C181.213 136.051 181.683 136.231 182.273 136.231C182.706 136.231 183.065 136.129 183.35 135.927C183.636 135.724 183.834 135.452 183.945 135.112L185.464 135.208C185.271 135.89 184.889 136.443 184.318 136.866C183.756 137.281 183.069 137.488 182.259 137.488ZM180.297 132.97L184.027 132.97C183.981 132.316 183.793 131.832 183.461 131.519C183.139 131.206 182.724 131.049 182.217 131.049C181.692 131.049 181.259 131.215 180.919 131.547C180.587 131.869 180.38 132.344 180.297 132.97ZM192.419 137.488C191.682 137.488 191.092 137.244 190.65 136.756C190.217 136.258 190.001 135.572 190.001 134.697L190.001 129.972L191.466 129.972L191.466 134.324C191.466 134.987 191.581 135.475 191.811 135.789C192.041 136.102 192.391 136.258 192.861 136.258C193.395 136.258 193.81 136.088 194.105 135.747C194.409 135.397 194.561 134.909 194.561 134.283L194.561 129.972L196.025 129.972L196.025 137.322L194.657 137.322L194.63 135.402L194.837 135.485C194.708 136.129 194.436 136.627 194.022 136.977C193.607 137.318 193.073 137.488 192.419 137.488ZM200.518 137.488C199.827 137.488 199.242 137.382 198.763 137.17C198.293 136.958 197.93 136.668 197.672 136.3C197.414 135.922 197.266 135.489 197.23 135.001L198.736 134.932C198.809 135.337 198.984 135.66 199.261 135.899C199.537 136.139 199.956 136.258 200.518 136.258C200.979 136.258 201.342 136.185 201.61 136.037C201.877 135.89 202.01 135.655 202.01 135.333C202.01 135.158 201.964 135.01 201.872 134.89C201.789 134.762 201.623 134.656 201.375 134.573C201.126 134.481 200.757 134.393 200.269 134.31C199.542 134.172 198.97 134.011 198.556 133.827C198.141 133.642 197.847 133.407 197.672 133.122C197.497 132.836 197.409 132.491 197.409 132.086C197.409 131.413 197.658 130.865 198.155 130.441C198.662 130.018 199.39 129.806 200.338 129.806C200.974 129.806 201.508 129.916 201.941 130.137C202.374 130.349 202.71 130.639 202.95 131.008C203.198 131.367 203.355 131.772 203.42 132.224L201.913 132.307C201.867 132.049 201.775 131.828 201.637 131.644C201.508 131.45 201.333 131.303 201.112 131.201C200.891 131.091 200.629 131.036 200.325 131.036C199.855 131.036 199.505 131.128 199.274 131.312C199.044 131.496 198.929 131.736 198.929 132.03C198.929 132.251 198.98 132.431 199.081 132.569C199.192 132.707 199.367 132.823 199.606 132.915C199.846 132.998 200.163 133.071 200.559 133.136C201.324 133.265 201.923 133.426 202.356 133.619C202.789 133.804 203.093 134.034 203.268 134.31C203.443 134.587 203.53 134.923 203.53 135.319C203.53 135.779 203.401 136.171 203.143 136.493C202.885 136.816 202.531 137.064 202.079 137.239C201.628 137.405 201.107 137.488 200.518 137.488ZM207.762 137.488C207.043 137.488 206.422 137.331 205.897 137.018C205.381 136.705 204.98 136.258 204.694 135.678C204.418 135.098 204.28 134.421 204.28 133.647C204.28 132.873 204.418 132.201 204.694 131.63C204.98 131.049 205.381 130.603 205.897 130.289C206.412 129.967 207.02 129.806 207.72 129.806C208.384 129.806 208.968 129.962 209.475 130.276C209.982 130.58 210.373 131.022 210.65 131.602C210.935 132.182 211.078 132.882 211.078 133.702L211.078 134.075L205.8 134.075C205.837 134.794 206.025 135.333 206.366 135.692C206.716 136.051 207.186 136.231 207.776 136.231C208.209 136.231 208.568 136.129 208.853 135.927C209.139 135.724 209.337 135.452 209.447 135.112L210.967 135.208C210.774 135.89 210.392 136.443 209.821 136.866C209.259 137.281 208.572 137.488 207.762 137.488ZM205.8 132.97L209.53 132.97C209.484 132.316 209.295 131.832 208.964 131.519C208.641 131.206 208.227 131.049 207.72 131.049C207.195 131.049 206.762 131.215 206.422 131.547C206.09 131.869 205.883 132.344 205.8 132.97ZM212.286 137.322L212.286 129.972L213.626 129.972L213.681 131.92L213.557 131.878C213.658 131.215 213.861 130.732 214.165 130.428C214.478 130.124 214.897 129.972 215.422 129.972L216.127 129.972L216.127 131.284L215.422 131.284C215.054 131.284 214.745 131.344 214.496 131.464C214.248 131.584 214.059 131.768 213.93 132.017C213.81 132.265 213.75 132.588 213.75 132.984L213.75 137.322L212.286 137.322ZM71.3513 154.488C70.6329 154.488 70.0111 154.331 69.4861 154.018C68.9702 153.705 68.5695 153.258 68.284 152.678C68.0076 152.098 67.8695 151.421 67.8695 150.647C67.8695 149.873 68.0076 149.201 68.284 148.63C68.5695 148.049 68.9702 147.603 69.4861 147.289C70.0019 146.967 70.6098 146.806 71.3099 146.806C71.9731 146.806 72.558 146.962 73.0646 147.276C73.5712 147.58 73.9627 148.022 74.2391 148.602C74.5246 149.182 74.6674 149.882 74.6674 150.702L74.6674 151.075L69.3893 151.075C69.4262 151.794 69.615 152.333 69.9558 152.692C70.3059 153.051 70.7756 153.231 71.3652 153.231C71.7981 153.231 72.1573 153.129 72.4429 152.927C72.7284 152.724 72.9265 152.452 73.037 152.112L74.5569 152.208C74.3634 152.89 73.9811 153.443 73.4101 153.866C72.8482 154.281 72.1619 154.488 71.3513 154.488ZM69.3893 149.97L73.1199 149.97C73.0738 149.316 72.885 148.832 72.5534 148.519C72.231 148.206 71.8165 148.049 71.3099 148.049C70.7848 148.049 70.3519 148.215 70.0111 148.547C69.6795 148.869 69.4722 149.344 69.3893 149.97ZM74.8675 154.322L77.5342 150.564L74.9781 146.972L76.6084 146.972L78.4185 149.611L80.1732 146.972L81.845 146.972L79.3166 150.592L81.9556 154.322L80.3252 154.322L78.4323 151.517L76.5255 154.322L74.8675 154.322ZM82.7905 156.395L82.7905 146.972L84.1722 146.972L84.2137 148.547L84.0479 148.464C84.2321 147.92 84.5361 147.511 84.9598 147.234C85.3835 146.949 85.8717 146.806 86.4244 146.806C87.1429 146.806 87.7324 146.985 88.1929 147.345C88.6627 147.695 89.0081 148.16 89.2292 148.74C89.4595 149.321 89.5746 149.956 89.5746 150.647C89.5746 151.338 89.4595 151.973 89.2292 152.554C89.0081 153.134 88.6627 153.604 88.1929 153.963C87.7324 154.313 87.1429 154.488 86.4244 154.488C86.0559 154.488 85.7105 154.424 85.3881 154.295C85.0657 154.166 84.7894 153.986 84.5591 153.756C84.338 153.516 84.1814 153.235 84.0893 152.913L84.2551 152.747L84.2551 156.395L82.7905 156.395ZM86.1619 153.217C86.7514 153.217 87.2119 152.991 87.5435 152.54C87.8844 152.089 88.0548 151.458 88.0548 150.647C88.0548 149.836 87.8844 149.205 87.5435 148.754C87.2119 148.303 86.7514 148.077 86.1619 148.077C85.775 148.077 85.4388 148.174 85.1532 148.367C84.8677 148.551 84.6466 148.837 84.49 149.224C84.3334 149.611 84.2551 150.085 84.2551 150.647C84.2551 151.209 84.3288 151.683 84.4762 152.07C84.6328 152.457 84.8539 152.747 85.1394 152.941C85.4342 153.125 85.775 153.217 86.1619 153.217ZM93.8113 154.488C93.0929 154.488 92.4711 154.331 91.9461 154.018C91.4302 153.705 91.0295 153.258 90.744 152.678C90.4676 152.098 90.3295 151.421 90.3295 150.647C90.3295 149.873 90.4676 149.201 90.744 148.63C91.0295 148.049 91.4302 147.603 91.9461 147.289C92.4619 146.967 93.0698 146.806 93.7699 146.806C94.4331 146.806 95.018 146.962 95.5246 147.276C96.0312 147.58 96.4227 148.022 96.6991 148.602C96.9846 149.182 97.1274 149.882 97.1274 150.702L97.1274 151.075L91.8493 151.075C91.8862 151.794 92.075 152.333 92.4158 152.692C92.7659 153.051 93.2356 153.231 93.8252 153.231C94.2581 153.231 94.6173 153.129 94.9029 152.927C95.1884 152.724 95.3865 152.452 95.497 152.112L97.0169 152.208C96.8234 152.89 96.4412 153.443 95.8701 153.866C95.3082 154.281 94.6219 154.488 93.8113 154.488ZM91.8493 149.97L95.5799 149.97C95.5338 149.316 95.345 148.832 95.0134 148.519C94.691 148.206 94.2765 148.049 93.7699 148.049C93.2448 148.049 92.8119 148.215 92.4711 148.547C92.1395 148.869 91.9322 149.344 91.8493 149.97ZM98.3351 154.322L98.3351 146.972L99.6753 146.972L99.7306 148.92L99.6062 148.878C99.7075 148.215 99.9102 147.732 100.214 147.428C100.527 147.124 100.946 146.972 101.472 146.972L102.176 146.972L102.176 148.284L101.472 148.284C101.103 148.284 100.794 148.344 100.546 148.464C100.297 148.584 100.108 148.768 99.9793 149.017C99.8595 149.265 99.7997 149.588 99.7997 149.984L99.7997 154.322L98.3351 154.322ZM103.105 154.322L103.105 146.972L104.57 146.972L104.57 154.322L103.105 154.322ZM103.078 145.908L103.078 144.443L104.597 144.443L104.597 145.908L103.078 145.908ZM109.255 154.488C108.536 154.488 107.915 154.331 107.39 154.018C106.874 153.705 106.473 153.258 106.188 152.678C105.911 152.098 105.773 151.421 105.773 150.647C105.773 149.873 105.911 149.201 106.188 148.63C106.473 148.049 106.874 147.603 107.39 147.289C107.905 146.967 108.513 146.806 109.213 146.806C109.877 146.806 110.462 146.962 110.968 147.276C111.475 147.58 111.866 148.022 112.143 148.602C112.428 149.182 112.571 149.882 112.571 150.702L112.571 151.075L107.293 151.075C107.33 151.794 107.519 152.333 107.859 152.692C108.209 153.051 108.679 153.231 109.269 153.231C109.702 153.231 110.061 153.129 110.346 152.927C110.632 152.724 110.83 152.452 110.941 152.112L112.46 152.208C112.267 152.89 111.885 153.443 111.314 153.866C110.752 154.281 110.066 154.488 109.255 154.488ZM107.293 149.97L111.024 149.97C110.977 149.316 110.789 148.832 110.457 148.519C110.135 148.206 109.72 148.049 109.213 148.049C108.688 148.049 108.256 148.215 107.915 148.547C107.583 148.869 107.376 149.344 107.293 149.97ZM113.779 154.322L113.779 146.972L115.119 146.972L115.174 148.934L114.995 148.837C115.077 148.358 115.234 147.971 115.464 147.676C115.695 147.382 115.976 147.165 116.307 147.027C116.639 146.88 116.998 146.806 117.385 146.806C117.938 146.806 118.394 146.93 118.753 147.179C119.121 147.418 119.398 147.75 119.582 148.174C119.775 148.588 119.872 149.063 119.872 149.597L119.872 154.322L118.407 154.322L118.407 150.039C118.407 149.606 118.361 149.242 118.269 148.947C118.177 148.653 118.025 148.427 117.813 148.27C117.601 148.114 117.325 148.036 116.984 148.036C116.468 148.036 116.049 148.206 115.727 148.547C115.404 148.888 115.243 149.385 115.243 150.039L115.243 154.322L113.779 154.322ZM124.53 154.488C123.83 154.488 123.217 154.331 122.692 154.018C122.167 153.705 121.762 153.258 121.476 152.678C121.191 152.098 121.048 151.421 121.048 150.647C121.048 149.873 121.191 149.201 121.476 148.63C121.762 148.049 122.167 147.603 122.692 147.289C123.217 146.967 123.83 146.806 124.53 146.806C125.128 146.806 125.658 146.912 126.119 147.124C126.588 147.326 126.966 147.626 127.252 148.022C127.546 148.418 127.735 148.901 127.818 149.473L126.284 149.555C126.211 149.076 126.017 148.713 125.704 148.464C125.391 148.206 124.999 148.077 124.53 148.077C123.912 148.077 123.429 148.307 123.079 148.768C122.738 149.219 122.568 149.846 122.568 150.647C122.568 151.448 122.738 152.079 123.079 152.54C123.429 152.991 123.912 153.217 124.53 153.217C124.999 153.217 125.391 153.088 125.704 152.83C126.017 152.563 126.211 152.162 126.284 151.628L127.818 151.711C127.735 152.273 127.546 152.761 127.252 153.175C126.966 153.59 126.588 153.912 126.119 154.143C125.658 154.373 125.128 154.488 124.53 154.488ZM131.904 154.488C131.185 154.488 130.564 154.331 130.039 154.018C129.523 153.705 129.122 153.258 128.837 152.678C128.56 152.098 128.422 151.421 128.422 150.647C128.422 149.873 128.56 149.201 128.837 148.63C129.122 148.049 129.523 147.603 130.039 147.289C130.554 146.967 131.162 146.806 131.862 146.806C132.526 146.806 133.111 146.962 133.617 147.276C134.124 147.58 134.515 148.022 134.792 148.602C135.077 149.182 135.22 149.882 135.22 150.702L135.22 151.075L129.942 151.075C129.979 151.794 130.168 152.333 130.508 152.692C130.858 153.051 131.328 153.231 131.918 153.231C132.351 153.231 132.71 153.129 132.995 152.927C133.281 152.724 133.479 152.452 133.59 152.112L135.109 152.208C134.916 152.89 134.534 153.443 133.963 153.866C133.401 154.281 132.714 154.488 131.904 154.488ZM129.942 149.97L133.672 149.97C133.626 149.316 133.438 148.832 133.106 148.519C132.784 148.206 132.369 148.049 131.862 148.049C131.337 148.049 130.904 148.215 130.564 148.547C130.232 148.869 130.025 149.344 129.942 149.97ZM141.152 154.322L138.914 146.972L140.447 146.972L142.022 152.72L143.639 146.972L145.021 146.972L146.637 152.72L148.226 146.972L149.76 146.972L147.522 154.322L145.877 154.322L144.33 149.072L142.782 154.322L141.152 154.322ZM150.69 154.322L150.69 146.972L152.155 146.972L152.155 154.322L150.69 154.322ZM150.663 145.908L150.663 144.443L152.183 144.443L152.183 145.908L150.663 145.908ZM156.269 154.322C155.568 154.322 155.053 154.161 154.721 153.839C154.389 153.516 154.224 153.014 154.224 152.333L154.224 145.245L155.688 145.245L155.688 152.222C155.688 152.563 155.762 152.798 155.909 152.927C156.057 153.056 156.282 153.12 156.586 153.12L157.636 153.12L157.636 154.322L156.269 154.322ZM153.104 148.174L153.104 146.972L157.636 146.972L157.636 148.174L153.104 148.174ZM158.76 154.322L158.76 144.512L160.224 144.512L160.224 148.63L160.045 148.602C160.128 148.188 160.28 147.851 160.501 147.593C160.722 147.326 160.993 147.128 161.316 146.999C161.638 146.87 161.993 146.806 162.38 146.806C162.914 146.806 163.365 146.926 163.734 147.165C164.102 147.395 164.379 147.722 164.563 148.146C164.756 148.57 164.853 149.053 164.853 149.597L164.853 154.322L163.388 154.322L163.388 149.984C163.388 149.321 163.273 148.832 163.043 148.519C162.822 148.197 162.472 148.036 161.993 148.036C161.459 148.036 161.03 148.206 160.708 148.547C160.385 148.878 160.224 149.367 160.224 150.011L160.224 154.322L158.76 154.322ZM172.756 154.488C172.056 154.488 171.443 154.331 170.918 154.018C170.393 153.705 169.988 153.258 169.702 152.678C169.417 152.098 169.274 151.421 169.274 150.647C169.274 149.864 169.417 149.187 169.702 148.616C169.988 148.045 170.393 147.603 170.918 147.289C171.443 146.967 172.056 146.806 172.756 146.806C173.456 146.806 174.069 146.967 174.594 147.289C175.119 147.603 175.524 148.045 175.81 148.616C176.095 149.187 176.238 149.864 176.238 150.647C176.238 151.421 176.095 152.098 175.81 152.678C175.524 153.258 175.119 153.705 174.594 154.018C174.069 154.331 173.456 154.488 172.756 154.488ZM172.756 153.217C173.382 153.217 173.866 152.991 174.207 152.54C174.548 152.079 174.718 151.448 174.718 150.647C174.718 149.846 174.548 149.219 174.207 148.768C173.866 148.307 173.382 148.077 172.756 148.077C172.139 148.077 171.655 148.307 171.305 148.768C170.964 149.219 170.794 149.846 170.794 150.647C170.794 151.448 170.964 152.079 171.305 152.54C171.655 152.991 172.139 153.217 172.756 153.217ZM179.86 154.488C179.123 154.488 178.533 154.244 178.091 153.756C177.658 153.258 177.442 152.572 177.442 151.697L177.442 146.972L178.906 146.972L178.906 151.324C178.906 151.987 179.021 152.475 179.252 152.789C179.482 153.102 179.832 153.258 180.302 153.258C180.836 153.258 181.25 153.088 181.545 152.747C181.849 152.397 182.001 151.909 182.001 151.283L182.001 146.972L183.466 146.972L183.466 154.322L182.098 154.322L182.07 152.402L182.278 152.485C182.149 153.129 181.877 153.627 181.462 153.977C181.048 154.318 180.514 154.488 179.86 154.488ZM185.261 154.322L185.261 146.972L186.601 146.972L186.657 148.92L186.532 148.878C186.634 148.215 186.836 147.732 187.14 147.428C187.453 147.124 187.873 146.972 188.398 146.972L189.102 146.972L189.102 148.284L188.398 148.284C188.029 148.284 187.721 148.344 187.472 148.464C187.223 148.584 187.034 148.768 186.905 149.017C186.786 149.265 186.726 149.588 186.726 149.984L186.726 154.322L185.261 154.322ZM193.506 156.395L193.506 146.972L194.888 146.972L194.929 148.547L194.763 148.464C194.947 147.92 195.251 147.511 195.675 147.234C196.099 146.949 196.587 146.806 197.14 146.806C197.858 146.806 198.448 146.985 198.908 147.345C199.378 147.695 199.724 148.16 199.945 148.74C200.175 149.321 200.29 149.956 200.29 150.647C200.29 151.338 200.175 151.973 199.945 152.554C199.724 153.134 199.378 153.604 198.908 153.963C198.448 154.313 197.858 154.488 197.14 154.488C196.771 154.488 196.426 154.424 196.103 154.295C195.781 154.166 195.505 153.986 195.274 153.756C195.053 153.516 194.897 153.235 194.805 152.913L194.97 152.747L194.97 156.395L193.506 156.395ZM196.877 153.217C197.467 153.217 197.927 152.991 198.259 152.54C198.6 152.089 198.77 151.458 198.77 150.647C198.77 149.836 198.6 149.205 198.259 148.754C197.927 148.303 197.467 148.077 196.877 148.077C196.49 148.077 196.154 148.174 195.869 148.367C195.583 148.551 195.362 148.837 195.205 149.224C195.049 149.611 194.97 150.085 194.97 150.647C194.97 151.209 195.044 151.683 195.192 152.07C195.348 152.457 195.569 152.747 195.855 152.941C196.15 153.125 196.49 153.217 196.877 153.217ZM201.501 154.322L201.501 146.972L202.841 146.972L202.896 148.92L202.772 148.878C202.873 148.215 203.076 147.732 203.38 147.428C203.693 147.124 204.112 146.972 204.637 146.972L205.342 146.972L205.342 148.284L204.637 148.284C204.269 148.284 203.96 148.344 203.712 148.464C203.463 148.584 203.274 148.768 203.145 149.017C203.025 149.265 202.965 149.588 202.965 149.984L202.965 154.322L201.501 154.322ZM209.135 154.488C208.435 154.488 207.822 154.331 207.297 154.018C206.772 153.705 206.367 153.258 206.081 152.678C205.796 152.098 205.653 151.421 205.653 150.647C205.653 149.864 205.796 149.187 206.081 148.616C206.367 148.045 206.772 147.603 207.297 147.289C207.822 146.967 208.435 146.806 209.135 146.806C209.835 146.806 210.447 146.967 210.973 147.289C211.498 147.603 211.903 148.045 212.188 148.616C212.474 149.187 212.617 149.864 212.617 150.647C212.617 151.421 212.474 152.098 212.188 152.678C211.903 153.258 211.498 153.705 210.973 154.018C210.447 154.331 209.835 154.488 209.135 154.488ZM209.135 153.217C209.761 153.217 210.245 152.991 210.586 152.54C210.926 152.079 211.097 151.448 211.097 150.647C211.097 149.846 210.926 149.219 210.586 148.768C210.245 148.307 209.761 148.077 209.135 148.077C208.518 148.077 208.034 148.307 207.684 148.768C207.343 149.219 207.173 149.846 207.173 150.647C207.173 151.448 207.343 152.079 207.684 152.54C208.034 152.991 208.518 153.217 209.135 153.217ZM216.432 154.488C215.806 154.488 215.257 154.331 214.788 154.018C214.327 153.705 213.972 153.263 213.724 152.692C213.484 152.112 213.365 151.43 213.365 150.647C213.365 149.864 213.489 149.187 213.738 148.616C213.986 148.036 214.341 147.589 214.802 147.276C215.262 146.962 215.806 146.806 216.432 146.806C216.939 146.806 217.39 146.912 217.786 147.124C218.182 147.336 218.481 147.63 218.684 148.008L218.684 144.512L220.149 144.512L220.149 154.322L218.781 154.322L218.739 153.217C218.537 153.613 218.228 153.926 217.814 154.156C217.408 154.378 216.948 154.488 216.432 154.488ZM216.819 153.217C217.215 153.217 217.551 153.116 217.827 152.913C218.104 152.71 218.316 152.416 218.463 152.029C218.61 151.642 218.684 151.181 218.684 150.647C218.684 150.094 218.61 149.629 218.463 149.251C218.316 148.865 218.104 148.574 217.827 148.381C217.551 148.178 217.215 148.077 216.819 148.077C216.229 148.077 215.759 148.307 215.409 148.768C215.059 149.219 214.884 149.846 214.884 150.647C214.884 151.439 215.059 152.066 215.409 152.526C215.759 152.987 216.229 153.217 216.819 153.217ZM224.112 154.488C223.375 154.488 222.786 154.244 222.343 153.756C221.91 153.258 221.694 152.572 221.694 151.697L221.694 146.972L223.159 146.972L223.159 151.324C223.159 151.987 223.274 152.475 223.504 152.789C223.734 153.102 224.084 153.258 224.554 153.258C225.088 153.258 225.503 153.088 225.798 152.747C226.102 152.397 226.254 151.909 226.254 151.283L226.254 146.972L227.718 146.972L227.718 154.322L226.35 154.322L226.323 152.402L226.53 152.485C226.401 153.129 226.129 153.627 225.715 153.977C225.3 154.318 224.766 154.488 224.112 154.488ZM232.404 154.488C231.704 154.488 231.092 154.331 230.567 154.018C230.042 153.705 229.636 153.258 229.351 152.678C229.065 152.098 228.923 151.421 228.923 150.647C228.923 149.873 229.065 149.201 229.351 148.63C229.636 148.049 230.042 147.603 230.567 147.289C231.092 146.967 231.704 146.806 232.404 146.806C233.003 146.806 233.533 146.912 233.993 147.124C234.463 147.326 234.841 147.626 235.126 148.022C235.421 148.418 235.61 148.901 235.693 149.473L234.159 149.555C234.086 149.076 233.892 148.713 233.579 148.464C233.266 148.206 232.874 148.077 232.404 148.077C231.787 148.077 231.304 148.307 230.954 148.768C230.613 149.219 230.442 149.846 230.442 150.647C230.442 151.448 230.613 152.079 230.954 152.54C231.304 152.991 231.787 153.217 232.404 153.217C232.874 153.217 233.266 153.088 233.579 152.83C233.892 152.563 234.086 152.162 234.159 151.628L235.693 151.711C235.61 152.273 235.421 152.761 235.126 153.175C234.841 153.59 234.463 153.912 233.993 154.143C233.533 154.373 233.003 154.488 232.404 154.488ZM239.302 154.322C238.601 154.322 238.086 154.161 237.754 153.839C237.422 153.516 237.257 153.014 237.257 152.333L237.257 145.245L238.721 145.245L238.721 152.222C238.721 152.563 238.795 152.798 238.942 152.927C239.09 153.056 239.315 153.12 239.619 153.12L240.669 153.12L240.669 154.322L239.302 154.322ZM236.137 148.174L236.137 146.972L240.669 146.972L240.669 148.174L236.137 148.174ZM241.796 154.322L241.796 152.581L243.578 152.581L243.578 154.322L241.796 154.322ZM73.6719 171.322L73.6719 162.88L70.6598 162.88L70.6598 161.512L78.1762 161.512L78.1762 162.88L75.1642 162.88L75.1642 171.322L73.6719 171.322ZM78.7426 171.322L78.7426 161.512L80.2072 161.512L80.2072 165.63L80.0276 165.602C80.1105 165.188 80.2625 164.851 80.4835 164.593C80.7046 164.326 80.9763 164.128 81.2987 163.999C81.6211 163.87 81.9758 163.806 82.3626 163.806C82.8969 163.806 83.3482 163.926 83.7167 164.165C84.0851 164.395 84.3615 164.722 84.5457 165.146C84.7391 165.57 84.8359 166.053 84.8359 166.597L84.8359 171.322L83.3713 171.322L83.3713 166.984C83.3713 166.321 83.2561 165.832 83.0259 165.519C82.8048 165.197 82.4548 165.036 81.9758 165.036C81.4415 165.036 81.0132 165.206 80.6908 165.547C80.3684 165.878 80.2072 166.367 80.2072 167.011L80.2072 171.322L78.7426 171.322ZM89.4936 171.488C88.7751 171.488 88.1533 171.331 87.6283 171.018C87.1124 170.705 86.7118 170.258 86.4262 169.678C86.1499 169.098 86.0117 168.421 86.0117 167.647C86.0117 166.873 86.1499 166.201 86.4262 165.63C86.7118 165.049 87.1124 164.603 87.6283 164.289C88.1441 163.967 88.7521 163.806 89.4521 163.806C90.1153 163.806 90.7002 163.962 91.2069 164.276C91.7135 164.58 92.105 165.022 92.3813 165.602C92.6668 166.182 92.8096 166.882 92.8096 167.702L92.8096 168.075L87.5316 168.075C87.5684 168.794 87.7572 169.333 88.0981 169.692C88.4481 170.051 88.9179 170.231 89.5074 170.231C89.9403 170.231 90.2995 170.129 90.5851 169.927C90.8706 169.724 91.0687 169.452 91.1792 169.112L92.6991 169.208C92.5056 169.89 92.1234 170.443 91.5523 170.866C90.9904 171.281 90.3041 171.488 89.4936 171.488ZM87.5316 166.97L91.2621 166.97C91.2161 166.316 91.0272 165.832 90.6956 165.519C90.3732 165.206 89.9587 165.049 89.4521 165.049C88.9271 165.049 88.4941 165.215 88.1533 165.547C87.8217 165.869 87.6145 166.344 87.5316 166.97ZM94.0173 171.322L94.0173 163.972L95.3575 163.972L95.4128 165.92L95.2884 165.878C95.3898 165.215 95.5924 164.732 95.8964 164.428C96.2096 164.124 96.6287 163.972 97.1537 163.972L97.8584 163.972L97.8584 165.284L97.1537 165.284C96.7853 165.284 96.4767 165.344 96.228 165.464C95.9793 165.584 95.7905 165.768 95.6615 166.017C95.5418 166.265 95.4819 166.588 95.4819 166.984L95.4819 171.322L94.0173 171.322ZM101.651 171.488C100.933 171.488 100.311 171.331 99.7861 171.018C99.2702 170.705 98.8695 170.258 98.584 169.678C98.3077 169.098 98.1695 168.421 98.1695 167.647C98.1695 166.873 98.3077 166.201 98.584 165.63C98.8695 165.049 99.2702 164.603 99.7861 164.289C100.302 163.967 100.91 163.806 101.61 163.806C102.273 163.806 102.858 163.962 103.365 164.276C103.871 164.58 104.263 165.022 104.539 165.602C104.825 166.182 104.967 166.882 104.967 167.702L104.967 168.075L99.6893 168.075C99.7262 168.794 99.915 169.333 100.256 169.692C100.606 170.051 101.076 170.231 101.665 170.231C102.098 170.231 102.457 170.129 102.743 169.927C103.028 169.724 103.226 169.452 103.337 169.112L104.857 169.208C104.663 169.89 104.281 170.443 103.71 170.866C103.148 171.281 102.462 171.488 101.651 171.488ZM99.6893 166.97L103.42 166.97C103.374 166.316 103.185 165.832 102.853 165.519C102.531 165.206 102.117 165.049 101.61 165.049C101.085 165.049 100.652 165.215 100.311 165.547C99.9795 165.869 99.7722 166.344 99.6893 166.97ZM110.899 171.322L108.661 163.972L110.195 163.972L111.77 169.72L113.387 163.972L114.768 163.972L116.385 169.72L117.974 163.972L119.507 163.972L117.269 171.322L115.625 171.322L114.077 166.072L112.53 171.322L110.899 171.322ZM123.221 171.488C122.502 171.488 121.881 171.331 121.356 171.018C120.84 170.705 120.439 170.258 120.153 169.678C119.877 169.098 119.739 168.421 119.739 167.647C119.739 166.873 119.877 166.201 120.153 165.63C120.439 165.049 120.84 164.603 121.356 164.289C121.871 163.967 122.479 163.806 123.179 163.806C123.843 163.806 124.427 163.962 124.934 164.276C125.441 164.58 125.832 165.022 126.109 165.602C126.394 166.182 126.537 166.882 126.537 167.702L126.537 168.075L121.259 168.075C121.296 168.794 121.484 169.333 121.825 169.692C122.175 170.051 122.645 170.231 123.235 170.231C123.668 170.231 124.027 170.129 124.312 169.927C124.598 169.724 124.796 169.452 124.906 169.112L126.426 169.208C126.233 169.89 125.851 170.443 125.28 170.866C124.718 171.281 124.031 171.488 123.221 171.488ZM121.259 166.97L124.989 166.97C124.943 166.316 124.754 165.832 124.423 165.519C124.1 165.206 123.686 165.049 123.179 165.049C122.654 165.049 122.221 165.215 121.881 165.547C121.549 165.869 121.342 166.344 121.259 166.97ZM127.745 171.322L127.745 163.972L129.085 163.972L129.14 165.92L129.016 165.878C129.117 165.215 129.32 164.732 129.624 164.428C129.937 164.124 130.356 163.972 130.881 163.972L131.586 163.972L131.586 165.284L130.881 165.284C130.513 165.284 130.204 165.344 129.955 165.464C129.707 165.584 129.518 165.768 129.389 166.017C129.269 166.265 129.209 166.588 129.209 166.984L129.209 171.322L127.745 171.322ZM135.379 171.488C134.66 171.488 134.038 171.331 133.513 171.018C132.997 170.705 132.597 170.258 132.311 169.678C132.035 169.098 131.897 168.421 131.897 167.647C131.897 166.873 132.035 166.201 132.311 165.63C132.597 165.049 132.997 164.603 133.513 164.289C134.029 163.967 134.637 163.806 135.337 163.806C136 163.806 136.585 163.962 137.092 164.276C137.599 164.58 137.99 165.022 138.266 165.602C138.552 166.182 138.695 166.882 138.695 167.702L138.695 168.075L133.417 168.075C133.453 168.794 133.642 169.333 133.983 169.692C134.333 170.051 134.803 170.231 135.392 170.231C135.825 170.231 136.185 170.129 136.47 169.927C136.756 169.724 136.954 169.452 137.064 169.112L138.584 169.208C138.391 169.89 138.008 170.443 137.437 170.866C136.875 171.281 136.189 171.488 135.379 171.488ZM133.417 166.97L137.147 166.97C137.101 166.316 136.912 165.832 136.581 165.519C136.258 165.206 135.844 165.049 135.337 165.049C134.812 165.049 134.379 165.215 134.038 165.547C133.707 165.869 133.499 166.344 133.417 166.97ZM145.953 171.488C145.262 171.488 144.677 171.382 144.198 171.17C143.729 170.958 143.365 170.668 143.107 170.3C142.849 169.922 142.702 169.489 142.665 169.001L144.171 168.932C144.244 169.337 144.419 169.66 144.696 169.899C144.972 170.139 145.391 170.258 145.953 170.258C146.414 170.258 146.778 170.185 147.045 170.037C147.312 169.89 147.445 169.655 147.445 169.333C147.445 169.158 147.399 169.01 147.307 168.89C147.224 168.762 147.058 168.656 146.81 168.573C146.561 168.481 146.193 168.393 145.704 168.31C144.977 168.172 144.406 168.011 143.991 167.827C143.577 167.642 143.282 167.407 143.107 167.122C142.932 166.836 142.844 166.491 142.844 166.086C142.844 165.413 143.093 164.865 143.59 164.441C144.097 164.018 144.825 163.806 145.774 163.806C146.409 163.806 146.943 163.916 147.376 164.137C147.809 164.349 148.145 164.639 148.385 165.008C148.634 165.367 148.79 165.772 148.855 166.224L147.349 166.307C147.303 166.049 147.21 165.828 147.072 165.644C146.943 165.45 146.768 165.303 146.547 165.201C146.326 165.091 146.064 165.036 145.76 165.036C145.29 165.036 144.94 165.128 144.71 165.312C144.479 165.496 144.364 165.736 144.364 166.03C144.364 166.251 144.415 166.431 144.516 166.569C144.627 166.707 144.802 166.823 145.041 166.915C145.281 166.998 145.599 167.071 145.995 167.136C146.759 167.265 147.358 167.426 147.791 167.619C148.224 167.804 148.528 168.034 148.703 168.31C148.878 168.587 148.965 168.923 148.965 169.319C148.965 169.779 148.836 170.171 148.578 170.493C148.32 170.816 147.966 171.064 147.514 171.239C147.063 171.405 146.543 171.488 145.953 171.488ZM153.197 171.488C152.478 171.488 151.857 171.331 151.332 171.018C150.816 170.705 150.415 170.258 150.13 169.678C149.853 169.098 149.715 168.421 149.715 167.647C149.715 166.873 149.853 166.201 150.13 165.63C150.415 165.049 150.816 164.603 151.332 164.289C151.848 163.967 152.455 163.806 153.156 163.806C153.819 163.806 154.404 163.962 154.91 164.276C155.417 164.58 155.808 165.022 156.085 165.602C156.37 166.182 156.513 166.882 156.513 167.702L156.513 168.075L151.235 168.075C151.272 168.794 151.461 169.333 151.801 169.692C152.151 170.051 152.621 170.231 153.211 170.231C153.644 170.231 154.003 170.129 154.289 169.927C154.574 169.724 154.772 169.452 154.883 169.112L156.402 169.208C156.209 169.89 155.827 170.443 155.256 170.866C154.694 171.281 154.008 171.488 153.197 171.488ZM151.235 166.97L154.966 166.97C154.919 166.316 154.731 165.832 154.399 165.519C154.077 165.206 153.662 165.049 153.156 165.049C152.63 165.049 152.198 165.215 151.857 165.547C151.525 165.869 151.318 166.344 151.235 166.97ZM159.44 171.322L156.759 163.972L158.32 163.972L160.324 169.83L162.327 163.972L163.902 163.972L161.208 171.322L159.44 171.322ZM167.595 171.488C166.876 171.488 166.254 171.331 165.729 171.018C165.213 170.705 164.813 170.258 164.527 169.678C164.251 169.098 164.113 168.421 164.113 167.647C164.113 166.873 164.251 166.201 164.527 165.63C164.813 165.049 165.213 164.603 165.729 164.289C166.245 163.967 166.853 163.806 167.553 163.806C168.216 163.806 168.801 163.962 169.308 164.276C169.815 164.58 170.206 165.022 170.482 165.602C170.768 166.182 170.911 166.882 170.911 167.702L170.911 168.075L165.633 168.075C165.669 168.794 165.858 169.333 166.199 169.692C166.549 170.051 167.019 170.231 167.608 170.231C168.041 170.231 168.401 170.129 168.686 169.927C168.972 169.724 169.17 169.452 169.28 169.112L170.8 169.208C170.607 169.89 170.224 170.443 169.653 170.866C169.091 171.281 168.405 171.488 167.595 171.488ZM165.633 166.97L169.363 166.97C169.317 166.316 169.128 165.832 168.797 165.519C168.474 165.206 168.06 165.049 167.553 165.049C167.028 165.049 166.595 165.215 166.254 165.547C165.923 165.869 165.716 166.344 165.633 166.97ZM172.118 171.322L172.118 163.972L173.459 163.972L173.514 165.92L173.389 165.878C173.491 165.215 173.693 164.732 173.997 164.428C174.311 164.124 174.73 163.972 175.255 163.972L175.959 163.972L175.959 165.284L175.255 165.284C174.886 165.284 174.578 165.344 174.329 165.464C174.08 165.584 173.892 165.768 173.763 166.017C173.643 166.265 173.583 166.588 173.583 166.984L173.583 171.322L172.118 171.322ZM178.812 171.488C178.048 171.488 177.435 171.313 176.975 170.963C176.523 170.613 176.298 170.12 176.298 169.485C176.298 168.849 176.486 168.356 176.864 168.006C177.251 167.647 177.845 167.389 178.646 167.232L181.175 166.749C181.175 166.178 181.041 165.754 180.774 165.478C180.507 165.192 180.111 165.049 179.586 165.049C179.116 165.049 178.748 165.155 178.481 165.367C178.213 165.57 178.029 165.874 177.928 166.279L176.422 166.182C176.56 165.445 176.901 164.865 177.444 164.441C177.997 164.018 178.711 163.806 179.586 163.806C180.581 163.806 181.336 164.073 181.852 164.607C182.377 165.132 182.639 165.874 182.639 166.832L182.639 169.692C182.639 169.867 182.667 169.991 182.722 170.065C182.787 170.129 182.888 170.162 183.026 170.162L183.289 170.162L183.289 171.322C183.243 171.331 183.169 171.341 183.068 171.35C182.966 171.359 182.861 171.364 182.75 171.364C182.437 171.364 182.165 171.313 181.935 171.212C181.714 171.11 181.548 170.945 181.437 170.714C181.327 170.475 181.272 170.157 181.272 169.761L181.424 169.83C181.35 170.152 181.189 170.438 180.94 170.687C180.701 170.935 180.392 171.133 180.014 171.281C179.646 171.419 179.245 171.488 178.812 171.488ZM179.047 170.327C179.489 170.327 179.867 170.245 180.18 170.079C180.493 169.904 180.737 169.664 180.912 169.36C181.087 169.056 181.175 168.711 181.175 168.324L181.175 167.854L179.019 168.269C178.577 168.352 178.264 168.485 178.08 168.669C177.905 168.844 177.817 169.07 177.817 169.346C177.817 169.66 177.923 169.904 178.135 170.079C178.356 170.245 178.66 170.327 179.047 170.327ZM185.757 171.322C185.278 171.322 184.892 171.198 184.597 170.949C184.302 170.701 184.155 170.304 184.155 169.761L184.155 161.512L185.619 161.512L185.619 169.623C185.619 169.789 185.661 169.913 185.744 169.996C185.836 170.079 185.965 170.12 186.13 170.12L186.711 170.12L186.711 171.322L185.757 171.322ZM193.279 171.488C192.542 171.488 191.953 171.244 191.511 170.756C191.078 170.258 190.861 169.572 190.861 168.697L190.861 163.972L192.326 163.972L192.326 168.324C192.326 168.987 192.441 169.475 192.671 169.789C192.902 170.102 193.252 170.258 193.721 170.258C194.256 170.258 194.67 170.088 194.965 169.747C195.269 169.397 195.421 168.909 195.421 168.283L195.421 163.972L196.885 163.972L196.885 171.322L195.518 171.322L195.49 169.402L195.697 169.485C195.568 170.129 195.296 170.627 194.882 170.977C194.467 171.318 193.933 171.488 193.279 171.488ZM198.681 173.395L198.681 163.972L200.062 163.972L200.104 165.547L199.938 165.464C200.122 164.92 200.426 164.511 200.85 164.234C201.274 163.949 201.762 163.806 202.315 163.806C203.033 163.806 203.623 163.985 204.083 164.345C204.553 164.695 204.898 165.16 205.119 165.74C205.35 166.321 205.465 166.956 205.465 167.647C205.465 168.338 205.35 168.973 205.119 169.554C204.898 170.134 204.553 170.604 204.083 170.963C203.623 171.313 203.033 171.488 202.315 171.488C201.946 171.488 201.601 171.424 201.278 171.295C200.956 171.166 200.68 170.986 200.449 170.756C200.228 170.516 200.072 170.235 199.98 169.913L200.145 169.747L200.145 173.395L198.681 173.395ZM202.052 170.217C202.642 170.217 203.102 169.991 203.434 169.54C203.775 169.089 203.945 168.458 203.945 167.647C203.945 166.836 203.775 166.205 203.434 165.754C203.102 165.303 202.642 165.077 202.052 165.077C201.665 165.077 201.329 165.174 201.043 165.367C200.758 165.551 200.537 165.837 200.38 166.224C200.224 166.611 200.145 167.085 200.145 167.647C200.145 168.209 200.219 168.683 200.366 169.07C200.523 169.457 200.744 169.747 201.03 169.941C201.324 170.125 201.665 170.217 202.052 170.217ZM209.287 171.488C208.661 171.488 208.113 171.331 207.643 171.018C207.182 170.705 206.828 170.263 206.579 169.692C206.339 169.112 206.22 168.43 206.22 167.647C206.22 166.864 206.344 166.187 206.593 165.616C206.841 165.036 207.196 164.589 207.657 164.276C208.117 163.962 208.661 163.806 209.287 163.806C209.794 163.806 210.245 163.912 210.641 164.124C211.037 164.336 211.337 164.63 211.539 165.008L211.539 161.512L213.004 161.512L213.004 171.322L211.636 171.322L211.594 170.217C211.392 170.613 211.083 170.926 210.669 171.156C210.263 171.378 209.803 171.488 209.287 171.488ZM209.674 170.217C210.07 170.217 210.406 170.116 210.683 169.913C210.959 169.71 211.171 169.416 211.318 169.029C211.466 168.642 211.539 168.181 211.539 167.647C211.539 167.094 211.466 166.629 211.318 166.251C211.171 165.865 210.959 165.574 210.683 165.381C210.406 165.178 210.07 165.077 209.674 165.077C209.084 165.077 208.615 165.307 208.265 165.768C207.915 166.219 207.74 166.846 207.74 167.647C207.74 168.439 207.915 169.066 208.265 169.526C208.615 169.987 209.084 170.217 209.674 170.217ZM216.729 171.488C215.965 171.488 215.352 171.313 214.892 170.963C214.44 170.613 214.215 170.12 214.215 169.485C214.215 168.849 214.403 168.356 214.781 168.006C215.168 167.647 215.762 167.389 216.563 167.232L219.092 166.749C219.092 166.178 218.958 165.754 218.691 165.478C218.424 165.192 218.028 165.049 217.503 165.049C217.033 165.049 216.665 165.155 216.398 165.367C216.131 165.57 215.946 165.874 215.845 166.279L214.339 166.182C214.477 165.445 214.818 164.865 215.361 164.441C215.914 164.018 216.628 163.806 217.503 163.806C218.498 163.806 219.253 164.073 219.769 164.607C220.294 165.132 220.557 165.874 220.557 166.832L220.557 169.692C220.557 169.867 220.584 169.991 220.639 170.065C220.704 170.129 220.805 170.162 220.943 170.162L221.206 170.162L221.206 171.322C221.16 171.331 221.086 171.341 220.985 171.35C220.884 171.359 220.778 171.364 220.667 171.364C220.354 171.364 220.082 171.313 219.852 171.212C219.631 171.11 219.465 170.945 219.355 170.714C219.244 170.475 219.189 170.157 219.189 169.761L219.341 169.83C219.267 170.152 219.106 170.438 218.857 170.687C218.618 170.935 218.309 171.133 217.931 171.281C217.563 171.419 217.162 171.488 216.729 171.488ZM216.964 170.327C217.406 170.327 217.784 170.245 218.097 170.079C218.41 169.904 218.654 169.664 218.829 169.36C219.004 169.056 219.092 168.711 219.092 168.324L219.092 167.854L216.937 168.269C216.494 168.352 216.181 168.485 215.997 168.669C215.822 168.844 215.734 169.07 215.734 169.346C215.734 169.66 215.84 169.904 216.052 170.079C216.273 170.245 216.577 170.327 216.964 170.327ZM224.607 171.322C223.907 171.322 223.391 171.161 223.06 170.839C222.728 170.516 222.562 170.014 222.562 169.333L222.562 162.245L224.027 162.245L224.027 169.222C224.027 169.563 224.1 169.798 224.248 169.927C224.395 170.056 224.621 170.12 224.925 170.12L225.975 170.12L225.975 171.322L224.607 171.322ZM221.443 165.174L221.443 163.972L225.975 163.972L225.975 165.174L221.443 165.174ZM230.003 171.488C229.284 171.488 228.662 171.331 228.137 171.018C227.622 170.705 227.221 170.258 226.935 169.678C226.659 169.098 226.521 168.421 226.521 167.647C226.521 166.873 226.659 166.201 226.935 165.63C227.221 165.049 227.622 164.603 228.137 164.289C228.653 163.967 229.261 163.806 229.961 163.806C230.624 163.806 231.209 163.962 231.716 164.276C232.223 164.58 232.614 165.022 232.89 165.602C233.176 166.182 233.319 166.882 233.319 167.702L233.319 168.075L228.041 168.075C228.078 168.794 228.266 169.333 228.607 169.692C228.957 170.051 229.427 170.231 230.017 170.231C230.449 170.231 230.809 170.129 231.094 169.927C231.38 169.724 231.578 169.452 231.688 169.112L233.208 169.208C233.015 169.89 232.633 170.443 232.061 170.866C231.5 171.281 230.813 171.488 230.003 171.488ZM228.041 166.97L231.771 166.97C231.725 166.316 231.536 165.832 231.205 165.519C230.882 165.206 230.468 165.049 229.961 165.049C229.436 165.049 229.003 165.215 228.662 165.547C228.331 165.869 228.124 166.344 228.041 166.97ZM237.359 171.488C236.668 171.488 236.083 171.382 235.604 171.17C235.134 170.958 234.771 170.668 234.513 170.3C234.255 169.922 234.107 169.489 234.07 169.001L235.576 168.932C235.65 169.337 235.825 169.66 236.102 169.899C236.378 170.139 236.797 170.258 237.359 170.258C237.819 170.258 238.183 170.185 238.45 170.037C238.718 169.89 238.851 169.655 238.851 169.333C238.851 169.158 238.805 169.01 238.713 168.89C238.63 168.762 238.464 168.656 238.216 168.573C237.967 168.481 237.598 168.393 237.11 168.31C236.382 168.172 235.811 168.011 235.397 167.827C234.982 167.642 234.688 167.407 234.513 167.122C234.338 166.836 234.25 166.491 234.25 166.086C234.25 165.413 234.499 164.865 234.996 164.441C235.503 164.018 236.23 163.806 237.179 163.806C237.815 163.806 238.349 163.916 238.782 164.137C239.215 164.349 239.551 164.639 239.791 165.008C240.039 165.367 240.196 165.772 240.26 166.224L238.754 166.307C238.708 166.049 238.616 165.828 238.478 165.644C238.349 165.45 238.174 165.303 237.953 165.201C237.732 165.091 237.469 165.036 237.165 165.036C236.696 165.036 236.346 165.128 236.115 165.312C235.885 165.496 235.77 165.736 235.77 166.03C235.77 166.251 235.821 166.431 235.922 166.569C236.032 166.707 236.207 166.823 236.447 166.915C236.686 166.998 237.004 167.071 237.4 167.136C238.165 167.265 238.764 167.426 239.197 167.619C239.629 167.804 239.933 168.034 240.108 168.31C240.283 168.587 240.371 168.923 240.371 169.319C240.371 169.779 240.242 170.171 239.984 170.493C239.726 170.816 239.372 171.064 238.92 171.239C238.469 171.405 237.948 171.488 237.359 171.488ZM116.489 188.322L114.251 180.972L115.785 180.972L117.36 186.72L118.976 180.972L120.358 180.972L121.975 186.72L123.564 180.972L125.097 180.972L122.859 188.322L121.215 188.322L119.667 183.072L118.12 188.322L116.489 188.322ZM128.811 188.488C128.092 188.488 127.47 188.331 126.945 188.018C126.43 187.705 126.029 187.258 125.743 186.678C125.467 186.098 125.329 185.421 125.329 184.647C125.329 183.873 125.467 183.201 125.743 182.63C126.029 182.049 126.43 181.603 126.945 181.289C127.461 180.967 128.069 180.806 128.769 180.806C129.432 180.806 130.017 180.962 130.524 181.276C131.031 181.58 131.422 182.022 131.698 182.602C131.984 183.182 132.127 183.882 132.127 184.702L132.127 185.075L126.849 185.075C126.886 185.794 127.074 186.333 127.415 186.692C127.765 187.051 128.235 187.231 128.825 187.231C129.257 187.231 129.617 187.129 129.902 186.927C130.188 186.724 130.386 186.452 130.496 186.112L132.016 186.208C131.823 186.89 131.441 187.443 130.869 187.866C130.308 188.281 129.621 188.488 128.811 188.488ZM126.849 183.97L130.579 183.97C130.533 183.316 130.344 182.832 130.013 182.519C129.69 182.206 129.276 182.049 128.769 182.049C128.244 182.049 127.811 182.215 127.47 182.547C127.139 182.869 126.932 183.344 126.849 183.97ZM133.334 188.322L133.334 180.972L134.675 180.972L134.73 182.92L134.606 182.878C134.707 182.215 134.91 181.732 135.214 181.428C135.527 181.124 135.946 180.972 136.471 180.972L137.176 180.972L137.176 182.284L136.471 182.284C136.102 182.284 135.794 182.344 135.545 182.464C135.296 182.584 135.108 182.768 134.979 183.017C134.859 183.265 134.799 183.588 134.799 183.984L134.799 188.322L133.334 188.322ZM140.968 188.488C140.25 188.488 139.628 188.331 139.103 188.018C138.587 187.705 138.187 187.258 137.901 186.678C137.625 186.098 137.487 185.421 137.487 184.647C137.487 183.873 137.625 183.201 137.901 182.63C138.187 182.049 138.587 181.603 139.103 181.289C139.619 180.967 140.227 180.806 140.927 180.806C141.59 180.806 142.175 180.962 142.682 181.276C143.188 181.58 143.58 182.022 143.856 182.602C144.142 183.182 144.285 183.882 144.285 184.702L144.285 185.075L139.006 185.075C139.043 185.794 139.232 186.333 139.573 186.692C139.923 187.051 140.393 187.231 140.982 187.231C141.415 187.231 141.774 187.129 142.06 186.927C142.346 186.724 142.544 186.452 142.654 186.112L144.174 186.208C143.981 186.89 143.598 187.443 143.027 187.866C142.465 188.281 141.779 188.488 140.968 188.488ZM139.006 183.97L142.737 183.97C142.691 183.316 142.502 182.832 142.171 182.519C141.848 182.206 141.434 182.049 140.927 182.049C140.402 182.049 139.969 182.215 139.628 182.547C139.297 182.869 139.089 183.344 139.006 183.97ZM148.711 188.322L148.711 180.972L150.051 180.972L150.092 182.796L149.926 182.74C150.009 182.335 150.152 181.99 150.355 181.704C150.567 181.418 150.825 181.197 151.129 181.041C151.433 180.884 151.764 180.806 152.123 180.806C152.75 180.806 153.261 180.985 153.657 181.345C154.053 181.695 154.302 182.178 154.403 182.796L154.168 182.796C154.251 182.363 154.389 182.003 154.583 181.718C154.785 181.423 155.043 181.197 155.357 181.041C155.67 180.884 156.024 180.806 156.42 180.806C156.936 180.806 157.374 180.916 157.733 181.137C158.101 181.349 158.378 181.663 158.562 182.077C158.755 182.492 158.852 182.998 158.852 183.597L158.852 188.322L157.388 188.322L157.388 183.956C157.388 183.321 157.272 182.842 157.042 182.519C156.812 182.197 156.462 182.036 155.992 182.036C155.688 182.036 155.421 182.114 155.191 182.27C154.96 182.427 154.781 182.653 154.652 182.947C154.532 183.242 154.472 183.597 154.472 184.011L154.472 188.322L153.077 188.322L153.077 184.011C153.077 183.385 152.971 182.901 152.759 182.561C152.556 182.211 152.206 182.036 151.709 182.036C151.396 182.036 151.124 182.114 150.894 182.27C150.673 182.427 150.498 182.657 150.369 182.961C150.24 183.256 150.175 183.606 150.175 184.011L150.175 188.322L148.711 188.322ZM162.569 188.488C161.805 188.488 161.192 188.313 160.732 187.963C160.28 187.613 160.055 187.12 160.055 186.485C160.055 185.849 160.243 185.356 160.621 185.006C161.008 184.647 161.602 184.389 162.403 184.232L164.932 183.749C164.932 183.178 164.798 182.754 164.531 182.478C164.264 182.192 163.868 182.049 163.343 182.049C162.873 182.049 162.505 182.155 162.238 182.367C161.971 182.57 161.786 182.874 161.685 183.279L160.179 183.182C160.317 182.445 160.658 181.865 161.201 181.441C161.754 181.018 162.468 180.806 163.343 180.806C164.338 180.806 165.093 181.073 165.609 181.607C166.134 182.132 166.397 182.874 166.397 183.832L166.397 186.692C166.397 186.867 166.424 186.991 166.479 187.065C166.544 187.129 166.645 187.162 166.783 187.162L167.046 187.162L167.046 188.322C167 188.331 166.926 188.341 166.825 188.35C166.724 188.359 166.618 188.364 166.507 188.364C166.194 188.364 165.922 188.313 165.692 188.212C165.471 188.11 165.305 187.945 165.194 187.714C165.084 187.475 165.029 187.157 165.029 186.761L165.181 186.83C165.107 187.152 164.946 187.438 164.697 187.687C164.458 187.935 164.149 188.133 163.771 188.281C163.403 188.419 163.002 188.488 162.569 188.488ZM162.804 187.327C163.246 187.327 163.624 187.245 163.937 187.079C164.25 186.904 164.494 186.664 164.669 186.36C164.844 186.056 164.932 185.711 164.932 185.324L164.932 184.854L162.776 185.269C162.334 185.352 162.021 185.485 161.837 185.669C161.662 185.844 161.574 186.07 161.574 186.346C161.574 186.66 161.68 186.904 161.892 187.079C162.113 187.245 162.417 187.327 162.804 187.327ZM170.564 188.488C169.937 188.488 169.389 188.331 168.919 188.018C168.459 187.705 168.104 187.263 167.856 186.692C167.616 186.112 167.496 185.43 167.496 184.647C167.496 183.864 167.621 183.187 167.869 182.616C168.118 182.036 168.473 181.589 168.933 181.276C169.394 180.962 169.937 180.806 170.564 180.806C171.07 180.806 171.522 180.912 171.918 181.124C172.314 181.336 172.613 181.63 172.816 182.008L172.816 178.512L174.28 178.512L174.28 188.322L172.912 188.322L172.871 187.217C172.668 187.613 172.36 187.926 171.945 188.156C171.54 188.378 171.079 188.488 170.564 188.488ZM170.95 187.217C171.347 187.217 171.683 187.116 171.959 186.913C172.235 186.71 172.447 186.416 172.595 186.029C172.742 185.642 172.816 185.181 172.816 184.647C172.816 184.094 172.742 183.629 172.595 183.251C172.447 182.865 172.235 182.574 171.959 182.381C171.683 182.178 171.347 182.077 170.95 182.077C170.361 182.077 169.891 182.307 169.541 182.768C169.191 183.219 169.016 183.846 169.016 184.647C169.016 185.439 169.191 186.066 169.541 186.526C169.891 186.987 170.361 187.217 170.95 187.217ZM178.973 188.488C178.255 188.488 177.633 188.331 177.108 188.018C176.592 187.705 176.191 187.258 175.906 186.678C175.629 186.098 175.491 185.421 175.491 184.647C175.491 183.873 175.629 183.201 175.906 182.63C176.191 182.049 176.592 181.603 177.108 181.289C177.624 180.967 178.232 180.806 178.932 180.806C179.595 180.806 180.18 180.962 180.686 181.276C181.193 181.58 181.584 182.022 181.861 182.602C182.146 183.182 182.289 183.882 182.289 184.702L182.289 185.075L177.011 185.075C177.048 185.794 177.237 186.333 177.578 186.692C177.928 187.051 178.397 187.231 178.987 187.231C179.42 187.231 179.779 187.129 180.065 186.927C180.35 186.724 180.548 186.452 180.659 186.112L182.179 186.208C181.985 186.89 181.603 187.443 181.032 187.866C180.47 188.281 179.784 188.488 178.973 188.488ZM177.011 183.97L180.742 183.97C180.696 183.316 180.507 182.832 180.175 182.519C179.853 182.206 179.438 182.049 178.932 182.049C178.407 182.049 177.974 182.215 177.633 182.547C177.301 182.869 177.094 183.344 177.011 183.97ZM186.715 188.322L186.715 180.972L188.18 180.972L188.18 188.322L186.715 188.322ZM186.687 179.908L186.687 178.443L188.207 178.443L188.207 179.908L186.687 179.908ZM190.095 188.322L190.095 180.972L191.436 180.972L191.491 182.934L191.311 182.837C191.394 182.358 191.551 181.971 191.781 181.676C192.011 181.382 192.292 181.165 192.624 181.027C192.955 180.88 193.315 180.806 193.702 180.806C194.254 180.806 194.71 180.93 195.069 181.179C195.438 181.418 195.714 181.75 195.898 182.174C196.092 182.588 196.189 183.063 196.189 183.597L196.189 188.322L194.724 188.322L194.724 184.039C194.724 183.606 194.678 183.242 194.586 182.947C194.494 182.653 194.342 182.427 194.13 182.27C193.918 182.114 193.642 182.036 193.301 182.036C192.785 182.036 192.366 182.206 192.044 182.547C191.721 182.888 191.56 183.385 191.56 184.039L191.56 188.322L190.095 188.322Z" fill="#0A0A0A"/>
<path id="January 2026." d="M114.203 240.086C113.549 240.086 112.974 239.938 112.476 239.644C111.988 239.34 111.61 238.925 111.343 238.4C111.076 237.866 110.938 237.253 110.929 236.563L112.449 236.48C112.458 237.217 112.614 237.774 112.918 238.151C113.222 238.529 113.651 238.718 114.203 238.718C114.784 238.718 115.226 238.52 115.53 238.124C115.843 237.728 116 237.157 116 236.411L116 230.055L117.492 230.055L117.492 236.411C117.492 237.157 117.354 237.806 117.077 238.359C116.81 238.911 116.432 239.34 115.944 239.644C115.456 239.938 114.876 240.086 114.203 240.086ZM121.297 240.031C120.533 240.031 119.92 239.856 119.46 239.506C119.008 239.155 118.783 238.663 118.783 238.027C118.783 237.392 118.971 236.899 119.349 236.549C119.736 236.189 120.33 235.932 121.131 235.775L123.66 235.291C123.66 234.72 123.526 234.297 123.259 234.02C122.992 233.735 122.596 233.592 122.071 233.592C121.601 233.592 121.233 233.698 120.966 233.91C120.699 234.112 120.514 234.416 120.413 234.822L118.907 234.725C119.045 233.988 119.386 233.408 119.929 232.984C120.482 232.56 121.196 232.348 122.071 232.348C123.066 232.348 123.821 232.615 124.337 233.15C124.862 233.675 125.125 234.416 125.125 235.374L125.125 238.234C125.125 238.409 125.152 238.534 125.207 238.607C125.272 238.672 125.373 238.704 125.511 238.704L125.774 238.704L125.774 239.865C125.728 239.874 125.654 239.883 125.553 239.892C125.452 239.902 125.346 239.906 125.235 239.906C124.922 239.906 124.65 239.856 124.42 239.754C124.199 239.653 124.033 239.487 123.922 239.257C123.812 239.017 123.757 238.7 123.757 238.303L123.909 238.373C123.835 238.695 123.674 238.98 123.425 239.229C123.186 239.478 122.877 239.676 122.499 239.823C122.131 239.961 121.73 240.031 121.297 240.031ZM121.532 238.87C121.974 238.87 122.352 238.787 122.665 238.621C122.978 238.446 123.222 238.207 123.397 237.903C123.572 237.599 123.66 237.253 123.66 236.866L123.66 236.397L121.505 236.811C121.062 236.894 120.749 237.028 120.565 237.212C120.39 237.387 120.302 237.613 120.302 237.889C120.302 238.202 120.408 238.446 120.62 238.621C120.841 238.787 121.145 238.87 121.532 238.87ZM126.734 239.865L126.734 232.514L128.074 232.514L128.13 234.476L127.95 234.379C128.033 233.9 128.19 233.514 128.42 233.219C128.65 232.924 128.931 232.708 129.263 232.569C129.594 232.422 129.954 232.348 130.34 232.348C130.893 232.348 131.349 232.473 131.708 232.721C132.077 232.961 132.353 233.293 132.537 233.716C132.731 234.131 132.827 234.605 132.827 235.139L132.827 239.865L131.363 239.865L131.363 235.582C131.363 235.149 131.317 234.785 131.225 234.49C131.133 234.195 130.981 233.97 130.769 233.813C130.557 233.656 130.281 233.578 129.94 233.578C129.424 233.578 129.005 233.748 128.682 234.089C128.36 234.43 128.199 234.928 128.199 235.582L128.199 239.865L126.734 239.865ZM136.85 240.031C136.113 240.031 135.524 239.786 135.082 239.298C134.649 238.801 134.432 238.115 134.432 237.24L134.432 232.514L135.897 232.514L135.897 236.866C135.897 237.53 136.012 238.018 136.242 238.331C136.473 238.644 136.823 238.801 137.292 238.801C137.827 238.801 138.241 238.63 138.536 238.29C138.84 237.94 138.992 237.451 138.992 236.825L138.992 232.514L140.456 232.514L140.456 239.865L139.089 239.865L139.061 237.944L139.268 238.027C139.139 238.672 138.867 239.169 138.453 239.519C138.038 239.86 137.504 240.031 136.85 240.031ZM144.31 240.031C143.546 240.031 142.933 239.856 142.473 239.506C142.021 239.155 141.796 238.663 141.796 238.027C141.796 237.392 141.985 236.899 142.362 236.549C142.749 236.189 143.343 235.932 144.145 235.775L146.673 235.291C146.673 234.72 146.54 234.297 146.272 234.02C146.005 233.735 145.609 233.592 145.084 233.592C144.614 233.592 144.246 233.698 143.979 233.91C143.712 234.112 143.528 234.416 143.426 234.822L141.92 234.725C142.058 233.988 142.399 233.408 142.943 232.984C143.495 232.56 144.209 232.348 145.084 232.348C146.079 232.348 146.834 232.615 147.35 233.15C147.875 233.675 148.138 234.416 148.138 235.374L148.138 238.234C148.138 238.409 148.165 238.534 148.221 238.607C148.285 238.672 148.386 238.704 148.525 238.704L148.787 238.704L148.787 239.865C148.741 239.874 148.667 239.883 148.566 239.892C148.465 239.902 148.359 239.906 148.248 239.906C147.935 239.906 147.663 239.856 147.433 239.754C147.212 239.653 147.046 239.487 146.936 239.257C146.825 239.017 146.77 238.7 146.77 238.303L146.922 238.373C146.848 238.695 146.687 238.98 146.438 239.229C146.199 239.478 145.89 239.676 145.513 239.823C145.144 239.961 144.743 240.031 144.31 240.031ZM144.545 238.87C144.988 238.87 145.365 238.787 145.678 238.621C145.992 238.446 146.236 238.207 146.411 237.903C146.586 237.599 146.673 237.253 146.673 236.866L146.673 236.397L144.518 236.811C144.076 236.894 143.762 237.028 143.578 237.212C143.403 237.387 143.316 237.613 143.316 237.889C143.316 238.202 143.422 238.446 143.633 238.621C143.855 238.787 144.158 238.87 144.545 238.87ZM149.747 239.865L149.747 232.514L151.088 232.514L151.143 234.462L151.019 234.421C151.12 233.758 151.323 233.274 151.627 232.97C151.94 232.666 152.359 232.514 152.884 232.514L153.589 232.514L153.589 233.827L152.884 233.827C152.515 233.827 152.207 233.887 151.958 234.006C151.709 234.126 151.521 234.31 151.392 234.559C151.272 234.808 151.212 235.13 151.212 235.526L151.212 239.865L149.747 239.865ZM154.986 241.937L154.986 240.735L155.884 240.735C156.133 240.735 156.317 240.698 156.437 240.625C156.556 240.551 156.649 240.427 156.713 240.252L156.948 239.644L156.492 239.644L153.839 232.514L155.387 232.514L157.404 238.29L159.324 232.514L160.886 232.514L157.957 240.721C157.809 241.145 157.588 241.454 157.293 241.647C157.008 241.841 156.607 241.937 156.091 241.937L154.986 241.937ZM164.795 239.865C164.795 239.128 164.905 238.469 165.126 237.889C165.347 237.309 165.725 236.77 166.259 236.272C166.793 235.775 167.53 235.278 168.47 234.78C168.921 234.55 169.28 234.338 169.548 234.145C169.824 233.942 170.022 233.735 170.142 233.523C170.261 233.311 170.321 233.053 170.321 232.749C170.321 232.436 170.252 232.169 170.114 231.948C169.985 231.717 169.792 231.538 169.534 231.409C169.276 231.271 168.949 231.202 168.553 231.202C167.926 231.202 167.429 231.372 167.061 231.713C166.701 232.044 166.476 232.523 166.383 233.15L164.836 233.053C164.947 232.067 165.32 231.284 165.955 230.704C166.6 230.124 167.466 229.834 168.553 229.834C169.253 229.834 169.847 229.958 170.335 230.207C170.833 230.446 171.21 230.782 171.468 231.215C171.735 231.648 171.869 232.15 171.869 232.721C171.869 233.219 171.786 233.647 171.62 234.006C171.454 234.366 171.178 234.702 170.791 235.015C170.404 235.319 169.879 235.646 169.216 235.996C168.369 236.447 167.728 236.894 167.295 237.336C166.862 237.769 166.632 238.156 166.605 238.497L171.869 238.497L171.869 239.865L164.795 239.865ZM176.914 240.086C176.103 240.086 175.399 239.879 174.8 239.464C174.201 239.05 173.741 238.46 173.418 237.695C173.096 236.931 172.935 236.024 172.935 234.974C172.935 233.923 173.096 233.016 173.418 232.252C173.75 231.478 174.21 230.884 174.8 230.469C175.399 230.046 176.103 229.834 176.914 229.834C177.734 229.834 178.438 230.046 179.028 230.469C179.627 230.884 180.087 231.473 180.41 232.238C180.741 233.002 180.907 233.914 180.907 234.974C180.907 236.024 180.746 236.931 180.423 237.695C180.101 238.46 179.64 239.05 179.042 239.464C178.443 239.879 177.734 240.086 176.914 240.086ZM176.914 238.718C177.697 238.718 178.3 238.396 178.724 237.751C179.148 237.106 179.359 236.18 179.359 234.974C179.359 234.163 179.263 233.477 179.069 232.915C178.885 232.353 178.609 231.929 178.24 231.644C177.881 231.349 177.439 231.202 176.914 231.202C176.398 231.202 175.956 231.349 175.587 231.644C175.228 231.929 174.952 232.353 174.758 232.915C174.574 233.477 174.482 234.163 174.482 234.974C174.482 236.18 174.694 237.106 175.118 237.751C175.541 238.396 176.14 238.718 176.914 238.718ZM181.972 239.865C181.972 239.128 182.082 238.469 182.303 237.889C182.524 237.309 182.902 236.77 183.436 236.272C183.971 235.775 184.707 235.278 185.647 234.78C186.098 234.55 186.458 234.338 186.725 234.145C187.001 233.942 187.199 233.735 187.319 233.523C187.439 233.311 187.499 233.053 187.499 232.749C187.499 232.436 187.429 232.169 187.291 231.948C187.162 231.717 186.969 231.538 186.711 231.409C186.453 231.271 186.126 231.202 185.73 231.202C185.104 231.202 184.606 231.372 184.238 231.713C183.878 232.044 183.653 232.523 183.561 233.15L182.013 233.053C182.124 232.067 182.497 231.284 183.132 230.704C183.777 230.124 184.643 229.834 185.73 229.834C186.43 229.834 187.024 229.958 187.512 230.207C188.01 230.446 188.387 230.782 188.645 231.215C188.912 231.648 189.046 232.15 189.046 232.721C189.046 233.219 188.963 233.647 188.797 234.006C188.631 234.366 188.355 234.702 187.968 235.015C187.581 235.319 187.056 235.646 186.393 235.996C185.546 236.447 184.906 236.894 184.473 237.336C184.04 237.769 183.809 238.156 183.782 238.497L189.046 238.497L189.046 239.865L181.972 239.865ZM193.842 240.086C193.069 240.086 192.415 239.915 191.88 239.575C191.346 239.225 190.941 238.723 190.665 238.069C190.388 237.405 190.25 236.604 190.25 235.664C190.25 234.845 190.319 234.085 190.457 233.385C190.605 232.675 190.835 232.058 191.148 231.533C191.461 230.999 191.867 230.584 192.364 230.29C192.871 229.986 193.483 229.834 194.202 229.834C195.104 229.834 195.809 230.055 196.316 230.497C196.822 230.93 197.172 231.51 197.366 232.238L195.887 232.362C195.777 232.003 195.593 231.717 195.335 231.506C195.086 231.294 194.708 231.188 194.202 231.188C193.446 231.188 192.852 231.51 192.419 232.155C191.986 232.8 191.756 233.785 191.728 235.112L191.466 235.056C191.567 234.743 191.738 234.458 191.977 234.2C192.217 233.933 192.516 233.721 192.875 233.564C193.244 233.398 193.663 233.316 194.133 233.316C194.787 233.316 195.358 233.454 195.846 233.73C196.343 233.997 196.726 234.379 196.993 234.877C197.269 235.374 197.407 235.955 197.407 236.618C197.407 237.336 197.255 237.958 196.951 238.483C196.647 238.999 196.228 239.395 195.694 239.671C195.16 239.948 194.542 240.086 193.842 240.086ZM193.856 238.759C194.455 238.759 194.939 238.571 195.307 238.193C195.685 237.806 195.873 237.281 195.873 236.618C195.873 236.203 195.791 235.844 195.625 235.54C195.468 235.227 195.243 234.987 194.948 234.822C194.662 234.656 194.331 234.573 193.953 234.573C193.538 234.573 193.17 234.656 192.848 234.822C192.525 234.987 192.272 235.227 192.088 235.54C191.903 235.844 191.811 236.203 191.811 236.618C191.811 237.032 191.894 237.401 192.06 237.723C192.226 238.046 192.461 238.299 192.765 238.483C193.078 238.667 193.442 238.759 193.856 238.759ZM198.523 239.865L198.523 238.124L200.305 238.124L200.305 239.865L198.523 239.865Z" fill="#0A0A0A"/>
</g>
</g>
</g>
<defs>
<clipPath id="clip0_34_2">
<rect width="310.88" height="310.88" fill="white"/>
</clipPath>
<clipPath id="clip1_34_2">
<rect width="23.0281" height="23.0281" fill="white" transform="translate(144.07 66.752)"/>
</clipPath>
<clipPath id="clip2_34_2">
<rect width="23.0281" height="23.0281" fill="white" transform="translate(199.051 66.752)"/>
</clipPath>
</defs>
</svg>
