<svg width="311" height="311" viewBox="0 0 311 311" fill="none" xmlns="http://www.w3.org/2000/svg">
<rect width="311" height="311" fill="#1E1E1E"/>
<g>
<path d="M-450.88 -99C-450.88 -100.11 -449.99 -101 -448.88 -101H1110.64C1111.74 -101 1112.64 -100.11 1112.64 -99V408.88C1112.64 409.99 1111.74 410.88 1110.64 410.88H-448.88C-449.99 410.88 -450.88 409.99 -450.88 408.88V-99Z" fill="#444444"/>
<path d="M-448.88 -101V-100H1110.64V-101V-102H-448.88V-101ZM1112.64 -99H1111.64V408.88H1112.64H1113.64V-99H1112.64ZM1110.64 410.88V409.88H-448.88V410.88V411.88H1110.64V410.88ZM-450.88 408.88H-449.88V-99H-450.88H-451.88V408.88H-450.88ZM-448.88 410.88V409.88C-449.44 409.88 -449.88 409.43 -449.88 408.88H-450.88H-451.88C-451.88 410.54 -450.54 411.88 -448.88 411.88V410.88ZM1112.64 408.88H1111.64C1111.64 409.43 1111.19 409.88 1110.64 409.88V410.88V411.88C1112.29 411.88 1113.64 410.54 1113.64 408.88H1112.64ZM1110.64 -101V-100C1111.19 -100 1111.64 -99.55 1111.64 -99H1112.64H1113.64C1113.64 -100.66 1112.29 -102 1110.64 -102V-101ZM-448.88 -101V-102C-450.54 -102 -451.88 -100.66 -451.88 -99H-450.88H-449.88C-449.88 -99.55 -449.44 -100 -448.88 -100V-101Z" fill="white" fill-opacity="0.1"/>
<g clip-path="url(#clip0_34_2)">
<rect width="310.88" height="310.88" fill="#F9F9F9"/>
<path d="M268.81 17.43V16.85H269.38V17.43H268.81ZM234.31 17.43H233.74V16.85H234.31V17.43ZM234.31 51.92V52.5H233.74V51.92H234.31ZM268.81 51.92H269.38V52.5H268.81V51.92ZM234.27 51.97V51.39H234.84V51.97H234.27ZM199.77 51.97H199.19V51.39H199.77V51.97ZM199.77 86.47V87.04H199.19V86.47H199.77ZM234.27 86.47H234.84V87.04H234.27V86.47ZM268.68 86.51V85.94H269.25V86.51H268.68ZM234.18 86.51H233.6V85.94H234.18V86.51ZM234.18 121.01V121.58H233.6V121.01H234.18ZM268.68 121.01H269.25V121.58H268.68V121.01ZM130.64 189.85H130.06V189.28H130.64V189.85ZM234.18 189.85V189.28H234.75V189.85H234.18ZM234.18 224.31V224.88H233.6V224.31H234.18ZM268.68 224.31H269.25V224.88H268.68V224.31ZM268.68 189.81V189.24H269.25V189.81H268.68ZM234.18 189.81V190.39H233.6V189.81H234.18ZM234.18 121.05V120.48H234.75V121.05H234.18ZM165.18 121.05V121.63H164.61V121.05H165.18ZM165.18 86.84V86.27H165.76V86.84H165.18ZM130.69 86.84H130.11V86.27H130.69V86.84ZM130.69 121.05H131.26V121.63H130.69V121.05ZM96.1 121.05V121.63H95.52V121.05H96.1ZM96.1 86.84V86.27H96.67V86.84H96.1ZM61.6 86.84H61.02V86.27H61.6V86.84ZM61.6 121.34V121.92H61.02V121.34H61.6ZM96.01 121.34V120.77H96.59V121.34H96.01ZM96.01 155.31H96.59V155.88H96.01V155.31ZM61.6 155.31H61.02V154.73H61.6V155.31ZM61.6 189.81V190.38H61.02V189.81H61.6ZM96.01 189.81V189.23H96.59V189.81H96.01ZM96.01 189.85V190.43H95.43V189.85H96.01ZM96.14 189.85V189.28H96.72V189.85H96.14ZM96.14 224.31V224.88H95.57V224.31H96.14ZM130.64 224.31H131.22V224.88H130.64V224.31ZM61.58 121.3V120.72H62.15V121.3H61.58ZM27.04 121.3H26.46V120.72H27.04V121.3ZM27.04 155.26V155.84H26.46V155.26H27.04ZM61.58 155.26H62.15V155.84H61.58V155.26ZM96.1 224.39V223.82H96.67V224.39H96.1ZM61.6 224.39H61.02V223.82H61.6V224.39ZM61.6 258.89V259.47H61.02V258.89H61.6ZM96.1 258.89H96.67V259.47H96.1V258.89ZM268.81 17.43V18H234.31V17.43V16.85H268.81V17.43ZM234.31 17.43H234.89V51.92H234.31H233.74V17.43H234.31ZM234.31 51.92V51.35H268.81V51.92V52.5H234.31V51.92ZM268.81 51.92H268.23V17.43H268.81H269.38V51.92H268.81ZM234.27 51.97V52.55H199.77V51.97V51.39H234.27V51.97ZM199.77 51.97H200.34V86.47H199.77H199.19V51.97H199.77ZM199.77 86.47V85.89H234.27V86.47V87.04H199.77V86.47ZM234.27 86.47H233.69V51.97H234.27H234.84V86.47H234.27ZM268.68 86.51V87.09H234.18V86.51V85.94H268.68V86.51ZM234.18 86.51H234.75V121.01H234.18H233.6V86.51H234.18ZM234.18 121.01V120.43H268.68V121.01V121.58H234.18V121.01ZM268.68 121.01H268.1V86.51H268.68H269.25V121.01H268.68ZM130.64 189.85V189.28H234.18V189.85V190.43H130.64V189.85ZM234.18 189.85H234.75V224.31H234.18H233.6V189.85H234.18ZM234.18 224.31V223.73H268.68V224.31V224.88H234.18V224.31ZM268.68 224.31H268.1V189.81H268.68H269.25V224.31H268.68ZM268.68 189.81V190.39H234.18V189.81V189.24H268.68V189.81ZM234.18 189.81H233.6V121.05H234.18H234.75V189.81H234.18ZM234.18 121.05V121.63H165.18V121.05V120.48H234.18V121.05ZM165.18 121.05H164.61V86.84H165.18H165.76V121.05H165.18ZM165.18 86.84V87.42H130.69V86.84V86.27H165.18V86.84ZM130.69 86.84H131.26V121.05H130.69H130.11V86.84H130.69ZM130.69 121.05V121.63H96.1V121.05V120.48H130.69V121.05ZM96.1 121.05H95.52V86.84H96.1H96.67V121.05H96.1ZM96.1 86.84V87.42H61.6V86.84V86.27H96.1V86.84ZM61.6 86.84H62.18V121.34H61.6H61.02V86.84H61.6ZM61.6 121.34V120.77H96.01V121.34V121.92H61.6V121.34ZM96.01 121.34H96.59V155.31H96.01H95.43V121.34H96.01ZM96.01 155.31V155.88H61.6V155.31V154.73H96.01V155.31ZM61.6 155.31H62.18V189.81H61.6H61.02V155.31H61.6ZM61.6 189.81V189.23H96.01V189.81V190.38H61.6V189.81ZM96.01 189.81H96.59V189.85H96.01H95.43V189.81H96.01ZM96.01 189.85V189.28H96.14V189.85V190.43H96.01V189.85ZM96.14 189.85H96.72V224.31H96.14H95.57V189.85H96.14ZM96.14 224.31V223.73H130.64V224.31V224.88H96.14V224.31ZM130.64 224.31H130.06V189.85H130.64H131.22V224.31H130.64ZM61.58 121.3V121.87H27.04V121.3V120.72H61.58V121.3ZM27.04 121.3H27.61V155.26H27.04H26.46V121.3H27.04ZM27.04 155.26V154.69H61.58V155.26V155.84H27.04V155.26ZM61.58 155.26H61V121.3H61.58H62.15V155.26H61.58ZM96.1 224.39V224.97H61.6V224.39V223.82H96.1V224.39ZM61.6 224.39H62.18V258.89H61.6H61.02V224.39H61.6ZM61.6 258.89V258.31H96.1V258.89V259.47H61.6V258.89ZM96.1 258.89H95.52V224.39H96.1H96.67V258.89H96.1Z" fill="#33C19E"/>
<path d="M315.2 11.25L0 11.25" stroke="#DDDDDD" stroke-width="0.287852"/>
<path d="M315.2 299.1H0" stroke="#DDDDDD" stroke-width="0.287852"/>
<path d="M11.51 -0.26L11.51 393.52" stroke="#DDDDDD" stroke-width="0.287852"/>
<path d="M299.37 -0.26L299.37 393.52" stroke="#DDDDDD" stroke-width="0.287852"/>
<g>
<path d="M11.51 9.81V12.69" stroke="#33C19E" stroke-width="0.287852" stroke-linejoin="round"/>
<path d="M10.07 11.25L12.95 11.25" stroke="#33C19E" stroke-width="0.287852" stroke-linejoin="round"/>
</g>
<g>
<path d="M299.36 9.81V12.69" stroke="#33C19E" stroke-width="0.287852" stroke-linejoin="round"/>
<path d="M297.93 11.25L300.8 11.25" stroke="#33C19E" stroke-width="0.287852" stroke-linejoin="round"/>
</g>
<g>
<path d="M11.51 297.66V300.54" stroke="#33C19E" stroke-width="0.287852" stroke-linejoin="round"/>
<path d="M10.07 299.1L12.95 299.1" stroke="#33C19E" stroke-width="0.287852" stroke-linejoin="round"/>
</g>
<g>
<path d="M299.36 297.66V300.54" stroke="#33C19E" stroke-width="0.287852" stroke-linejoin="round"/>
<path d="M297.93 299.1L300.8 299.1" stroke="#33C19E" stroke-width="0.287852" stroke-linejoin="round"/>
</g>
<path d="M251.18 284.02L248.26 274.21L249.8 274.21L252.26 282.85L251.82 282.85L254.28 274.21L255.81 274.21L252.89 284.02L251.18 284.02ZM259.11 284.02L259.11 282.2L260.99 282.2L260.99 284.02L259.11 284.02ZM267.68 284.02L267.68 277.03L265.17 277.03L265.17 275.8L266.41 275.8C266.77 275.8 267.06 275.75 267.28 275.65C267.5 275.54 267.66 275.37 267.76 275.14C267.87 274.91 267.92 274.6 267.92 274.21L269.13 274.21L269.13 284.02L267.68 284.02ZM264.68 284.02L264.68 282.66L271.43 282.66L271.43 284.02L264.68 284.02ZM275.12 284.02L275.12 282.2L277 282.2L277 284.02L275.12 284.02ZM283.7 284.02L283.7 277.03L281.18 277.03L281.18 275.8L282.43 275.8C282.79 275.8 283.07 275.75 283.3 275.65C283.52 275.54 283.68 275.37 283.78 275.14C283.88 274.91 283.93 274.6 283.93 274.21L285.15 274.21L285.15 284.02L283.7 284.02ZM280.7 284.02L280.7 282.66L287.44 282.66L287.44 284.02L280.7 284.02Z" fill="#0A0A0A"/>
<g>
<g clip-path="url(#clip1_34_2)">
<path d="M30.28 31.07L30.86 33.36C30.87 33.42 30.88 33.46 30.89 33.48C30.98 33.76 31.23 33.95 31.52 33.97C31.55 33.98 31.58 33.98 31.65 33.98C31.73 33.98 31.77 33.98 31.81 33.97C32.15 33.94 32.42 33.67 32.46 33.32C32.46 33.29 32.46 33.24 32.46 33.16V27.99M35.55 30.89C36.25 30.89 36.81 30.32 36.81 29.62C36.81 28.92 36.25 28.35 35.55 28.35M32.55 27.99H31.19C30.29 27.99 29.56 28.72 29.56 29.62C29.56 30.52 30.29 31.25 31.19 31.25H32.55C33.19 31.25 33.98 31.6 34.58 31.93C34.93 32.12 35.11 32.22 35.23 32.2C35.33 32.19 35.41 32.14 35.48 32.05C35.55 31.96 35.55 31.77 35.55 31.39V27.85C35.55 27.48 35.55 27.29 35.48 27.19C35.41 27.1 35.33 27.05 35.23 27.04C35.11 27.03 34.93 27.12 34.58 27.32C33.98 27.65 33.19 27.99 32.55 27.99Z" stroke="black" stroke-width="0.725629" stroke-linecap="round" stroke-linejoin="round"/>
</g>
<path d="M41.03 33.35V27.17H42.15L44.18 32.05V27.17H45.07V33.35H43.96L41.93 28.46V33.35H41.03ZM46.78 33.35V27.17H50.57V28.03H47.69V29.83H50.47V30.67H47.69V32.49H50.64V33.35H46.78ZM52.49 33.35L51.82 27.17H52.74L53.25 32.6H53.15L53.79 27.86H54.59L55.24 32.6H55.13L55.65 27.17H56.56L55.9 33.35H54.71L54.09 28.82H54.3L53.68 33.35H52.49ZM63.57 33.35V27.17H67.44V28.01H63.96L64.49 27.51V30.35L63.96 29.91H67.28V30.74H63.96L64.49 30.3V33.35H63.57ZM69.05 33.35V27.17H72.85V28.03H69.97V29.83H72.75V30.67H69.97V32.49H72.92V33.35H69.05ZM74.07 33.35L75.88 27.17H77.06L78.87 33.35H77.92L76.47 28.11L75.02 33.35H74.07ZM75.08 31.74L75.36 30.89H77.58L77.86 31.74H75.08ZM81.59 33.35V28.03H79.78V27.17H84.3V28.03H82.49V33.35H81.59ZM87.61 33.49C86.95 33.49 86.43 33.28 86.06 32.88C85.69 32.47 85.5 31.91 85.5 31.2V27.17H86.42V31.23C86.42 31.68 86.52 32.03 86.72 32.28C86.92 32.51 87.22 32.63 87.61 32.63C88 32.63 88.29 32.51 88.5 32.28C88.7 32.03 88.8 31.68 88.8 31.23V27.17H89.72V31.2C89.72 31.91 89.53 32.47 89.16 32.88C88.79 33.28 88.27 33.49 87.61 33.49ZM91.15 33.35V27.17H93.07C93.73 27.17 94.24 27.33 94.62 27.66C94.99 27.99 95.18 28.44 95.18 29.01C95.18 29.31 95.11 29.57 94.98 29.8C94.85 30.02 94.68 30.2 94.47 30.33C94.26 30.45 94.03 30.53 93.8 30.54L93.76 30.44C94.19 30.46 94.51 30.56 94.72 30.74C94.93 30.91 95.06 31.19 95.09 31.59L95.25 33.35H94.34L94.2 31.76C94.18 31.56 94.14 31.4 94.07 31.28C94 31.15 93.89 31.07 93.74 31.01C93.6 30.96 93.4 30.94 93.14 30.94H92.06V33.35H91.15ZM92.06 30.08H93.06C93.44 30.08 93.73 29.99 93.94 29.81C94.14 29.63 94.24 29.38 94.24 29.05C94.24 28.72 94.14 28.47 93.94 28.3C93.73 28.12 93.44 28.03 93.06 28.03H92.06V30.08ZM96.9 33.35V27.17H100.7V28.03H97.82V29.83H100.59V30.67H97.82V32.49H100.77V33.35H96.9Z" fill="black"/>
<path d="M27.38 38.13H23.03V22.9H27.02" stroke="#33C19E" stroke-width="0.725629"/>
<path d="M103.17 22.9H107.52V38.13H103.53" stroke="#33C19E" stroke-width="0.725629"/>
</g>
<path d="M89.03 144.95L89.03 116.34L107.61 116.34L107.61 120.33L91.09 120.33L93.39 117.95L93.39 131.09L91.09 129.03L106.89 129.03L106.89 132.9L91.09 132.9L93.39 130.84L93.39 144.95L89.03 144.95ZM119.44 145.43C117.34 145.43 115.53 144.98 113.99 144.06C112.49 143.15 111.32 141.85 110.49 140.15C109.68 138.46 109.28 136.49 109.28 134.23C109.28 131.97 109.68 130.01 110.49 128.35C111.32 126.65 112.49 125.35 113.99 124.44C115.5 123.5 117.27 123.03 119.31 123.03C121.25 123.03 122.95 123.48 124.43 124.4C125.91 125.28 127.05 126.57 127.86 128.26C128.69 129.96 129.11 132 129.11 134.39L129.11 135.48L113.71 135.48C113.82 137.57 114.37 139.15 115.36 140.19C116.39 141.24 117.76 141.77 119.47 141.77C120.74 141.77 121.79 141.47 122.62 140.88C123.45 140.29 124.03 139.5 124.35 138.5L128.78 138.78C128.22 140.77 127.11 142.38 125.44 143.62C123.8 144.83 121.8 145.43 119.44 145.43ZM113.71 132.25L124.59 132.25C124.46 130.35 123.91 128.94 122.94 128.02C122 127.11 120.79 126.65 119.31 126.65C117.78 126.65 116.52 127.14 115.53 128.1C114.56 129.04 113.95 130.43 113.71 132.25ZM139.07 145.43C136.84 145.43 135.05 144.92 133.71 143.9C132.39 142.88 131.73 141.44 131.73 139.59C131.73 137.74 132.28 136.3 133.38 135.28C134.51 134.23 136.25 133.48 138.58 133.02L145.96 131.61C145.96 129.94 145.57 128.71 144.79 127.9C144.01 127.07 142.85 126.65 141.32 126.65C139.95 126.65 138.88 126.96 138.1 127.58C137.32 128.17 136.78 129.06 136.49 130.24L132.09 129.96C132.5 127.81 133.49 126.12 135.08 124.88C136.69 123.64 138.77 123.03 141.32 123.03C144.22 123.03 146.43 123.81 147.93 125.36C149.46 126.89 150.23 129.06 150.23 131.85L150.23 140.19C150.23 140.7 150.31 141.07 150.47 141.28C150.66 141.47 150.96 141.56 151.36 141.56L152.12 141.56L152.12 144.95C151.99 144.98 151.77 145 151.48 145.03C151.18 145.06 150.87 145.07 150.55 145.07C149.64 145.07 148.85 144.92 148.17 144.63C147.53 144.33 147.05 143.85 146.72 143.18C146.4 142.48 146.24 141.55 146.24 140.4L146.68 140.6C146.47 141.54 146 142.37 145.27 143.09C144.57 143.82 143.67 144.4 142.57 144.83C141.5 145.23 140.33 145.43 139.07 145.43ZM139.75 142.05C141.04 142.05 142.14 141.81 143.06 141.32C143.97 140.81 144.68 140.11 145.19 139.23C145.7 138.34 145.96 137.33 145.96 136.2L145.96 134.83L139.67 136.04C138.38 136.28 137.47 136.67 136.93 137.21C136.42 137.72 136.16 138.38 136.16 139.19C136.16 140.1 136.47 140.81 137.09 141.32C137.74 141.81 138.62 142.05 139.75 142.05ZM162.04 144.95C160 144.95 158.5 144.48 157.53 143.54C156.56 142.6 156.08 141.13 156.08 139.15L156.08 118.47L160.35 118.47L160.35 138.82C160.35 139.82 160.57 140.5 161 140.88C161.43 141.25 162.08 141.44 162.97 141.44L166.03 141.44L166.03 144.95L162.04 144.95ZM152.81 127.02L152.81 123.51L166.03 123.51L166.03 127.02L152.81 127.02ZM176.44 145.43C174.29 145.43 172.57 144.72 171.28 143.3C170.02 141.85 169.39 139.84 169.39 137.29L169.39 123.51L173.66 123.51L173.66 136.2C173.66 138.14 174 139.56 174.67 140.48C175.34 141.39 176.36 141.85 177.73 141.85C179.29 141.85 180.5 141.35 181.36 140.35C182.24 139.33 182.69 137.91 182.69 136.08L182.69 123.51L186.96 123.51L186.96 144.95L182.97 144.95L182.89 139.35L183.49 139.59C183.12 141.47 182.32 142.92 181.12 143.94C179.91 144.94 178.35 145.43 176.44 145.43ZM192.19 144.95L192.19 123.51L196.1 123.51L196.26 129.19L195.9 129.07C196.2 127.14 196.79 125.73 197.68 124.84C198.59 123.95 199.81 123.51 201.34 123.51L203.4 123.51L203.4 127.34L201.34 127.34C200.27 127.34 199.37 127.51 198.64 127.86C197.92 128.21 197.37 128.75 196.99 129.47C196.64 130.2 196.47 131.14 196.47 132.29L196.47 144.95L192.19 144.95ZM214.46 145.43C212.37 145.43 210.55 144.98 209.02 144.06C207.52 143.15 206.35 141.85 205.51 140.15C204.71 138.46 204.31 136.49 204.31 134.23C204.31 131.97 204.71 130.01 205.51 128.35C206.35 126.65 207.52 125.35 209.02 124.44C210.53 123.5 212.3 123.03 214.34 123.03C216.27 123.03 217.98 123.48 219.46 124.4C220.94 125.28 222.08 126.57 222.88 128.26C223.72 129.96 224.13 132 224.13 134.39L224.13 135.48L208.74 135.48C208.85 137.57 209.4 139.15 210.39 140.19C211.41 141.24 212.78 141.77 214.5 141.77C215.76 141.77 216.81 141.47 217.64 140.88C218.48 140.29 219.06 139.5 219.38 138.5L223.81 138.78C223.25 140.77 222.13 142.38 220.47 143.62C218.83 144.83 216.82 145.43 214.46 145.43ZM208.74 132.25L219.62 132.25C219.49 130.35 218.93 128.94 217.97 128.02C217.03 127.11 215.82 126.65 214.34 126.65C212.81 126.65 211.55 127.14 210.55 128.1C209.59 129.04 208.98 130.43 208.74 132.25ZM101.09 193.43C98.94 193.43 97.22 192.72 95.94 191.3C94.67 189.85 94.04 187.84 94.04 185.29L94.04 171.51L98.31 171.51L98.31 184.2C98.31 186.14 98.65 187.56 99.32 188.48C99.99 189.39 101.01 189.85 102.38 189.85C103.94 189.85 105.15 189.35 106.01 188.35C106.9 187.33 107.34 185.91 107.34 184.08L107.34 171.51L111.61 171.51L111.61 192.95L107.62 192.95L107.54 187.35L108.15 187.59C107.77 189.47 106.98 190.92 105.77 191.94C104.56 192.94 103 193.43 101.09 193.43ZM116.85 198.99L116.85 171.51L120.88 171.51L121 176.1L120.52 175.86C121.05 174.28 121.94 173.08 123.17 172.28C124.41 171.44 125.83 171.03 127.45 171.03C129.54 171.03 131.26 171.55 132.6 172.6C133.97 173.62 134.98 174.98 135.63 176.67C136.3 178.36 136.63 180.22 136.63 182.23C136.63 184.25 136.3 186.1 135.63 187.79C134.98 189.48 133.97 190.85 132.6 191.9C131.26 192.92 129.54 193.43 127.45 193.43C126.37 193.43 125.36 193.25 124.42 192.87C123.48 192.49 122.68 191.97 122.01 191.3C121.36 190.6 120.91 189.78 120.64 188.84L121.12 188.35L121.12 198.99L116.85 198.99ZM126.68 189.72C128.4 189.72 129.74 189.07 130.71 187.75C131.71 186.43 132.2 184.59 132.2 182.23C132.2 179.87 131.71 178.03 130.71 176.71C129.74 175.39 128.4 174.73 126.68 174.73C125.55 174.73 124.57 175.02 123.74 175.58C122.91 176.12 122.26 176.95 121.81 178.08C121.35 179.21 121.12 180.59 121.12 182.23C121.12 183.87 121.33 185.25 121.76 186.38C122.22 187.51 122.87 188.35 123.7 188.92C124.56 189.46 125.55 189.72 126.68 189.72ZM147.78 193.43C145.96 193.43 144.36 192.98 142.99 192.06C141.64 191.15 140.61 189.86 139.88 188.19C139.19 186.5 138.84 184.51 138.84 182.23C138.84 179.95 139.2 177.97 139.93 176.31C140.65 174.61 141.68 173.31 143.03 172.4C144.37 171.48 145.96 171.03 147.78 171.03C149.26 171.03 150.58 171.34 151.73 171.95C152.89 172.57 153.76 173.43 154.35 174.53L154.35 164.34L158.62 164.34L158.62 192.95L154.63 192.95L154.51 189.72C153.92 190.88 153.02 191.79 151.81 192.47C150.63 193.11 149.29 193.43 147.78 193.43ZM148.91 189.72C150.07 189.72 151.05 189.43 151.85 188.84C152.66 188.25 153.28 187.39 153.71 186.26C154.14 185.13 154.35 183.79 154.35 182.23C154.35 180.62 154.14 179.26 153.71 178.16C153.28 177.03 152.66 176.19 151.85 175.62C151.05 175.03 150.07 174.73 148.91 174.73C147.19 174.73 145.82 175.41 144.8 176.75C143.78 178.06 143.27 179.89 143.27 182.23C143.27 184.54 143.78 186.37 144.8 187.71C145.82 189.05 147.19 189.72 148.91 189.72ZM169.49 193.43C167.26 193.43 165.47 192.92 164.13 191.9C162.81 190.88 162.16 189.44 162.16 187.59C162.16 185.74 162.71 184.3 163.81 183.28C164.94 182.23 166.67 181.48 169.01 181.02L176.38 179.61C176.38 177.94 175.99 176.71 175.21 175.9C174.43 175.07 173.28 174.65 171.75 174.65C170.38 174.65 169.3 174.96 168.52 175.58C167.74 176.17 167.21 177.06 166.91 178.24L162.52 177.96C162.92 175.81 163.91 174.12 165.5 172.88C167.11 171.64 169.19 171.03 171.75 171.03C174.65 171.03 176.85 171.81 178.35 173.36C179.89 174.9 180.65 177.06 180.65 179.85L180.65 188.19C180.65 188.7 180.73 189.07 180.89 189.28C181.08 189.47 181.38 189.56 181.78 189.56L182.55 189.56L182.55 192.95C182.41 192.98 182.2 193 181.9 193.03C181.61 193.06 181.3 193.07 180.97 193.07C180.06 193.07 179.27 192.92 178.6 192.63C177.95 192.33 177.47 191.85 177.15 191.18C176.82 190.48 176.66 189.55 176.66 188.4L177.11 188.6C176.89 189.54 176.42 190.37 175.69 191.09C175 191.82 174.1 192.4 173 192.83C171.92 193.23 170.75 193.43 169.49 193.43ZM170.17 190.05C171.46 190.05 172.57 189.81 173.48 189.32C174.39 188.81 175.1 188.11 175.62 187.23C176.12 186.34 176.38 185.33 176.38 184.2L176.38 182.83L170.09 184.04C168.8 184.28 167.89 184.67 167.35 185.21C166.84 185.72 166.59 186.38 166.59 187.19C166.59 188.1 166.9 188.81 167.51 189.32C168.16 189.81 169.05 190.05 170.17 190.05ZM192.47 192.95C190.42 192.95 188.92 192.48 187.95 191.54C186.99 190.6 186.5 189.13 186.5 187.15L186.5 166.47L190.77 166.47L190.77 186.82C190.77 187.82 190.99 188.5 191.42 188.88C191.85 189.25 192.51 189.44 193.39 189.44L196.46 189.44L196.46 192.95L192.47 192.95ZM183.24 175.02L183.24 171.51L196.46 171.51L196.46 175.02L183.24 175.02ZM208.2 193.43C206.11 193.43 204.29 192.98 202.76 192.06C201.26 191.15 200.09 189.85 199.26 188.15C198.45 186.46 198.05 184.49 198.05 182.23C198.05 179.97 198.45 178.01 199.26 176.35C200.09 174.65 201.26 173.35 202.76 172.44C204.27 171.5 206.04 171.03 208.08 171.03C210.02 171.03 211.72 171.48 213.2 172.4C214.68 173.28 215.82 174.57 216.63 176.26C217.46 177.96 217.88 180 217.88 182.39L217.88 183.48L202.48 183.48C202.59 185.57 203.14 187.15 204.13 188.19C205.15 189.24 206.52 189.77 208.24 189.77C209.51 189.77 210.55 189.47 211.39 188.88C212.22 188.29 212.8 187.5 213.12 186.5L217.55 186.78C216.99 188.77 215.87 190.38 214.21 191.62C212.57 192.83 210.57 193.43 208.2 193.43ZM202.48 180.25L213.36 180.25C213.23 178.35 212.68 176.94 211.71 176.02C210.77 175.11 209.56 174.65 208.08 174.65C206.55 174.65 205.29 175.14 204.29 176.1C203.33 177.04 202.72 178.43 202.48 180.25Z" fill="#0A0A0A"/>
</g>
</g>
<defs>
<clipPath id="clip0_34_2">
<rect width="310.88" height="310.88" fill="white"/>
</clipPath>
<clipPath id="clip1_34_2">
<rect width="8.70755" height="8.70755" fill="white" transform="translate(28.832 25.9941)"/>
</clipPath>
</defs>
</svg>
