<svg preserveAspectRatio="none" overflow="visible" style="display: block;" width="10.741" height="7.81161" viewBox="0 0 10.741 7.81161" fill="none" xmlns="http://www.w3.org/2000/svg">
<g id="logomark">
<path id="Vector" d="M4.61514 0.116766C3.89399 0.345023 3.30679 1.07067 2.13241 2.52198C0.683711 4.31228 -0.0406393 5.20741 0.00175927 5.96561C0.0302885 6.47579 0.255699 6.95444 0.629782 7.29923C1.18572 7.81161 2.33161 7.81161 4.6234 7.81161H4.75092C5.31141 7.81161 5.84178 7.55758 6.19433 7.12188C7.35516 5.68732 7.93558 4.97006 8.68542 4.86189C8.8677 4.8356 9.05278 4.8356 9.23506 4.86189C9.73784 4.93442 10.1645 5.2808 10.741 5.93368C9.81873 4.20358 8.12572 0.749633 6.12626 0.116766C5.6344 -0.0389221 5.107 -0.0389221 4.61514 0.116766Z" fill="white"/>
</g>
</svg>
